<?xml version="1.0" standalone="no"?>
<!DOCTYPE svg PUBLIC "-//W3C//DTD SVG 20010904//EN"
 "http://www.w3.org/TR/2001/REC-SVG-20010904/DTD/svg10.dtd">
<svg version="1.0" xmlns="http://www.w3.org/2000/svg"
 width="640.000000pt" height="640.000000pt" viewBox="0 0 640.000000 640.000000"
 preserveAspectRatio="xMidYMid meet">
<metadata>
Created by potrace 1.16, written by Peter Selinger 2001-2019
</metadata>
<g transform="translate(0.000000,640.000000) scale(0.100000,-0.100000)"
fill="#000000" stroke="none">
<path d="M3710 6225 c0 -8 -7 -15 -15 -15 -8 0 -15 -7 -15 -15 0 -8 -7 -15
-15 -15 -13 0 -15 -49 -15 -385 0 -336 2 -385 15 -385 8 0 15 -7 15 -15 0 -8
6 -15 14 -15 7 0 16 -9 19 -20 5 -19 14 -20 291 -20 l286 0 0 -125 0 -125 50
0 c38 0 50 4 50 15 0 8 7 15 15 15 8 0 15 7 15 15 0 8 7 15 15 15 8 0 15 7 15
15 0 8 7 15 15 15 8 0 15 9 15 20 0 11 7 20 15 20 8 0 15 7 15 15 0 8 7 15 15
15 8 0 15 7 15 15 0 8 9 15 20 15 11 0 20 7 20 15 0 8 7 15 15 15 8 0 15 7 15
15 0 13 86 15 716 15 707 0 716 0 721 20 3 11 12 20 19 20 8 0 14 7 14 15 0 8
7 15 15 15 13 0 15 49 15 385 0 336 -2 385 -15 385 -8 0 -15 7 -15 15 0 8 -7
15 -15 15 -8 0 -15 7 -15 15 0 13 -137 15 -1170 15 -1033 0 -1170 -2 -1170
-15z m2340 -30 c0 -8 7 -15 15 -15 13 0 15 -49 15 -385 0 -336 -2 -385 -15
-385 -8 0 -15 -7 -15 -15 0 -13 -87 -15 -720 -16 -396 -1 -724 -3 -730 -4 -5
-1 -15 -3 -21 -4 -5 0 -7 -6 -4 -12 4 -6 -2 -13 -14 -16 -12 -3 -21 -12 -21
-19 0 -8 -7 -14 -15 -14 -8 0 -15 -7 -15 -15 0 -8 -7 -15 -15 -15 -8 0 -15 -7
-15 -15 0 -8 -7 -15 -15 -15 -8 0 -15 -7 -15 -15 0 -8 -7 -15 -15 -15 -8 0
-15 -7 -15 -16 0 -9 -9 -18 -20 -21 -11 -3 -20 -12 -20 -19 0 -8 -7 -14 -15
-14 -8 0 -15 -7 -15 -15 0 -8 -7 -15 -15 -15 -13 0 -15 21 -15 130 l0 130
-305 0 c-264 0 -305 2 -305 15 0 8 -7 15 -15 15 -13 0 -15 49 -15 385 0 336 2
385 15 385 8 0 15 7 15 15 0 13 137 15 1170 15 1033 0 1170 -2 1170 -15z"/>
<path d="M4088 6142 c-16 -2 -28 -9 -28 -18 0 -8 -7 -14 -15 -14 -8 0 -15 7
-15 15 0 22 -79 20 -96 -2 -13 -17 -15 -17 -28 0 -9 11 -27 17 -55 17 l-41 0
0 -160 0 -160 44 0 45 0 3 47 c2 36 7 49 21 51 14 3 17 -4 17 -48 l0 -51 93 3
92 3 3 48 c2 33 7 47 18 47 10 0 14 -13 14 -50 l0 -50 95 0 95 0 0 50 c0 37 4
50 14 50 11 0 16 -14 18 -47 l3 -48 48 -3 c37 -2 47 0 47 12 0 20 26 21 34 1
4 -13 39 -15 226 -15 l220 0 0 50 c0 37 4 50 14 50 11 0 16 -14 18 -47 l3 -48
95 0 c106 0 96 -7 99 73 1 12 7 22 16 22 11 0 15 -12 15 -50 l0 -51 93 3 92 3
3 48 c2 33 7 47 18 47 10 0 14 -13 14 -50 l0 -50 95 0 95 0 0 50 c0 37 4 50
14 50 11 0 16 -14 18 -47 l3 -48 143 -3 142 -3 0 146 c0 117 -3 145 -14 145
-7 0 -16 8 -18 18 -4 14 -14 16 -66 14 -45 -3 -62 -8 -62 -18 0 -8 -7 -14 -15
-14 -8 0 -15 6 -15 14 0 16 -47 27 -79 19 -11 -3 -21 -12 -21 -19 0 -8 -7 -14
-15 -14 -8 0 -15 7 -15 15 0 8 -6 15 -12 16 -38 3 -74 -5 -85 -19 -12 -16 -14
-16 -27 1 -18 23 -166 26 -166 2 0 -8 -5 -15 -10 -15 -6 0 -13 7 -16 15 -4 10
-20 15 -50 15 -32 0 -44 -4 -44 -15 0 -8 -7 -15 -15 -15 -9 0 -18 7 -21 15 -4
10 -20 15 -50 15 -32 0 -44 -4 -44 -15 0 -8 -7 -15 -15 -15 -8 0 -15 7 -15 15
0 16 -16 19 -100 15 -36 -1 -59 -8 -67 -19 -12 -15 -14 -15 -26 1 -11 14 -33
17 -118 18 -216 2 -239 1 -239 -15 0 -8 -7 -15 -15 -15 -8 0 -15 7 -15 15 0
11 -12 15 -50 15 -38 0 -50 -4 -50 -15 0 -8 -7 -15 -15 -15 -8 0 -15 7 -15 15
0 8 -6 15 -12 16 -38 3 -74 -5 -85 -19 -12 -16 -14 -16 -26 -1 -13 17 -84 27
-139 21z m-218 -47 c0 -8 7 -15 15 -15 8 0 15 -7 15 -15 0 -8 7 -15 15 -15 9
0 15 -9 15 -25 0 -14 0 -28 0 -32 0 -5 -6 -8 -12 -8 -7 0 -12 8 -10 18 2 11
-4 17 -18 17 -18 0 -20 -6 -20 -80 0 -64 -3 -80 -15 -80 -13 0 -15 21 -15 125
0 104 2 125 15 125 8 0 15 -7 15 -15z m130 -110 c0 -104 -2 -125 -15 -125 -10
0 -15 10 -15 30 0 20 -5 30 -15 30 -10 0 -15 10 -15 30 0 20 5 30 15 30 12 0
15 14 15 65 0 51 3 65 15 65 13 0 15 -21 15 -125z m190 110 c0 -8 7 -15 15
-15 12 0 15 -19 15 -110 0 -91 -3 -110 -15 -110 -8 0 -14 3 -14 8 1 4 1 25 0
47 l-1 40 -48 0 -47 0 -3 -47 c-2 -27 -7 -48 -12 -48 -13 0 -15 24 -12 126 3
73 7 94 18 94 8 0 14 7 14 15 0 11 12 15 45 15 33 0 45 -4 45 -15z m130 0 c0
-8 7 -15 15 -15 8 0 15 -7 15 -15 0 -8 7 -15 15 -15 10 0 15 -11 15 -35 0 -38
-19 -48 -27 -15 -3 11 -12 20 -19 20 -11 0 -14 -19 -14 -80 0 -64 -3 -80 -15
-80 -13 0 -15 21 -15 125 0 104 2 125 15 125 8 0 15 -7 15 -15z m129 -110 c-1
-99 -4 -125 -15 -125 -9 0 -14 11 -14 30 0 20 -5 30 -15 30 -10 0 -15 10 -15
30 0 20 5 30 15 30 12 0 15 14 15 65 0 51 3 65 15 65 12 0 15 -21 14 -125z
m161 110 c0 -8 7 -15 15 -15 12 0 15 -17 15 -95 0 -78 -3 -95 -15 -95 -12 0
-15 17 -15 95 l0 95 -30 0 c-20 0 -30 5 -30 15 0 10 10 15 30 15 20 0 30 -5
30 -15z m220 0 c0 -8 7 -15 15 -15 10 0 15 -10 15 -30 0 -20 -5 -30 -15 -30
-10 0 -15 10 -15 31 0 30 -1 30 -47 27 -46 -3 -48 -4 -48 -33 0 -29 2 -30 48
-33 26 -2 47 -7 47 -12 0 -5 -21 -10 -47 -12 l-48 -3 0 -50 0 -50 35 1 c19 1
41 2 48 3 7 1 12 17 12 46 0 33 4 45 15 45 11 0 15 -12 15 -45 0 -33 -4 -45
-15 -45 -8 0 -15 -7 -15 -15 0 -12 -13 -15 -60 -15 l-60 0 0 125 0 125 60 0
c47 0 60 -3 60 -15z m190 0 c0 -8 7 -15 15 -15 12 0 15 -18 15 -100 0 -55 1
-103 3 -107 1 -3 -3 -8 -10 -10 -8 -3 -13 12 -15 43 l-3 48 -47 2 -48 3 0 -49
c0 -38 -4 -50 -15 -50 -12 0 -15 19 -15 110 0 91 3 110 15 110 8 0 15 7 15 15
0 11 12 15 45 15 33 0 45 -4 45 -15z m130 0 c0 -8 7 -15 15 -15 8 0 15 -6 15
-14 0 -7 8 -16 19 -19 13 -3 18 -13 17 -33 -2 -32 -26 -46 -26 -15 0 14 -6 21
-20 21 -18 0 -20 -7 -20 -80 0 -64 -3 -80 -15 -80 -13 0 -15 21 -15 125 0 104
2 125 15 125 8 0 15 -7 15 -15z m130 -110 c0 -104 -2 -125 -15 -125 -10 0 -15
10 -15 30 0 20 -5 30 -15 30 -10 0 -15 10 -15 30 0 20 5 30 15 30 12 0 15 14
15 65 0 51 3 65 15 65 13 0 15 -21 15 -125z m190 110 c0 -8 7 -15 15 -15 12 0
15 -19 15 -110 0 -83 -3 -110 -13 -110 -9 0 -13 15 -12 48 l0 47 -50 0 -50 0
-3 -47 c-2 -27 -7 -48 -13 -48 -5 0 -9 48 -9 110 0 91 3 110 15 110 8 0 15 7
15 15 0 11 12 15 45 15 33 0 45 -4 45 -15z m130 0 c0 -8 6 -15 14 -15 7 0 16
-9 19 -21 3 -12 10 -18 16 -14 7 4 11 -7 11 -29 0 -39 -18 -49 -27 -16 -3 11
-12 20 -19 20 -11 0 -14 -19 -14 -80 0 -64 -3 -80 -15 -80 -13 0 -15 21 -15
125 0 104 2 125 15 125 8 0 15 -7 15 -15z m129 -110 c0 -102 -3 -125 -15 -125
-9 0 -14 10 -14 30 0 20 -5 30 -15 30 -10 0 -15 10 -15 30 0 20 5 30 15 30 12
0 15 14 15 65 0 51 3 65 15 65 12 0 15 -21 14 -125z m161 110 c0 -8 7 -15 15
-15 12 0 15 -19 15 -110 0 -91 -3 -110 -15 -110 -11 0 -15 12 -15 45 0 45 0
45 -35 45 -35 0 -35 0 -35 -45 0 -33 -4 -45 -15 -45 -12 0 -15 19 -15 110 0
91 3 110 15 110 11 0 15 -12 15 -50 l0 -50 35 0 c33 0 35 2 35 35 0 24 -5 35
-15 35 -8 0 -15 7 -15 15 0 8 -7 15 -15 15 -8 0 -15 7 -15 15 0 10 10 15 30
15 20 0 30 -5 30 -15z m-1350 -110 c0 -78 -3 -95 -15 -95 -12 0 -15 17 -15 95
0 78 3 95 15 95 12 0 15 -17 15 -95z m68 -113 c2 -8 -7 -12 -27 -12 -20 0 -31
5 -31 14 0 18 52 16 58 -2z"/>
<path d="M4126 6065 c-3 -8 -13 -15 -21 -15 -12 0 -15 -8 -13 -32 3 -32 4 -33
53 -33 50 0 50 0 51 33 1 25 -3 32 -17 32 -11 0 -19 7 -19 15 0 8 -6 15 -14
15 -8 0 -16 -7 -20 -15z"/>
<path d="M4960 6065 c0 -8 -7 -15 -15 -15 -11 0 -15 -11 -15 -36 l0 -35 48 3
c45 3 47 4 50 36 2 24 -1 32 -12 32 -9 0 -16 7 -16 15 0 8 -9 15 -20 15 -11 0
-20 -7 -20 -15z"/>
<path d="M5406 6065 c-3 -8 -13 -15 -21 -15 -12 0 -15 -8 -13 -32 3 -32 5 -33
51 -36 l47 -3 0 35 c0 25 -4 36 -15 36 -8 0 -15 7 -15 15 0 8 -6 15 -14 15 -8
0 -16 -7 -20 -15z"/>
<path d="M4420 5746 c0 -7 -9 -16 -20 -19 -17 -4 -20 -14 -20 -66 0 -54 2 -61
20 -61 11 0 20 -7 20 -15 0 -8 -9 -15 -20 -15 -17 0 -20 -7 -20 -46 0 -37 4
-47 20 -51 11 -3 20 -12 20 -19 0 -11 19 -14 80 -14 64 0 80 3 80 15 0 8 7 15
15 15 12 0 15 16 15 80 0 64 -3 80 -15 80 -8 0 -15 7 -15 15 0 10 10 15 30 15
l30 0 0 -110 0 -110 50 0 50 0 0 110 0 110 30 0 c27 0 30 -3 30 -30 0 -20 5
-30 15 -30 12 0 15 -16 15 -80 l0 -80 65 0 65 0 0 80 c0 64 -3 80 -15 80 -12
0 -15 14 -15 65 l0 65 30 0 c27 0 30 -3 30 -30 0 -20 -5 -30 -15 -30 -10 0
-15 -11 -15 -35 0 -24 5 -35 15 -35 12 0 15 -16 15 -80 l0 -80 196 0 195 0 -3
48 -3 47 -47 3 c-34 2 -48 7 -48 18 0 9 11 14 35 14 35 0 35 0 35 44 0 30 5
46 15 50 10 4 15 20 15 51 l0 46 -97 -3 -98 -3 -3 -107 -3 -108 -44 0 -45 0 0
110 0 110 -80 0 c-64 0 -80 -3 -80 -15 0 -8 -7 -15 -15 -15 -8 0 -15 7 -15 15
0 13 -33 15 -240 15 -198 0 -240 -2 -240 -14z m120 -31 c0 -11 -11 -15 -45
-15 -61 0 -61 24 0 28 35 2 45 -1 45 -13z m228 -2 c2 -9 -8 -13 -32 -13 l-36
0 0 -116 c0 -79 -3 -115 -11 -112 -7 2 -11 45 -12 113 l-2 110 -32 3 c-21 2
-33 9 -33 18 0 12 14 14 77 12 50 -2 78 -7 81 -15z m92 -49 c0 -48 -3 -65 -12
-61 -7 2 -12 16 -10 31 2 21 -2 29 -17 33 -13 3 -21 14 -21 27 0 29 8 36 37
36 22 0 23 -4 23 -66z m193 -49 l2 -110 48 -3 c33 -2 47 -7 47 -18 0 -11 -14
-14 -59 -14 l-60 0 -3 126 c-2 69 -1 128 1 130 16 16 23 -15 24 -111z m287
100 c0 -11 -12 -15 -45 -15 -45 0 -45 0 -45 -35 0 -32 2 -35 30 -35 20 0 30
-5 30 -15 0 -10 -10 -15 -30 -15 -29 0 -30 -1 -30 -50 l0 -50 45 0 c33 0 45
-4 45 -15 0 -12 -13 -15 -60 -15 l-60 0 0 130 0 130 60 0 c47 0 60 -3 60 -15z
m-893 -52 c-3 -39 -27 -42 -27 -4 0 20 5 31 14 31 10 0 14 -9 13 -27z m123 17
c0 -5 -4 -10 -10 -10 -5 0 -10 5 -10 10 0 6 5 10 10 10 6 0 10 -4 10 -10z
m-30 -65 c0 -8 7 -15 15 -15 11 0 15 -12 15 -45 0 -25 -4 -45 -10 -45 -5 0
-10 14 -10 30 0 23 -4 30 -20 30 -11 0 -20 7 -20 15 0 10 -10 15 -30 15 -20 0
-30 5 -30 15 0 11 12 15 45 15 33 0 45 -4 45 -15z m388 -77 c-3 -60 -4 -63
-30 -66 l-28 -3 0 65 0 66 30 0 31 0 -3 -62z m-478 -18 c0 -5 -7 -10 -15 -10
-8 0 -15 5 -15 10 0 6 7 10 15 10 8 0 15 -4 15 -10z m90 -35 c0 -11 -12 -15
-45 -15 -33 0 -45 4 -45 15 0 11 12 15 45 15 33 0 45 -4 45 -15z"/>
<path d="M3230 5235 c0 -8 -7 -15 -15 -15 -8 0 -15 -9 -15 -20 0 -11 -7 -20
-15 -20 -8 0 -15 -7 -15 -15 0 -8 -7 -15 -15 -15 -8 0 -15 -7 -15 -15 0 -11
-12 -15 -50 -15 -37 0 -50 -4 -50 -14 0 -9 -12 -16 -32 -18 -18 -2 -32 -7 -31
-13 1 -5 -7 -13 -18 -17 -10 -4 -19 -14 -19 -23 0 -10 -10 -15 -30 -15 -20 0
-30 -5 -30 -15 0 -10 -10 -15 -29 -15 -16 0 -31 -6 -35 -15 -4 -10 -20 -15
-51 -15 -43 0 -45 -1 -45 -29 0 -16 6 -31 15 -35 8 -3 15 -12 15 -21 0 -11 10
-15 35 -15 32 0 35 -2 35 -30 0 -28 -3 -30 -35 -30 -32 0 -35 -2 -35 -30 0
-20 -5 -30 -15 -30 -8 0 -15 -9 -15 -20 0 -11 -7 -20 -15 -20 -8 0 -15 -7 -15
-15 0 -8 -6 -15 -14 -15 -8 0 -16 -7 -20 -15 -3 -8 -12 -15 -21 -15 -8 0 -15
-7 -15 -15 0 -8 -7 -15 -16 -15 -11 0 -14 -8 -12 -32 3 -33 3 -33 66 -36 46
-2 62 -7 62 -17 0 -8 -7 -15 -15 -15 -8 0 -15 -7 -15 -15 0 -8 -7 -15 -15 -15
-8 0 -15 -8 -15 -18 0 -11 -9 -29 -20 -42 -15 -17 -20 -37 -20 -77 0 -52 0
-53 -30 -53 -20 0 -30 -5 -30 -15 0 -8 -7 -15 -15 -15 -8 0 -15 -7 -15 -15 0
-9 -7 -18 -15 -21 -10 -4 -15 -20 -15 -50 0 -33 -4 -44 -15 -44 -9 0 -18 -7
-21 -15 -4 -8 -12 -15 -20 -15 -8 0 -14 -9 -14 -20 0 -11 -7 -20 -15 -20 -8 0
-15 -7 -15 -15 0 -8 -7 -15 -15 -15 -11 0 -15 -12 -15 -45 0 -33 -4 -45 -15
-45 -11 0 -15 -12 -15 -50 0 -43 -3 -50 -20 -50 -11 0 -20 -7 -20 -15 0 -8 -7
-15 -15 -15 -8 0 -15 -6 -15 -14 0 -8 -7 -16 -15 -20 -9 -3 -15 -18 -15 -36 0
-29 -1 -30 -50 -30 -38 0 -50 -4 -50 -15 0 -13 -22 -15 -139 -15 -114 0 -140
-3 -145 -15 -4 -11 -21 -15 -66 -15 -47 0 -60 -3 -60 -15 0 -10 -10 -15 -31
-15 -22 0 -32 -5 -36 -20 -4 -14 -14 -20 -34 -20 -19 0 -29 -5 -29 -15 0 -10
-10 -15 -30 -15 -20 0 -30 -5 -30 -15 0 -8 -9 -15 -20 -15 -11 0 -20 -7 -20
-15 0 -8 -7 -15 -15 -15 -8 0 -15 -7 -15 -15 0 -8 -7 -15 -15 -15 -10 0 -15
-11 -15 -35 0 -24 -5 -35 -15 -35 -8 0 -15 -7 -15 -15 0 -8 -6 -15 -12 -15 -7
0 -23 -11 -35 -24 -21 -22 -23 -34 -23 -126 0 -93 2 -102 20 -107 14 -4 20
-14 20 -34 0 -26 4 -29 30 -29 20 0 30 5 30 15 0 8 7 15 15 15 8 0 15 7 15 15
0 8 7 15 15 15 10 0 15 -10 15 -30 0 -23 4 -30 20 -30 15 0 20 -7 20 -29 0
-16 6 -31 15 -35 8 -3 15 -12 15 -21 0 -8 7 -15 15 -15 8 0 15 -7 15 -15 0
-10 10 -15 30 -15 20 0 30 -5 30 -15 0 -10 11 -15 35 -15 l35 0 0 130 c0 109
2 130 15 130 10 0 15 10 15 30 0 20 5 30 15 30 8 0 15 7 15 15 0 8 7 15 15 15
8 0 15 7 15 15 0 11 12 15 50 15 43 0 50 3 50 20 0 11 6 20 14 20 8 0 16 7 20
15 4 12 29 15 131 15 l125 0 0 -50 c0 -38 4 -50 15 -50 8 0 15 -7 15 -15 0 -8
7 -15 15 -15 12 0 15 -17 15 -94 0 -82 2 -95 18 -98 14 -3 17 -14 17 -63 l0
-60 33 -3 32 -3 0 -80 c0 -64 3 -79 15 -79 10 0 15 -10 15 -30 0 -20 -5 -30
-15 -30 -10 0 -15 -11 -15 -35 0 -23 -5 -35 -14 -35 -8 0 -17 -12 -20 -26 -4
-15 -20 -38 -37 -53 -16 -14 -29 -31 -29 -38 0 -8 -12 -13 -30 -13 -20 0 -30
-5 -30 -15 0 -11 -12 -15 -50 -15 -49 0 -50 -1 -50 -30 0 -20 5 -30 15 -30 8
0 15 -7 15 -15 0 -11 11 -15 36 -15 28 0 35 -3 32 -17 -3 -15 -16 -18 -81 -21
-59 -2 -77 -6 -77 -17 0 -11 -13 -15 -50 -15 -38 0 -50 -4 -50 -15 0 -8 7 -15
15 -15 8 0 15 -7 15 -15 0 -8 6 -15 13 -15 15 0 57 -44 57 -59 0 -6 14 -11 30
-11 20 0 30 -5 30 -15 0 -13 26 -15 175 -15 149 0 175 2 175 15 0 10 10 15 31
15 22 0 32 5 36 20 3 11 12 20 19 20 8 0 14 7 14 15 0 8 7 15 15 15 8 0 15 7
15 15 0 8 7 15 15 15 10 0 15 10 15 30 0 23 4 30 20 30 17 0 20 -7 20 -40 0
-29 -5 -42 -20 -50 -17 -9 -20 -21 -20 -85 0 -60 -3 -75 -15 -75 -12 0 -15
-17 -15 -95 0 -78 -3 -95 -15 -95 -13 0 -15 -23 -15 -145 l0 -145 30 0 c23 0
30 -4 30 -20 0 -19 7 -20 160 -20 140 0 160 2 160 16 0 9 9 18 20 21 17 5 20
14 20 65 0 51 -3 61 -20 65 -14 4 -20 14 -20 34 0 19 -5 29 -15 29 -12 0 -15
16 -15 80 0 64 3 80 15 80 11 0 15 12 15 49 0 67 7 81 41 81 26 0 29 4 29 30
0 20 5 30 15 30 8 0 15 7 15 15 0 8 7 15 15 15 8 0 15 7 15 15 0 9 7 18 15 21
8 4 15 17 15 31 0 16 7 27 20 30 13 4 20 14 20 32 1 16 12 35 30 51 20 16 30
33 30 52 0 18 5 28 15 28 10 0 15 10 15 30 0 20 5 30 15 30 8 0 15 -7 15 -15
0 -10 11 -15 35 -15 32 0 35 -2 35 -30 0 -27 3 -30 30 -30 28 0 30 -3 30 -35
0 -24 -5 -35 -15 -35 -10 0 -15 -10 -15 -30 0 -20 -5 -30 -15 -30 -12 0 -15
-14 -15 -65 0 -51 3 -65 15 -65 12 0 15 -14 15 -65 0 -51 3 -65 15 -65 12 0
15 -19 15 -110 l0 -110 30 0 c19 0 30 -5 30 -14 0 -7 9 -16 20 -19 16 -4 20
-14 20 -51 0 -34 4 -46 15 -46 8 0 15 -7 15 -15 0 -13 26 -15 175 -15 l175 0
0 65 c0 51 -3 65 -15 65 -10 0 -15 10 -15 30 0 20 -5 30 -15 30 -10 0 -15 11
-15 35 0 24 -5 35 -15 35 -8 0 -15 7 -15 15 0 8 -7 15 -15 15 -10 0 -15 10
-15 30 0 23 -4 30 -20 30 -17 0 -20 7 -20 50 0 38 -4 50 -15 50 -10 0 -15 10
-15 29 0 26 4 30 33 33 17 2 31 8 30 13 -1 6 7 13 18 17 11 4 17 13 14 19 -4
6 2 13 14 16 12 3 21 12 21 19 0 8 7 14 15 14 8 0 15 7 15 15 0 8 7 15 15 15
12 0 15 23 17 127 l3 128 33 3 32 3 0 76 c0 66 -2 75 -20 80 -16 4 -20 14 -20
49 0 37 3 44 20 44 11 0 20 -7 20 -15 0 -8 7 -15 15 -15 8 0 15 -7 15 -15 0
-8 7 -15 15 -15 8 0 15 -7 15 -15 0 -8 -7 -15 -15 -15 -12 0 -15 -16 -15 -80
0 -64 3 -80 15 -80 8 0 15 -9 15 -21 0 -18 5 -20 48 -17 l47 3 3 48 c3 45 5
47 33 47 19 0 29 -5 29 -15 0 -8 7 -15 15 -15 8 0 15 -7 15 -15 0 -9 10 -20
23 -25 12 -5 18 -9 13 -9 -12 -1 42 -51 55 -51 5 0 9 -7 9 -15 0 -8 7 -15 15
-15 8 0 15 -7 15 -15 0 -8 6 -15 14 -15 7 0 16 -9 19 -20 3 -11 12 -20 21 -20
9 0 16 -7 16 -15 0 -8 7 -15 15 -15 8 0 15 -7 15 -15 0 -8 7 -15 15 -15 8 0
15 -7 15 -15 0 -8 7 -15 15 -15 8 0 15 -7 15 -15 0 -8 7 -15 15 -15 8 0 15 -7
15 -15 0 -8 7 -15 16 -15 9 0 18 -9 21 -20 3 -11 12 -20 20 -20 8 0 11 -5 8
-11 -4 -6 2 -13 14 -16 12 -3 21 -12 21 -19 0 -9 11 -14 30 -14 20 0 30 -5 30
-15 0 -11 12 -15 45 -15 31 0 47 -5 51 -15 5 -11 22 -15 65 -15 l59 0 0 44 c0
24 -4 46 -9 48 -6 2 -11 23 -13 47 -1 33 -7 45 -20 49 -12 3 -18 14 -18 33 0
19 -5 29 -15 29 -8 0 -15 7 -15 15 0 8 -7 15 -15 15 -8 0 -15 5 -15 11 0 15
-42 59 -57 59 -7 0 -13 7 -13 15 0 8 -7 15 -15 15 -8 0 -15 7 -15 15 0 8 -7
15 -15 15 -8 0 -15 7 -15 15 0 8 -7 15 -15 15 -8 0 -15 5 -15 11 0 15 -42 59
-57 59 -7 0 -13 7 -13 15 0 8 -7 15 -15 15 -8 0 -15 7 -15 15 0 8 -7 15 -15
15 -8 0 -15 7 -15 15 0 8 -7 15 -15 15 -8 0 -15 5 -15 12 0 13 -76 88 -90 88
-6 0 -10 7 -10 15 0 8 -7 15 -15 15 -10 0 -15 11 -15 35 0 32 3 35 29 35 16 0
31 6 35 15 3 8 12 15 21 15 11 0 15 11 15 45 0 32 -4 45 -14 45 -7 0 -16 9
-19 20 -4 17 -14 20 -65 20 -52 0 -60 -3 -65 -21 -8 -31 -31 -18 -35 19 -2 20
-9 32 -18 32 -9 0 -14 11 -14 30 0 20 -5 30 -15 30 -10 0 -15 11 -15 35 0 24
-5 35 -15 35 -10 0 -15 10 -15 30 0 20 -5 30 -15 30 -12 0 -15 16 -15 80 0 65
-3 80 -15 80 -9 0 -18 7 -21 15 -4 8 -12 15 -20 15 -10 0 -14 -13 -14 -45 0
-33 -4 -45 -15 -45 -8 0 -15 -7 -15 -15 0 -8 -7 -15 -15 -15 -8 0 -15 -6 -15
-14 0 -18 -38 -28 -61 -16 -12 7 -19 6 -22 -3 -3 -7 -6 -5 -6 6 -1 12 7 17 29
17 20 0 30 5 30 15 0 8 7 15 15 15 8 0 15 7 15 15 0 8 7 15 15 15 10 0 15 11
15 35 0 24 5 35 15 35 10 0 15 11 15 35 0 32 -2 35 -30 35 l-30 0 0 80 0 80
44 0 c30 0 46 5 50 15 3 8 12 15 21 15 12 0 15 13 15 61 0 52 -3 62 -20 66
-11 3 -20 12 -20 19 0 8 -7 14 -15 14 -12 0 -15 14 -15 65 0 51 -3 65 -15 65
-8 0 -15 7 -15 15 0 8 -7 15 -15 15 -10 0 -15 10 -15 30 0 20 -5 30 -15 30 -8
0 -15 6 -15 14 0 7 -9 16 -20 19 -11 3 -20 12 -20 21 0 9 -7 16 -15 16 -8 0
-15 7 -15 15 0 8 9 15 21 15 12 0 17 4 14 11 -4 6 2 13 14 16 12 3 21 12 21
19 0 8 7 14 15 14 8 0 15 7 15 15 0 8 7 15 15 15 13 0 15 21 15 130 0 109 -2
130 -15 130 -8 0 -15 7 -15 15 0 8 -7 15 -15 15 -8 0 -15 6 -15 14 0 7 -9 16
-21 19 -12 3 -18 10 -14 17 4 7 -2 14 -14 17 -12 3 -21 12 -21 19 0 8 -7 14
-15 14 -8 0 -15 7 -15 15 0 8 -7 15 -15 15 -12 0 -15 16 -15 80 0 64 -3 80
-15 80 -8 0 -15 7 -15 15 0 8 -7 15 -15 15 -9 0 -18 7 -21 15 -4 8 -12 15 -20
15 -10 0 -14 14 -14 50 0 38 4 50 15 50 13 0 15 20 15 120 0 66 1 123 3 128 1
4 -19 8 -45 10 -32 2 -48 -1 -48 -9 0 -15 -42 -59 -57 -59 -7 0 -13 -7 -13
-15 0 -10 -10 -15 -30 -15 -20 0 -30 5 -30 15 0 12 -16 15 -80 15 l-80 0 0 50
0 50 -65 0 c-51 0 -65 -3 -65 -15z m280 -390 c0 -8 9 -15 20 -15 11 0 20 -7
20 -15 0 -8 7 -15 15 -15 8 0 15 -9 15 -20 0 -11 6 -20 14 -20 8 0 16 -7 20
-15 11 -30 36 -17 36 20 0 24 5 35 15 35 8 0 15 -9 15 -20 0 -13 5 -18 15 -14
12 5 15 -4 15 -45 0 -39 4 -51 15 -51 8 0 15 -7 15 -15 0 -8 7 -15 15 -15 8 0
15 -7 15 -15 0 -9 9 -19 19 -23 20 -7 21 -8 21 -42 0 -11 7 -20 15 -20 8 0 15
-7 15 -15 0 -8 7 -15 15 -15 8 0 15 -7 15 -15 0 -8 6 -15 14 -15 22 0 28 -17
21 -59 -6 -37 -7 -38 -51 -37 -35 1 -44 5 -44 19 0 9 -7 17 -15 17 -8 0 -15 6
-15 13 0 16 -36 47 -55 47 -8 0 -15 7 -15 15 0 8 -7 15 -15 15 -8 0 -15 9 -15
20 0 11 -7 20 -15 20 -8 0 -15 7 -15 15 0 8 -7 15 -15 15 -8 0 -15 7 -15 15 0
8 -6 15 -14 15 -9 0 -16 12 -18 33 -2 20 -8 32 -18 32 -10 0 -15 10 -15 30 -1
20 -6 31 -18 33 -9 2 -17 10 -17 18 0 8 -7 14 -15 14 -8 0 -15 6 -15 14 0 17
-24 28 -45 20 -10 -4 -15 0 -15 11 0 11 5 15 15 11 10 -4 15 1 15 14 0 15 7
20 25 20 16 0 25 -6 25 -15z m-120 -190 c0 -33 -4 -45 -15 -45 -8 0 -15 7 -15
15 0 8 -7 15 -15 15 -10 0 -15 10 -15 30 0 27 3 30 30 30 29 0 30 -2 30 -45z
m-600 -450 c0 -10 10 -15 30 -15 20 0 30 -5 30 -15 0 -8 7 -15 15 -15 10 0 15
-11 15 -35 0 -24 5 -35 15 -35 10 0 15 -10 15 -30 0 -20 5 -30 15 -30 12 0 15
-16 14 -87 -1 -49 -4 -74 -6 -58 -6 40 -19 52 -19 18 -2 -104 -4 -123 -19
-123 -8 0 -15 -6 -15 -12 0 -16 -44 -58 -59 -58 -6 0 -11 -7 -11 -15 0 -10
-10 -15 -30 -15 -20 0 -30 -5 -30 -15 0 -12 -17 -15 -95 -15 -78 0 -95 3 -95
15 0 12 -14 15 -65 15 -51 0 -65 3 -65 15 0 14 -27 20 -72 16 -14 -2 -18 5
-18 27 0 34 12 39 80 38 33 -1 45 -5 45 -16 1 -8 7 -14 15 -12 28 7 80 -9 80
-23 0 -12 19 -15 95 -15 78 0 95 3 95 15 0 10 10 15 30 15 18 0 33 6 36 15 4
8 12 15 20 15 9 0 14 12 14 35 0 24 5 35 15 35 8 0 15 -9 15 -20 0 -11 4 -20
9 -20 10 0 8 116 -2 126 -4 4 -7 16 -7 26 0 10 -7 18 -15 18 -10 0 -15 10 -15
29 0 21 -6 30 -22 34 -12 3 -25 4 -30 1 -4 -3 -8 -39 -8 -80 0 -60 3 -74 16
-74 12 0 14 9 11 40 -3 34 -1 40 15 40 13 0 18 -7 18 -29 0 -49 -12 -91 -26
-91 -9 0 -14 -11 -14 -30 0 -26 -4 -30 -27 -30 l-28 1 23 13 c22 12 23 14 7
29 -14 14 -14 17 -2 17 13 0 13 5 4 30 -12 32 -27 40 -27 15 0 -8 -9 -15 -20
-15 -22 0 -27 -15 -9 -26 6 -3 15 0 21 7 7 11 8 9 5 -6 -2 -11 -9 -19 -16 -17
-7 1 -10 -2 -7 -7 4 -5 2 -12 -4 -16 -5 -3 -10 -2 -10 3 0 20 -60 34 -114 28
-34 -5 -56 -3 -61 3 -3 6 -1 11 4 11 6 0 11 5 11 10 0 6 -13 10 -30 10 -20 0
-30 5 -30 15 0 8 -9 15 -20 15 -22 0 -25 27 -14 114 6 41 9 46 33 47 14 0 35
4 46 9 l20 9 -20 1 -20 1 20 9 c11 5 48 9 83 9 56 1 62 -1 62 -20 0 -16 5 -20
27 -17 30 3 47 38 19 38 -9 0 -16 7 -16 15 0 11 -12 15 -50 15 -49 0 -50 1
-50 30 0 20 -5 30 -15 30 -8 0 -15 7 -15 15 0 12 18 15 100 15 82 0 100 -3
100 -15z m1080 -160 c0 -8 7 -15 15 -15 10 0 15 -11 15 -35 0 -24 5 -35 15
-35 10 0 15 -10 15 -30 0 -20 5 -30 15 -30 12 0 15 -13 15 -60 l0 -60 -46 0
c-40 0 -45 2 -34 15 10 13 9 15 -8 15 -28 0 -37 47 -25 139 5 39 6 71 1 71 -4
0 -8 9 -8 20 0 11 7 20 15 20 8 0 15 -7 15 -15z m-260 -62 c0 -10 -33 -13
-140 -13 -120 0 -140 2 -140 16 0 13 19 15 140 12 105 -2 140 -6 140 -15z
m-1169 -62 c-8 -5 -11 -16 -8 -25 4 -10 1 -16 -7 -16 -8 0 -16 11 -18 25 -5
22 -2 25 21 25 19 0 22 -3 12 -9z m-14 -66 c0 -8 -4 -15 -9 -15 -4 0 -8 7 -8
15 0 8 4 15 8 15 5 0 9 -7 9 -15z m10 -31 c-3 -3 -12 -4 -19 -1 -8 3 -5 6 6 6
11 1 17 -2 13 -5z m48 -34 c3 -5 1 -10 -4 -10 -6 0 -11 5 -11 10 0 6 2 10 4
10 3 0 8 -4 11 -10z m63 -7 c-10 -2 -26 -2 -35 0 -10 3 -2 5 17 5 19 0 27 -2
18 -5z m152 -12 c0 -5 12 -12 28 -14 15 -2 -9 -4 -53 -4 -44 0 -70 2 -57 4 12
2 22 9 22 14 0 5 14 9 30 9 17 0 30 -4 30 -9z m440 -7 c0 -10 14 -14 45 -14
38 0 45 -3 45 -20 0 -19 7 -20 130 -20 l130 0 0 -57 c0 -110 13 -103 -187
-103 -152 0 -174 2 -169 15 4 10 -1 15 -14 15 -11 0 -20 7 -20 15 0 8 -7 15
-15 15 -8 0 -15 6 -15 14 0 8 -7 16 -15 20 -11 4 -15 22 -15 69 l0 64 50 0
c36 0 50 -4 50 -13z m630 -84 c0 -82 -3 -100 -15 -100 -8 0 -15 -7 -15 -15 0
-13 -15 -15 -92 -13 l-93 3 -3 78 -3 77 51 0 c38 0 50 4 50 15 0 10 10 15 29
15 19 0 30 6 33 18 3 10 16 18 31 20 l27 2 0 -100z m-552 83 c-10 -2 -26 -2
-35 0 -10 3 -2 5 17 5 19 0 27 -2 18 -5z m812 -53 l0 -30 -75 0 c-70 0 -75 2
-75 21 0 15 -5 19 -15 15 -9 -3 -15 0 -15 8 0 10 22 14 90 15 l90 2 0 -31z
m-1027 -149 c-3 -14 0 -19 13 -18 10 1 19 -5 19 -13 0 -8 8 -14 18 -14 12 1
17 -6 17 -23 0 -20 -4 -24 -20 -20 -13 3 -20 0 -20 -8 0 -21 13 -25 54 -18 33
5 34 7 19 19 -17 12 -16 13 5 14 13 0 22 -6 22 -15 0 -8 7 -15 15 -15 8 0 15
-4 15 -10 0 -6 -32 -10 -75 -10 -62 0 -73 2 -69 15 4 11 0 15 -16 15 -16 0
-21 5 -18 23 2 15 9 21 21 19 28 -5 20 27 -9 34 -17 4 -29 2 -35 -7 -6 -10 -9
-4 -9 19 0 29 3 32 29 32 24 0 28 -4 24 -19z m97 -32 c0 -5 -4 -9 -10 -9 -5 0
-10 7 -10 16 0 8 5 12 10 9 6 -3 10 -10 10 -16z m220 2 c0 -5 -9 -7 -20 -4
-11 3 -20 7 -20 9 0 2 9 4 20 4 11 0 20 -4 20 -9z m88 -58 c-16 -2 -40 -2 -55
0 -16 2 -3 4 27 4 30 0 43 -2 28 -4z m206 -8 c-4 -9 0 -15 10 -15 13 0 16 -12
16 -60 0 -57 -1 -60 -25 -60 -16 0 -25 6 -25 15 0 12 -19 15 -115 15 -96 0
-115 -3 -115 -15 0 -10 -10 -15 -33 -15 -32 0 -34 2 -35 38 -1 35 11 70 23 65
3 -2 5 0 6 5 2 17 31 22 154 24 127 2 128 2 45 8 l-85 6 92 2 c79 2 92 0 87
-13z m-796 -43 c2 -20 9 -32 18 -32 8 0 14 -7 14 -15 0 -8 7 -15 15 -15 11 0
15 -12 15 -50 0 -38 -4 -50 -15 -50 -12 0 -15 -13 -15 -59 0 -51 -3 -59 -20
-64 -11 -3 -19 -11 -18 -19 2 -8 -7 -13 -27 -13 -20 -1 -31 -6 -33 -18 -2 -9
-10 -17 -18 -17 -11 0 -14 15 -14 65 0 51 3 65 15 65 12 0 15 19 15 110 0 87
3 110 14 110 7 0 16 9 19 21 8 31 31 18 35 -19z m-418 -46 c0 -11 14 -16 48
-18 31 -2 46 -7 45 -15 -2 -9 9 -13 32 -13 33 0 35 -2 35 -35 l0 -35 66 0 c48
0 65 -3 62 -12 -7 -20 -128 -23 -128 -5 0 10 -16 17 -44 21 -24 4 -47 13 -50
21 -3 9 -18 15 -36 15 -20 0 -30 5 -30 15 0 11 -12 15 -49 15 -41 0 -50 -3
-54 -21 -9 -35 -25 -12 -25 36 l1 45 64 0 c48 0 63 -3 63 -14z m1190 -67 c0
-11 5 -17 10 -14 14 9 23 -20 16 -50 -4 -17 -11 -22 -22 -18 -9 3 -14 0 -12
-8 2 -11 -21 -14 -122 -14 l-125 0 -3 48 c-2 37 0 47 12 47 9 0 16 7 16 15 0
12 19 15 115 15 109 0 115 -1 115 -21z m-1190 -24 c0 -8 7 -15 15 -15 8 0 15
-9 15 -20 0 -17 7 -20 50 -20 l50 0 0 -75 c0 -58 -4 -77 -15 -81 -8 -4 -15
-12 -15 -20 0 -10 17 -14 68 -15 37 -1 70 -1 75 0 4 0 7 -6 7 -14 0 -8 -3 -14
-7 -14 -5 1 -32 1 -60 0 -40 -1 -53 -5 -53 -16 0 -10 -11 -15 -35 -15 -24 0
-35 -5 -35 -15 0 -8 -7 -15 -15 -15 -8 0 -15 -9 -15 -20 0 -16 -7 -20 -30 -20
-27 0 -30 3 -30 30 0 27 3 30 30 30 23 0 30 4 30 20 0 16 7 20 30 20 20 0 30
5 30 15 0 10 -10 15 -30 15 -20 0 -30 -5 -30 -15 0 -10 -10 -15 -32 -15 -28 1
-31 3 -18 13 23 18 25 75 3 79 -14 3 -17 12 -14 51 1 29 -2 47 -8 47 -6 0 -11
-6 -12 -12 0 -7 -5 -2 -10 11 -9 22 -10 78 -2 94 8 14 63 8 63 -8z m1630 -55
c0 -20 5 -30 15 -30 10 0 15 -10 15 -30 0 -19 -5 -30 -14 -30 -7 0 -16 14 -19
30 -4 17 -12 30 -18 30 -7 0 -9 -9 -5 -24 3 -14 1 -28 -6 -32 -8 -5 -9 6 -5
41 4 26 7 54 7 61 0 8 7 14 15 14 10 0 15 -10 15 -30z m-220 -9 c0 -5 -7 -11
-15 -15 -9 -3 -15 0 -15 9 0 8 7 15 15 15 8 0 15 -4 15 -9z m-1190 -76 c0 -70
0 -70 -30 -70 -24 1 -25 4 -28 63 l-3 62 31 0 c30 0 30 0 30 -55z m908 19 c12
-2 22 -11 22 -19 0 -8 7 -15 15 -15 12 0 15 -13 15 -60 0 -47 -3 -60 -15 -60
-8 0 -15 -7 -15 -15 0 -12 -14 -15 -77 -13 l-78 2 73 3 c39 2 72 7 72 11 0 4
-18 6 -41 4 -34 -4 -41 -1 -46 17 -3 11 -12 21 -19 21 -8 0 -14 6 -14 13 0 8
-4 7 -10 -3 -6 -10 -10 -11 -10 -2 0 19 4 27 13 25 4 -2 7 4 7 13 0 8 -4 13
-9 9 -6 -3 -15 3 -20 14 -9 16 -7 21 8 26 11 3 21 11 24 18 5 13 66 19 105 11z
m445 -31 c-4 -11 7 -17 28 -15 3 1 4 -10 1 -23 -3 -20 0 -25 16 -25 13 0 19 6
18 17 0 10 6 18 14 18 8 1 14 6 13 13 -2 7 4 12 12 12 10 0 15 -10 15 -30 0
-20 -5 -30 -15 -30 -8 0 -15 -7 -15 -15 0 -8 -7 -15 -15 -15 -8 0 -15 -7 -15
-15 0 -8 -8 -15 -18 -15 -15 0 -18 6 -14 30 3 21 0 32 -12 36 -9 3 -16 12 -16
20 0 8 -7 14 -15 14 -14 0 -21 21 -10 32 11 10 33 4 28 -9z m-1056 -39 c-3 -3
-12 -4 -19 -1 -8 3 -5 6 6 6 11 1 17 -2 13 -5z m76 -1 c-7 -2 -21 -2 -30 0
-10 3 -4 5 12 5 17 0 24 -2 18 -5z m777 -38 c0 -31 5 -47 15 -51 9 -4 17 -27
21 -65 4 -40 11 -59 20 -59 11 0 14 -21 14 -96 0 -86 -2 -95 -17 -92 -14 3
-18 12 -16 45 1 23 -2 45 -7 48 -13 8 -30 -28 -30 -64 0 -17 -4 -31 -10 -31
-5 0 -10 20 -10 45 0 33 4 45 15 45 11 0 15 12 15 44 0 41 -13 66 -27 53 -2
-3 -7 -24 -10 -46 -8 -55 -23 -52 -23 4 0 25 5 45 10 45 6 0 10 28 10 65 0 61
-13 85 -26 50 -12 -30 -24 -14 -24 31 0 27 4 43 10 39 6 -3 10 3 10 14 0 17 6
21 30 21 29 0 30 -2 30 -45z m-1423 3 c-3 -7 -5 -2 -5 12 0 14 2 19 5 13 2 -7
2 -19 0 -25z m783 -2 c0 -15 29 -29 51 -24 10 2 15 -10 17 -39 2 -34 0 -43
-12 -43 -12 0 -16 -10 -16 -35 0 -23 -5 -35 -14 -35 -14 0 -25 -28 -27 -70 0
-14 -3 -19 -6 -12 -5 13 -24 17 -22 5 4 -26 -3 -53 -13 -50 -8 1 -14 -11 -16
-29 -3 -27 -8 -33 -35 -38 -25 -5 -29 -9 -17 -16 12 -8 12 -10 -5 -11 -11 -1
-23 -1 -27 0 -5 0 -8 -5 -8 -13 0 -8 -15 -17 -35 -20 -22 -4 -35 -13 -35 -22
0 -11 -8 -14 -31 -10 -25 4 -32 1 -36 -15 -6 -21 -18 -25 -28 -9 -3 6 -2 10 4
10 10 0 25 35 26 60 0 10 12 16 33 18 20 2 32 9 32 18 0 9 11 14 35 14 26 0
33 3 29 15 -4 9 -19 15 -35 15 -19 0 -29 -5 -29 -15 0 -11 -12 -15 -50 -15
-51 0 -69 17 -29 27 17 5 20 12 16 36 -3 23 0 31 15 35 14 3 18 14 18 48 0 32
4 44 15 44 10 0 15 11 15 35 0 24 5 35 15 35 10 0 15 10 15 30 0 28 3 30 35
30 35 0 39 6 38 48 -1 8 17 12 58 12 45 0 59 -4 59 -14z m-256 -3 c-5 -5 -12
-12 -16 -18 -4 -6 -8 -2 -8 8 0 9 7 17 17 17 9 0 12 -3 7 -7z m-47 -85 c-3 -7
-5 -2 -5 12 0 14 2 19 5 13 2 -7 2 -19 0 -25z m783 -115 c0 -65 3 -128 6 -140
5 -19 2 -23 -15 -23 -20 0 -21 5 -21 109 0 63 4 112 10 116 6 3 7 17 4 31 -4
14 -2 24 5 24 7 0 11 -38 11 -117z m100 62 c0 -19 -4 -35 -10 -35 -5 0 -10 16
-10 35 0 19 5 35 10 35 6 0 10 -16 10 -35z m-412 -113 c2 -91 5 -112 17 -112
12 0 15 -18 15 -95 0 -78 3 -95 15 -95 8 0 15 -9 15 -20 0 -18 7 -20 80 -20
47 0 80 -4 80 -10 0 -5 -3 -10 -7 -11 -107 -9 -153 -8 -153 5 0 7 -9 16 -20
19 -11 3 -19 9 -18 14 2 4 -1 8 -7 8 -15 0 -23 43 -24 128 -1 56 -4 76 -13 75
-10 -2 -14 24 -16 101 -3 112 1 135 21 129 8 -3 13 -38 15 -116z m92 93 c0
-23 125 -22 134 2 13 34 24 -5 28 -101 3 -64 9 -101 16 -104 8 -2 12 -35 12
-98 0 -77 -3 -94 -15 -94 -8 0 -15 -7 -15 -15 0 -8 -6 -15 -14 -15 -8 0 -16 7
-20 15 -4 11 -23 15 -81 15 l-75 0 0 95 c0 78 -3 95 -15 95 -12 0 -15 17 -15
95 0 78 3 95 15 95 8 0 15 7 15 15 0 8 7 15 15 15 8 0 15 -7 15 -15z m990 0
c0 -10 -10 -15 -30 -15 -19 0 -30 -5 -30 -14 0 -10 -14 -16 -42 -18 -36 -3
-44 -7 -46 -27 -2 -15 0 -21 7 -17 6 4 11 2 11 -3 0 -6 -7 -11 -15 -11 -8 0
-15 -7 -15 -15 0 -19 -16 -19 -24 0 -3 8 -11 14 -17 13 -21 -5 -20 19 1 25 11
3 20 13 20 22 0 9 5 13 11 10 6 -4 13 2 16 14 4 15 13 21 34 21 19 0 29 5 29
15 0 11 12 15 45 15 33 0 45 -4 45 -15z m-1583 -102 c-2 -21 -4 -6 -4 32 0 39
2 55 4 38 2 -18 2 -50 0 -70z m1381 -25 c19 -19 15 -48 -8 -48 -13 0 -18 -5
-14 -15 4 -10 0 -15 -11 -15 -11 0 -15 5 -11 15 4 10 -1 15 -14 15 -11 0 -20
7 -20 15 0 8 7 15 15 15 8 0 15 7 15 15 0 18 31 20 48 3z m112 -33 c0 -8 7
-15 15 -15 8 0 15 -7 15 -15 0 -8 7 -15 15 -15 8 0 15 -5 15 -11 0 -15 42 -59
58 -59 6 0 12 -7 12 -15 0 -8 7 -15 15 -15 8 0 15 -7 15 -15 0 -8 7 -15 15
-15 8 0 15 -7 15 -15 0 -8 7 -15 15 -15 8 0 15 -7 15 -16 0 -9 9 -18 20 -21
11 -3 20 -9 20 -14 0 -12 38 -49 50 -49 6 0 10 -7 10 -15 0 -8 7 -15 15 -15 8
0 15 -7 15 -15 0 -8 7 -15 15 -15 8 0 15 -7 15 -15 0 -8 6 -15 14 -15 7 0 16
-9 19 -20 3 -11 12 -20 21 -20 9 0 16 -7 16 -15 0 -8 7 -15 15 -15 8 0 15 -7
15 -15 0 -8 7 -15 15 -15 11 0 15 -12 15 -50 0 -38 4 -50 15 -50 11 0 15 -12
15 -45 0 -33 -4 -45 -15 -45 -8 0 -15 7 -15 15 0 10 -10 15 -30 15 -20 0 -30
5 -30 15 0 11 -12 15 -50 15 -43 0 -50 3 -50 20 0 11 -7 20 -15 20 -8 0 -15 7
-15 15 0 8 -7 15 -15 15 -8 0 -15 7 -15 15 0 8 -7 15 -15 15 -8 0 -15 7 -15
15 0 8 -9 15 -20 15 -11 0 -20 6 -20 14 0 8 -7 16 -15 20 -8 3 -15 12 -15 21
0 8 -7 15 -15 15 -8 0 -15 7 -15 15 0 8 -7 15 -15 15 -8 0 -15 7 -15 15 0 8
-7 15 -15 15 -8 0 -15 6 -15 14 0 7 -9 16 -21 19 -12 3 -18 10 -15 15 3 5 -3
12 -14 15 -11 3 -20 12 -20 21 0 9 -7 16 -15 16 -8 0 -15 7 -15 15 0 8 -7 15
-15 15 -8 0 -15 7 -15 15 0 8 -7 15 -15 15 -8 0 -15 7 -15 15 0 8 -6 15 -14
15 -7 0 -16 9 -19 20 -3 11 -12 20 -21 20 -10 0 -16 9 -16 25 0 14 3 25 8 25
4 0 17 3 30 6 16 5 22 2 22 -10 0 -9 7 -16 16 -16 9 0 18 -9 21 -20 3 -11 12
-20 19 -20 8 0 14 -7 14 -15 0 -8 7 -15 15 -15 8 0 15 -7 15 -15 0 -8 7 -15
15 -15 8 0 15 -7 15 -15 0 -8 7 -15 15 -15 9 0 18 -7 21 -15 4 -8 12 -15 20
-15 8 0 14 -9 14 -21 0 -15 5 -19 15 -15 10 4 15 -1 15 -14 0 -11 7 -20 15
-20 8 0 15 -7 15 -15 0 -8 7 -15 15 -15 10 0 15 10 15 30 0 20 -5 30 -15 30
-8 0 -15 7 -15 15 0 9 -9 15 -21 15 -15 0 -19 5 -15 15 4 10 -1 15 -14 15 -14
0 -20 7 -20 21 0 12 -4 17 -11 14 -6 -4 -13 2 -16 14 -3 12 -12 21 -19 21 -8
0 -14 7 -14 15 0 8 -7 15 -15 15 -8 0 -15 7 -15 15 0 8 -9 15 -20 15 -11 0
-20 6 -20 14 0 8 -7 16 -15 20 -8 3 -15 13 -15 21 0 9 -5 13 -10 10 -6 -3 -13
2 -17 11 -4 10 -2 19 5 22 7 2 12 10 12 18 0 8 10 14 25 14 16 0 25 -6 25 -15z
m-490 -71 c0 -11 6 -13 20 -9 16 5 20 2 20 -14 0 -12 7 -21 15 -21 10 0 15
-10 15 -30 0 -34 -15 -40 -25 -10 -3 11 -13 20 -21 20 -8 0 -14 7 -14 15 0 8
-7 15 -15 15 -10 0 -15 10 -15 31 0 17 4 28 10 24 6 -3 10 -13 10 -21z m-1025
-49 c-5 -2 -32 -6 -58 -10 -36 -5 -47 -10 -43 -20 3 -8 1 -17 -4 -20 -6 -4
-10 7 -10 24 l0 31 63 -1 c34 0 58 -2 52 -4z m-22 -42 c-7 -2 -19 -2 -25 0 -7
3 -2 5 12 5 14 0 19 -2 13 -5z m275 -150 c-22 -5 -24 -23 -3 -23 8 0 15 -7 15
-15 0 -8 7 -15 15 -15 10 0 15 -11 15 -35 0 -24 -5 -35 -15 -35 -11 0 -15 -12
-15 -45 0 -36 -3 -45 -17 -44 -11 0 -13 3 -5 6 27 11 -2 23 -54 23 -41 0 -54
4 -54 15 0 8 -7 15 -15 15 -8 0 -15 6 -15 14 0 7 -8 16 -18 18 -14 4 -16 14
-14 56 3 39 7 49 18 45 8 -3 14 1 14 11 0 13 13 16 83 15 45 -1 74 -3 65 -6z
m782 -70 c0 -43 -5 -85 -10 -93 -6 -10 -10 -11 -10 -2 0 7 -15 12 -40 12 -29
0 -40 4 -40 15 0 8 -7 15 -15 15 -11 0 -15 12 -15 50 0 38 4 50 15 50 8 0 15
7 15 15 0 11 12 15 50 15 l50 0 0 -77z m-183 -105 c-3 -7 -5 -2 -5 12 0 14 2
19 5 13 2 -7 2 -19 0 -25z m-791 -35 c-10 -10 -19 5 -10 18 6 11 8 11 12 0 2
-7 1 -15 -2 -18z m828 11 c3 -8 2 -12 -4 -9 -6 3 -10 10 -10 16 0 14 7 11 14
-7z m106 -4 c0 -5 -5 -10 -11 -10 -5 0 -7 5 -4 10 3 6 8 10 11 10 2 0 4 -4 4
-10z m-905 -30 c3 -5 1 -10 -4 -10 -6 0 -11 5 -11 10 0 6 2 10 4 10 3 0 8 -4
11 -10z m108 -7 c-18 -2 -48 -2 -65 0 -18 2 -4 4 32 4 36 0 50 -2 33 -4z"/>
<path d="M2750 4045 c0 -8 9 -15 20 -15 11 0 20 7 20 15 0 8 -9 15 -20 15 -11
0 -20 -7 -20 -15z"/>
<path d="M2488 4043 c6 -2 18 -2 25 0 6 3 1 5 -13 5 -14 0 -19 -2 -12 -5z"/>
<path d="M3870 3996 c0 -8 5 -18 10 -21 6 -3 10 1 10 9 0 8 -4 18 -10 21 -5 3
-10 -1 -10 -9z"/>
<path d="M3871 3917 c-6 -8 -8 -17 -4 -20 11 -12 21 -7 26 13 6 23 -5 26 -22
7z"/>
<path d="M3941 3859 c0 -9 -9 -19 -19 -21 -27 -7 -24 -38 2 -34 22 3 31 24 23
54 -4 14 -5 15 -6 1z"/>
<path d="M3623 3390 c0 -30 2 -43 4 -27 2 15 2 39 0 55 -2 15 -4 2 -4 -28z"/>
<path d="M3701 3034 c0 -11 3 -14 6 -6 3 7 2 16 -1 19 -3 4 -6 -2 -5 -13z"/>
<path d="M3781 2964 c0 -11 3 -14 6 -6 3 7 2 16 -1 19 -3 4 -6 -2 -5 -13z"/>
<path d="M3104 2991 c-4 -29 -11 -49 -18 -48 -6 1 -12 -13 -14 -30 -2 -21 -9
-33 -18 -33 -9 0 -14 -11 -14 -30 0 -20 -5 -30 -15 -30 -10 0 -15 -11 -15 -35
0 -24 -5 -35 -15 -35 -8 0 -15 -7 -15 -15 0 -8 7 -15 15 -15 8 0 15 7 15 15 0
8 7 15 15 15 10 0 15 11 15 35 0 24 5 35 15 35 10 0 15 10 15 30 0 19 5 30 14
30 9 0 16 12 18 33 2 20 8 32 18 32 11 0 15 12 15 44 0 64 -22 65 -31 2z"/>
<path d="M3520 2590 c0 -77 3 -101 13 -97 8 2 12 31 12 97 0 66 -4 95 -12 98
-10 3 -13 -21 -13 -98z"/>
<path d="M4516 2355 c-3 -9 0 -15 9 -15 8 0 15 7 15 15 0 8 -4 15 -9 15 -5 0
-11 -7 -15 -15z"/>
<path d="M1040 1340 c0 -13 -7 -20 -20 -20 -13 0 -20 -7 -20 -20 0 -13 -7 -20
-20 -20 -20 0 -20 -7 -20 -320 0 -313 0 -320 20 -320 13 0 20 -7 20 -20 0 -13
7 -20 20 -20 13 0 20 -7 20 -20 0 -20 7 -20 2160 -20 2153 0 2160 0 2160 20 0
13 7 20 20 20 13 0 20 7 20 20 0 13 7 20 20 20 20 0 20 7 20 320 0 313 0 320
-20 320 -13 0 -20 7 -20 20 0 13 -7 20 -20 20 -13 0 -20 7 -20 20 0 20 -7 20
-2160 20 -2153 0 -2160 0 -2160 -20z m160 -240 l0 -100 80 0 80 0 0 100 0 100
40 0 40 0 0 -220 0 -220 -40 0 -40 0 0 100 0 100 -80 0 -80 0 0 -100 0 -100
-40 0 -40 0 0 220 0 220 40 0 40 0 0 -100z m560 80 c0 -13 7 -20 20 -20 13 0
20 -7 20 -20 0 -13 7 -20 20 -20 19 0 20 -7 20 -140 0 -133 -1 -140 -20 -140
-13 0 -20 -7 -20 -20 0 -13 -7 -20 -20 -20 -13 0 -20 -7 -20 -20 0 -18 -7 -20
-80 -20 -73 0 -80 2 -80 20 0 13 -7 20 -20 20 -13 0 -20 7 -20 20 0 13 -7 20
-20 20 -19 0 -20 7 -20 140 0 133 1 140 20 140 13 0 20 7 20 20 0 13 7 20 20
20 13 0 20 7 20 20 0 18 7 20 80 20 73 0 80 -2 80 -20z m400 0 c0 -13 7 -20
20 -20 13 0 20 -7 20 -20 0 -13 7 -20 20 -20 17 0 20 -7 20 -40 0 -33 -3 -40
-20 -40 -13 0 -20 -7 -20 -20 0 -13 -7 -20 -20 -20 -17 0 -20 -7 -20 -40 0
-33 3 -40 20 -40 13 0 20 -7 20 -20 0 -13 7 -20 19 -20 16 0 18 -8 17 -57 l-1
-58 -38 -3 -37 -3 0 60 c0 54 -2 61 -20 61 -17 0 -20 7 -20 40 l0 40 -60 0
-60 0 0 -100 0 -100 -40 0 -40 0 0 220 0 220 120 0 c113 0 120 -1 120 -20z
m360 0 c0 -13 7 -20 20 -20 13 0 20 -7 20 -20 0 -13 7 -20 20 -20 13 0 20 -7
20 -20 0 -16 -7 -20 -36 -20 -27 0 -37 5 -41 20 -3 11 -14 20 -24 20 -12 0
-19 7 -19 20 0 17 -7 20 -40 20 -33 0 -40 -3 -40 -20 0 -13 -7 -20 -20 -20
-17 0 -20 -7 -20 -40 0 -33 3 -40 20 -40 13 0 20 -7 20 -20 0 -18 7 -20 60
-20 53 0 60 -2 60 -20 0 -13 7 -20 20 -20 13 0 20 -7 20 -20 0 -13 7 -20 20
-20 17 0 20 -7 20 -40 0 -33 -3 -40 -20 -40 -13 0 -20 -7 -20 -20 0 -13 -7
-20 -20 -20 -13 0 -20 -7 -20 -20 0 -18 -7 -20 -80 -20 -73 0 -80 2 -80 20 0
13 -7 20 -20 20 -13 0 -20 7 -20 20 0 13 -7 20 -20 20 -13 0 -20 7 -20 20 0
17 7 20 40 20 33 0 40 -3 40 -20 0 -13 7 -20 20 -20 13 0 20 -7 20 -20 0 -17
7 -20 39 -20 30 0 40 4 44 20 3 12 14 20 26 20 23 0 24 3 15 49 -5 21 -12 31
-25 31 -12 0 -19 7 -19 20 0 18 -7 20 -60 20 -53 0 -60 2 -60 20 0 13 -7 20
-20 20 -13 0 -20 7 -20 20 0 13 -7 20 -20 20 -17 0 -20 7 -20 40 0 33 3 40 20
40 13 0 20 7 20 20 0 13 7 20 20 20 13 0 20 7 20 20 0 18 7 20 80 20 73 0 80
-2 80 -20z m440 0 c0 -19 -7 -20 -100 -20 l-100 0 0 -80 0 -80 60 0 c53 0 60
-2 60 -20 0 -18 -7 -20 -60 -20 l-60 0 0 -80 0 -80 100 0 c94 0 100 -1 100
-20 0 -20 -5 -20 -137 -18 l-138 3 -3 218 -2 217 140 0 c133 0 140 -1 140 -20z
m520 -20 c0 -33 -3 -40 -20 -40 -17 0 -20 -7 -20 -40 0 -33 -3 -40 -20 -40
-13 0 -20 -7 -20 -20 0 -13 -7 -20 -20 -20 -13 0 -20 -7 -20 -20 0 -13 -7 -20
-20 -20 -17 0 -20 -7 -20 -40 0 -33 -3 -40 -20 -40 -17 0 -20 -7 -20 -40 l0
-40 100 0 c93 0 100 -1 100 -20 0 -19 -7 -20 -140 -20 l-140 0 0 60 c0 53 2
60 20 60 13 0 20 7 20 20 0 13 7 20 20 20 17 0 20 7 20 40 0 33 3 40 20 40 13
0 20 7 20 20 0 13 7 20 20 20 13 0 20 7 20 20 0 13 7 20 20 20 17 0 20 7 20
40 l0 40 -100 0 c-93 0 -100 1 -100 20 0 19 7 20 140 20 l140 0 0 -40z m280
20 c0 -13 7 -20 20 -20 13 0 20 -7 20 -20 0 -13 7 -20 20 -20 19 0 20 -7 20
-140 0 -133 -1 -140 -20 -140 -13 0 -20 -7 -20 -20 0 -13 -7 -20 -20 -20 -13
0 -20 -7 -20 -20 0 -18 -7 -20 -80 -20 -73 0 -80 2 -80 20 0 13 -7 20 -20 20
-13 0 -20 7 -20 20 0 13 -7 20 -20 20 -19 0 -20 7 -20 140 0 133 1 140 20 140
13 0 20 7 20 20 0 13 7 20 20 20 13 0 20 7 20 20 0 18 7 20 80 20 73 0 80 -2
80 -20z m360 0 c0 -13 7 -20 20 -20 13 0 20 -7 20 -20 0 -13 7 -20 20 -20 13
0 20 -7 20 -20 0 -13 7 -20 20 -20 19 0 20 -7 20 -100 0 -93 -1 -100 -20 -100
-13 0 -20 -7 -20 -20 0 -13 -7 -20 -20 -20 -13 0 -20 -7 -20 -20 0 -13 -7 -20
-20 -20 -13 0 -20 -7 -20 -20 0 -19 -7 -20 -100 -20 l-100 0 0 220 0 220 100
0 c93 0 100 -1 100 -20z m400 0 c0 -17 -7 -20 -40 -20 l-40 0 0 -180 0 -180
40 0 c33 0 40 -3 40 -20 0 -19 -7 -20 -113 -20 -63 0 -116 3 -120 6 -14 15 8
34 39 34 l34 0 0 180 0 180 -40 0 c-33 0 -40 3 -40 20 0 19 7 20 120 20 113 0
120 -1 120 -20z m240 0 c0 -13 7 -20 20 -20 13 0 20 -7 20 -20 0 -13 7 -20 20
-20 17 0 20 -7 20 -40 0 -33 3 -40 20 -40 19 0 20 -7 20 -140 l0 -140 -40 0
-40 0 0 80 0 80 -80 0 -80 0 0 -80 0 -80 -40 0 -40 0 0 140 c0 133 1 140 20
140 17 0 20 7 20 40 0 33 3 40 20 40 13 0 20 7 20 20 0 13 7 20 20 20 13 0 20
7 20 20 0 17 7 20 40 20 33 0 40 -3 40 -20z m440 0 c0 -13 7 -20 20 -20 13 0
20 -7 20 -20 0 -13 7 -20 20 -20 13 0 20 -7 20 -20 0 -17 -7 -20 -40 -20 -33
0 -40 3 -40 20 0 13 -7 20 -20 20 -13 0 -20 7 -20 20 0 17 -7 20 -40 20 -33 0
-40 -3 -40 -20 0 -13 -7 -20 -20 -20 -19 0 -20 -7 -20 -140 0 -133 1 -140 20
-140 13 0 20 -7 20 -20 0 -17 7 -20 40 -20 33 0 40 3 40 20 0 13 7 20 20 20
14 0 20 7 20 21 0 17 5 20 37 17 27 -2 39 -8 41 -20 2 -13 -3 -18 -17 -18 -14
0 -21 -6 -21 -20 0 -13 -7 -20 -20 -20 -13 0 -20 -7 -20 -20 0 -18 -7 -20 -80
-20 -73 0 -80 2 -80 20 0 13 -7 20 -20 20 -13 0 -20 7 -20 20 0 13 -7 20 -20
20 -19 0 -20 7 -20 140 0 133 1 140 20 140 13 0 20 7 20 20 0 13 7 20 20 20
13 0 20 7 20 20 0 18 7 20 80 20 73 0 80 -2 80 -20z"/>
<path d="M1640 1140 c0 -13 -7 -20 -20 -20 -19 0 -20 -7 -20 -140 0 -121 2
-140 16 -140 9 0 18 -9 21 -20 4 -16 14 -20 44 -20 32 0 39 3 39 20 0 13 7 20
20 20 19 0 20 7 20 140 0 133 -1 140 -20 140 -13 0 -20 7 -20 20 0 17 -7 20
-40 20 -33 0 -40 -3 -40 -20z"/>
<path d="M2000 1080 l0 -80 60 0 c53 0 60 2 60 20 0 13 7 20 20 20 17 0 20 7
20 40 0 33 -3 40 -20 40 -13 0 -20 7 -20 20 0 18 -7 20 -60 20 l-60 0 0 -80z"/>
<path d="M3640 1140 c0 -13 -7 -20 -20 -20 -19 0 -20 -7 -20 -140 0 -133 1
-140 20 -140 13 0 20 -7 20 -20 0 -17 7 -20 40 -20 33 0 40 3 40 20 0 13 7 20
20 20 19 0 20 7 20 140 0 133 -1 140 -20 140 -13 0 -20 7 -20 20 0 17 -7 20
-40 20 -33 0 -40 -3 -40 -20z"/>
<path d="M4000 980 l0 -180 40 0 c33 0 40 3 40 20 0 13 7 20 20 20 13 0 20 7
20 20 0 13 7 20 20 20 19 0 20 7 20 100 0 93 -1 100 -20 100 -13 0 -20 7 -20
20 0 13 -7 20 -20 20 -13 0 -20 7 -20 20 0 17 -7 20 -40 20 l-40 0 0 -180z"/>
<path d="M4680 1100 c0 -13 -7 -20 -20 -20 -18 0 -20 -7 -20 -60 l0 -60 80 0
80 0 0 60 c0 53 -2 60 -20 60 -13 0 -20 7 -20 20 0 17 -7 20 -40 20 -33 0 -40
-3 -40 -20z"/>
</g>
</svg>
