<?xml version="1.0" standalone="no"?>
<!DOCTYPE svg PUBLIC "-//W3C//DTD SVG 20010904//EN"
 "http://www.w3.org/TR/2001/REC-SVG-20010904/DTD/svg10.dtd">
<svg version="1.0" xmlns="http://www.w3.org/2000/svg"
 width="640.000000pt" height="640.000000pt" viewBox="0 0 640.000000 640.000000"
 preserveAspectRatio="xMidYMid meet">
<metadata>
Created by potrace 1.16, written by Peter Selinger 2001-2019
</metadata>
<g transform="translate(0.000000,640.000000) scale(0.100000,-0.100000)"
fill="#000000" stroke="none">
<path d="M2560 6050 l0 -160 29 0 c26 0 30 -4 33 -32 3 -29 7 -33 36 -36 28
-3 32 -7 32 -33 0 -25 4 -29 29 -29 26 0 30 -4 33 -32 3 -29 7 -32 33 -33 26
0 30 -4 33 -32 3 -29 7 -33 33 -33 26 0 29 -3 29 -30 l0 -30 -65 0 -65 0 0 30
0 30 -65 0 -66 0 3 -62 c3 -63 3 -63 36 -66 28 -3 32 -7 32 -33 0 -26 3 -29
30 -29 27 0 30 -3 30 -29 0 -26 4 -30 33 -33 28 -3 32 -6 32 -33 0 -27 -4 -30
-32 -33 -29 -3 -33 -7 -33 -33 0 -25 -4 -29 -29 -29 -26 0 -30 -4 -33 -32 -3
-29 -7 -33 -35 -36 -29 -3 -33 -7 -33 -33 0 -29 0 -29 -60 -29 -60 0 -60 0
-60 -29 0 -26 -4 -30 -32 -33 -33 -3 -33 -3 -36 -65 -3 -62 -3 -63 -32 -63
-25 0 -29 -4 -32 -32 -3 -33 -3 -33 -65 -36 -62 -3 -63 -3 -63 -32 l0 -30 -65
0 -65 0 0 -30 c0 -27 -3 -30 -30 -30 -28 0 -30 -3 -30 -35 0 -32 2 -35 30 -35
27 0 30 -3 30 -29 0 -26 4 -30 33 -33 28 -3 32 -7 32 -33 1 -16 6 -31 13 -31
7 -1 21 -2 32 -3 18 -1 20 -8 20 -61 l0 -60 -30 0 -30 0 0 -65 0 -65 31 0 c28
0 30 -2 27 -32 -2 -28 -8 -34 -30 -36 -24 -3 -28 -8 -28 -33 0 -27 -3 -29 -35
-29 -32 0 -35 2 -35 30 0 27 -3 30 -30 30 l-30 0 0 -284 0 -285 -32 -3 -33 -3
-3 -92 -3 -93 -29 0 -30 0 0 -65 0 -65 -30 0 -30 0 0 -72 c0 -98 -6 -116 -39
-120 -26 -3 -26 -4 -29 -96 l-3 -93 -29 -6 -30 -5 0 -94 0 -94 -35 0 -35 0 0
-124 0 -125 -27 -3 -28 -3 -3 -287 -2 -288 30 0 30 0 0 -65 0 -65 35 0 c32 0
35 -2 35 -30 0 -27 3 -30 29 -30 26 0 30 -4 33 -32 3 -29 7 -33 36 -36 28 -3
32 -7 32 -33 0 -26 3 -29 30 -29 27 0 30 -3 30 -30 0 -27 3 -30 29 -30 26 0
30 -4 33 -32 3 -33 3 -33 66 -36 l62 -3 0 161 0 160 -30 0 -30 0 0 95 0 95 95
0 95 0 0 -30 c0 -27 3 -30 30 -30 27 0 30 -3 30 -29 0 -26 4 -30 33 -33 28 -3
32 -7 35 -35 l3 -33 65 0 65 0 -3 -27 c-2 -23 -8 -29 -35 -31 l-33 -3 0 -130
0 -129 -30 0 c-30 0 -30 0 -30 -59 0 -61 -7 -71 -51 -71 -18 0 -20 -6 -17 -92
l3 -93 63 -3 62 -3 0 36 0 35 64 0 c72 0 76 4 76 75 l0 42 50 7 c28 4 55 4 61
0 6 -3 10 -27 9 -53 -1 -25 -1 -51 -1 -58 1 -8 24 -13 64 -15 62 -3 62 -3 65
-35 l3 -33 60 0 59 0 0 130 0 130 -30 0 -30 0 0 190 0 189 128 3 127 3 3 33 3
32 95 0 94 0 0 30 0 30 65 0 65 0 0 -30 c0 -27 3 -30 30 -30 l30 0 0 -64 0
-65 -32 -3 c-29 -3 -32 -7 -33 -33 0 -30 0 -30 -62 -33 -62 -3 -63 -3 -63 -32
0 -27 3 -30 30 -30 27 0 30 -3 30 -29 0 -26 4 -30 33 -33 l32 -3 3 -97 3 -97
157 -3 157 -3 3 -28 3 -27 320 0 320 0 -3 63 c-3 62 -3 62 -35 65 -29 3 -33 7
-33 33 0 25 -4 29 -29 29 -26 0 -30 4 -33 33 l-3 32 -92 3 -93 3 0 59 c0 60 0
60 30 60 l30 0 0 65 0 65 30 0 30 0 0 65 0 65 35 0 35 0 0 -160 0 -160 65 0
65 0 0 30 c0 27 3 30 30 30 l30 0 0 65 0 65 30 0 30 0 0 254 0 255 -27 3 -28
3 -3 98 -3 97 -29 0 -30 0 0 95 0 95 30 0 30 0 0 125 0 125 30 0 30 0 0 130 0
130 35 0 35 0 0 65 0 65 65 0 65 0 0 30 c0 27 3 30 30 30 l30 0 0 65 0 65 30
0 30 0 0 85 c0 47 0 88 0 93 0 4 -15 7 -32 7 -28 0 -33 -4 -36 -27 -3 -22 -8
-27 -28 -26 -19 2 -24 8 -24 30 0 24 4 28 30 28 28 0 30 3 30 35 0 32 -2 35
-30 35 -27 0 -30 3 -30 30 0 27 3 30 30 30 l30 0 0 95 0 95 30 0 30 0 0 95 0
95 35 0 c32 0 35 -2 35 -30 0 -27 3 -30 30 -30 27 0 30 3 30 30 0 27 3 30 30
30 23 0 31 5 36 24 8 34 -2 46 -37 46 l-29 0 0 65 0 65 30 0 c27 0 30 3 30 30
0 28 3 30 35 30 32 0 35 2 35 29 0 30 28 50 50 36 6 -4 10 8 10 29 0 33 -2 36
-30 36 -28 0 -30 -3 -30 -36 0 -31 -3 -35 -22 -34 -39 4 -44 1 -43 -27 0 -24
-4 -28 -33 -31 -32 -3 -33 -2 -30 30 2 25 8 33 24 34 34 2 44 13 44 47 0 71
-7 78 -69 75 l-56 -3 -3 -62 c-3 -62 -3 -63 -32 -63 -28 0 -29 -2 -35 -65 -7
-63 -8 -65 -36 -65 -29 0 -29 -1 -29 -60 l0 -60 30 0 c26 0 30 -3 30 -29 0
-27 -3 -29 -52 -35 -29 -4 -56 -13 -60 -19 -4 -7 -8 39 -8 101 l0 112 30 0 30
0 0 60 0 60 -30 0 -30 0 0 -60 0 -60 -35 0 -35 0 0 60 0 60 -30 0 c-28 0 -30
3 -30 35 0 32 2 35 29 35 26 0 30 -4 33 -32 2 -28 8 -34 31 -36 25 -3 27 -1
27 32 0 33 -2 36 -30 36 l-29 0 -3 157 -3 157 -57 4 -58 3 0 -30 c0 -26 4 -30
32 -33 l32 -3 -1 -65 c-1 -36 -2 -93 -2 -127 -1 -63 -1 -63 -30 -63 -25 0 -30
-5 -35 -33 -3 -18 -3 -48 0 -65 6 -27 11 -32 35 -32 29 0 29 0 29 -65 l0 -65
-35 0 c-32 0 -35 -2 -35 -30 0 -28 3 -30 35 -30 33 0 35 -2 35 -35 0 -32 2
-35 30 -35 l30 0 0 -60 c0 -60 0 -60 -30 -60 l-29 0 -3 -97 -3 -98 -32 -3
c-29 -3 -33 -7 -33 -33 0 -29 0 -29 -59 -29 l-60 0 -3 32 -3 32 -62 -3 -63 -2
0 35 c0 34 -2 36 -35 36 -32 0 -35 2 -35 30 0 27 -3 30 -30 30 l-30 0 0 95 0
95 -30 0 c-28 0 -30 3 -30 35 0 32 2 35 30 35 l30 0 0 65 0 65 -30 0 c-30 0
-30 0 -30 59 0 58 1 60 28 63 22 2 28 8 30 36 3 28 7 32 33 32 26 0 29 3 29
30 0 28 3 30 36 30 34 0 35 1 32 33 -3 28 -7 32 -35 35 -29 3 -33 7 -33 33 l0
29 -95 0 -95 0 0 30 c0 27 -3 30 -30 30 -28 0 -30 3 -30 35 0 32 -2 35 -30 35
-29 0 -34 7 -31 43 2 13 -5 17 -33 17 -34 0 -36 2 -36 35 0 32 2 35 30 35 l30
0 0 85 c0 47 1 88 3 93 1 4 -13 8 -30 10 -29 3 -33 7 -33 33 0 26 -3 29 -30
29 l-30 0 0 160 0 160 -35 0 -35 0 0 95 0 95 -30 0 c-28 0 -30 3 -30 35 0 32
-2 35 -30 35 -26 0 -31 5 -36 30 -6 29 -8 30 -65 30 l-58 0 -3 33 c-3 28 -7
32 -35 35 l-33 3 0 60 c0 59 0 59 -30 59 -16 0 -31 -6 -32 -12 -2 -20 -5 -50
-7 -79 -1 -20 -7 -28 -26 -31 -25 -5 -25 -4 -25 58 l0 64 30 0 c28 0 30 3 30
35 l0 35 -65 0 -65 0 0 -130 0 -130 -30 0 c-28 0 -30 -2 -32 -42 -1 -24 -2
-51 -1 -61 0 -18 -38 -34 -56 -22 -6 3 -11 19 -11 36 0 29 0 29 -60 29 -59 0
-61 1 -66 30 -6 29 -8 30 -65 30 l-58 0 -3 33 c-3 28 -7 32 -35 35 -29 3 -33
7 -33 33 0 26 -3 29 -30 29 -27 0 -30 3 -30 29 0 26 -4 30 -32 33 -29 3 -33 7
-36 36 -3 28 -7 32 -33 32 l-29 0 0 -160z m122 -2 c3 -29 7 -33 36 -36 28 -3
32 -7 32 -33 0 -26 3 -29 30 -29 27 0 30 -3 30 -30 0 -28 3 -30 35 -30 33 0
35 -2 35 -36 0 -31 3 -35 23 -34 12 1 55 2 95 1 l72 -1 0 -30 c0 -27 3 -30 30
-30 l30 0 0 -65 0 -65 -60 0 -60 0 0 35 c0 33 -2 35 -35 35 -32 0 -35 2 -35
30 0 27 -3 30 -30 30 -27 0 -30 3 -30 30 0 28 -3 30 -37 31 -89 2 -88 2 -91
37 -3 28 -7 32 -32 32 -25 0 -29 4 -32 33 -3 28 -6 32 -30 29 l-28 -3 0 65 c0
63 1 66 24 66 21 0 25 -6 28 -32z m708 -68 c0 -27 3 -30 30 -30 27 0 30 -3 30
-30 0 -27 -3 -30 -30 -30 -27 0 -30 3 -30 30 0 27 -3 30 -30 30 -27 0 -30 3
-30 30 0 27 3 30 30 30 27 0 30 -3 30 -30z m-62 -123 c4 -31 -15 -42 -52 -33
-18 4 -23 11 -19 26 5 18 2 20 -21 16 -14 -2 -28 -1 -31 4 -6 9 51 18 95 15
19 -1 26 -8 28 -28z m252 -1 c0 -30 -3 -33 -27 -32 -47 2 -46 60 1 64 23 2 26
-2 26 -32z m-130 -66 c0 -27 -3 -30 -30 -30 -27 0 -30 3 -30 30 0 27 3 30 30
30 27 0 30 -3 30 -30z m190 0 c0 -25 -4 -30 -25 -30 -21 0 -25 5 -25 30 0 25
4 30 25 30 21 0 25 -5 25 -30z m-120 -60 c0 -27 -3 -30 -30 -30 -27 0 -30 3
-30 30 0 27 3 30 30 30 27 0 30 -3 30 -30z m-265 -51 c11 -16 1 -19 -13 -3 -7
8 -8 14 -3 14 5 0 13 -5 16 -11z m325 -49 l0 -60 35 0 c33 0 35 -2 35 -35 0
-35 8 -41 48 -36 8 1 12 -16 12 -59 l0 -60 -60 0 -60 0 0 30 c0 28 3 30 35 30
31 0 35 -3 35 -25 0 -14 5 -25 10 -25 6 0 10 9 10 19 0 11 2 25 3 33 2 7 2 10
0 6 -7 -11 -33 3 -33 18 0 8 6 11 15 8 8 -4 15 -1 15 4 0 6 -17 14 -37 17 -60
10 -63 13 -63 45 0 27 -3 30 -30 30 l-30 0 0 60 0 60 30 0 30 0 0 -60z m-260
-24 c0 -35 -18 -42 -22 -9 l-4 28 -11 -25 -12 -25 0 28 c-1 22 3 27 24 27 20
0 25 -5 25 -24z m-62 -69 c3 -24 0 -27 -25 -27 -25 0 -29 4 -27 28 2 32 -1 29
27 27 16 -1 23 -9 25 -28z m262 -2 c0 -21 -5 -25 -30 -25 -25 0 -30 4 -30 25
0 21 5 25 30 25 25 0 30 -4 30 -25z m-69 -42 c0 -4 2 -16 4 -25 5 -26 -9 -30
-70 -23 -47 6 -55 10 -55 29 0 19 6 22 60 24 33 2 60 0 61 -5z m129 -18 c0
-21 -5 -25 -30 -25 -25 0 -30 4 -30 25 0 21 5 25 30 25 25 0 30 -4 30 -25z
m-480 -61 c0 -20 18 -18 23 4 3 9 5 -9 6 -40 1 -55 0 -58 -24 -58 -17 0 -25 6
-25 17 0 13 3 14 12 5 16 -16 28 -15 28 3 0 8 -6 15 -14 15 -16 0 -26 21 -26
56 0 14 4 22 10 19 6 -3 10 -13 10 -21z m412 -5 c4 -26 2 -29 -24 -29 -24 0
-28 4 -28 28 0 21 5 27 24 28 19 1 25 -4 28 -27z m-122 -64 c0 -32 -2 -35 -30
-35 -28 0 -30 3 -30 35 0 32 2 35 30 35 28 0 30 -3 30 -35z m-190 -160 l0
-125 -30 0 -30 0 0 125 0 125 30 0 30 0 0 -125z m630 55 c6 -4 10 -18 8 -31
-4 -29 -32 -34 -125 -24 -62 6 -63 7 -63 36 l0 30 84 -2 c46 -1 89 -5 96 -9z
m-500 -90 c0 -30 0 -30 59 -30 l60 0 3 -32 3 -33 65 0 65 -1 0 -29 0 -30 93
-3 92 -3 0 -29 0 -30 -125 0 -125 0 0 30 c0 29 -1 30 -50 30 -27 0 -53 -1 -57
-2 -5 -2 -10 13 -13 32 l-5 35 -62 3 -63 3 0 59 c0 60 0 60 30 60 27 0 30 -3
30 -30z m-580 -65 c0 -32 2 -35 29 -35 25 0 30 -4 33 -27 2 -23 8 -29 36 -31
l32 -3 0 -65 0 -64 30 0 30 0 0 -90 c0 -54 -4 -90 -10 -90 -6 0 -8 11 -4 25 5
19 2 25 -11 25 -12 0 -16 -6 -12 -20 3 -11 2 -22 -3 -25 -10 -6 -20 55 -20
122 0 51 0 52 -32 55 -32 3 -33 4 -39 63 -3 33 -6 54 -7 48 -1 -7 -12 -12 -24
-12 -17 1 -19 2 -5 6 22 6 22 25 0 21 -12 -2 -19 6 -23 27 -5 25 -10 30 -33
30 -15 -1 -27 3 -27 7 0 4 -8 8 -17 8 -15 0 -16 2 -3 10 8 5 12 12 8 15 -3 3
-15 -5 -26 -19 -17 -22 -28 -26 -76 -26 -43 0 -56 -3 -56 -15 0 -12 11 -14 53
-11 28 2 64 7 80 11 21 6 27 4 27 -9 0 -14 -14 -16 -90 -16 -89 0 -90 0 -90
25 0 24 2 25 65 25 l65 0 0 33 0 32 60 3 60 2 0 -35z m-14 -70 c1 -8 -2 -17
-7 -21 -5 -3 -9 7 -9 22 0 27 12 26 16 -1z m264 -57 c0 -15 -5 -28 -11 -28 -6
0 -9 6 -6 14 3 8 -1 20 -10 28 -14 11 -16 10 -11 -14 3 -16 1 -28 -3 -28 -5 0
-9 13 -9 30 0 26 3 29 25 28 20 -2 25 -8 25 -30z m200 2 c0 -27 -3 -30 -30
-30 -27 0 -30 3 -30 30 0 27 3 30 30 30 27 0 30 -3 30 -30z m-487 -2 c-5 -18
-3 -21 7 -11 8 7 21 8 34 3 11 -4 24 -7 28 -6 3 0 10 -3 15 -8 4 -5 3 -6 -4
-2 -15 8 -13 -45 2 -56 6 -4 -1 -8 -15 -8 -22 0 -25 4 -25 33 0 30 -2 32 -31
29 -28 -3 -31 0 -31 22 0 15 5 26 12 26 9 0 11 -8 8 -22z m-153 -58 c0 -27 -3
-30 -30 -30 -27 0 -30 3 -30 30 0 27 3 30 30 30 27 0 30 -3 30 -30z m508 -2
c-3 -28 -7 -33 -30 -34 -25 -1 -28 2 -28 32 0 31 3 34 31 34 28 0 30 -2 27
-32z m262 -4 l0 -36 60 4 60 3 0 -32 0 -33 -60 0 -60 0 0 -30 0 -30 96 0 95 0
-3 -32 -3 -33 -80 -1 c-99 -1 -105 1 -105 37 l0 29 -65 0 c-67 0 -74 5 -59 44
5 12 21 16 65 16 59 0 59 0 59 29 0 26 -4 30 -32 33 -29 3 -33 7 -36 36 -3 31
-2 32 32 32 35 0 36 -1 36 -36z m-700 -48 c0 -32 -13 -46 -41 -46 -26 0 -29
-3 -29 -35 0 -32 -2 -34 -30 -32 -27 2 -30 6 -30 35 0 29 3 32 30 32 27 0 30
3 30 30 0 28 3 30 35 30 24 0 35 -5 35 -14z m500 -16 c0 -23 -4 -30 -20 -30
-19 0 -20 -5 -16 -60 3 -34 1 -60 -5 -60 -5 0 -10 26 -10 58 -1 31 -3 72 -5
90 -3 30 -2 32 26 32 27 0 30 -3 30 -30z m509 -2 c-2 -31 -2 -31 -6 -5 -2 15
-11 27 -19 27 -10 0 -14 -13 -14 -50 0 -53 14 -66 30 -27 8 21 9 21 9 -5 1
-23 -3 -28 -24 -28 -24 0 -25 3 -25 60 0 57 1 60 25 60 22 0 25 -4 24 -32z
m131 -28 c0 -57 -1 -60 -25 -60 -24 0 -25 3 -25 60 0 57 1 60 25 60 24 0 25
-3 25 -60z m-937 25 c-7 -21 -13 -19 -13 6 0 11 4 18 10 14 5 -3 7 -12 3 -20z
m-436 -37 c10 25 33 13 33 -18 0 -27 -3 -30 -30 -30 -27 0 -30 3 -30 33 0 25
3 29 11 17 8 -11 12 -12 16 -2z m293 -18 c0 -28 -3 -30 -35 -30 -32 0 -35 2
-35 30 0 28 3 30 35 30 32 0 35 -2 35 -30z m1280 0 c0 -27 -3 -30 -30 -30 -16
0 -30 3 -30 8 0 4 -3 17 -6 30 -6 20 -3 22 30 22 33 0 36 -2 36 -30z m-843
-57 c-2 -16 -4 -3 -4 27 0 30 2 43 4 28 2 -16 2 -40 0 -55z m-377 -8 c0 -32
-2 -35 -30 -35 -26 0 -30 4 -30 28 0 35 6 42 37 42 20 0 23 -5 23 -35z m-450
-5 c0 -28 -2 -29 -32 -26 -18 2 -59 4 -90 5 -55 1 -58 2 -58 26 0 25 1 25 90
25 l90 0 0 -30z m1593 23 c-7 -2 -21 -2 -30 0 -10 3 -4 5 12 5 17 0 24 -2 18
-5z m327 -17 c0 -19 -6 -25 -27 -28 -23 -2 -29 -8 -31 -35 l-3 -33 -65 0 -64
0 0 -30 0 -30 -92 2 c-85 1 -88 2 -33 7 51 5 60 9 60 26 0 15 8 21 33 23 28 3
32 7 32 33 l0 29 65 0 65 0 0 30 c0 27 3 30 30 30 25 0 30 -4 30 -24z m-360
-16 c0 -5 -5 -10 -11 -10 -5 0 -7 5 -4 10 3 6 8 10 11 10 2 0 4 -4 4 -10z
m-1370 -50 l0 -30 -90 0 -90 0 0 30 0 30 90 0 90 0 0 -30z m580 -30 l0 -60
-30 0 -30 0 0 60 0 60 30 0 30 0 0 -60z m255 40 c9 -28 -2 -40 -36 -40 -26 0
-29 3 -29 30 0 27 3 30 29 30 21 0 32 -6 36 -20z m325 -10 c0 -27 -3 -30 -30
-30 -27 0 -30 3 -30 30 0 27 3 30 30 30 27 0 30 -3 30 -30z m122 -30 c-3 -55
-6 -60 -27 -60 -19 0 -23 7 -29 46 -10 73 -9 74 27 74 l32 0 -3 -60z m-1152
-30 l0 -30 -60 0 -60 0 0 30 0 30 60 0 60 0 0 -30z m966 -17 c3 -85 2 -83 34
-83 27 0 30 3 30 30 0 27 3 30 30 30 27 0 30 -3 30 -29 0 -26 4 -30 33 -33 26
-2 33 -8 35 -29 3 -23 -1 -27 -27 -31 -31 -5 -41 5 -41 43 0 14 -7 19 -30 19
-27 0 -30 -3 -30 -30 0 -28 -3 -30 -35 -30 -28 0 -35 4 -35 20 0 23 -23 36
-70 39 -19 1 -44 10 -55 21 -16 15 -24 16 -39 8 -16 -9 -18 -8 -14 10 6 23 -8
32 -48 32 -19 0 -24 5 -24 25 0 22 4 24 58 28 31 2 89 3 127 3 l70 -1 1 -42z
m-676 33 c0 -3 -4 -8 -10 -11 -5 -3 -10 -1 -10 4 0 6 5 11 10 11 6 0 10 -2 10
-4z m30 -21 c0 -17 -5 -25 -17 -24 -11 0 -13 3 -5 6 6 2 12 13 12 24 0 10 2
19 5 19 3 0 5 -11 5 -25z m240 15 c0 -5 -4 -10 -10 -10 -5 0 -10 -4 -10 -10 0
-5 7 -7 15 -4 8 4 15 1 15 -5 0 -6 -11 -11 -25 -11 -20 0 -25 5 -25 25 0 18 5
25 20 25 11 0 20 -4 20 -10z m705 0 c-3 -5 -12 -7 -20 -3 -21 7 -19 13 6 13
11 0 18 -4 14 -10z m-1081 -59 c3 -4 -5 -6 -18 -4 -20 4 -25 0 -28 -18 -3 -22
-9 -24 -65 -27 l-63 -3 0 31 0 30 84 0 c47 0 87 -4 90 -9z m64 2 c-10 -2 -26
-2 -35 0 -10 3 -2 5 17 5 19 0 27 -2 18 -5z m462 -23 c0 -28 3 -30 35 -30 32
0 35 -2 35 -30 0 -28 -3 -30 -35 -30 -32 0 -35 2 -35 29 0 27 -3 30 -37 33
-32 3 -38 6 -36 25 2 17 -4 23 -25 26 -15 2 1 5 36 6 l62 1 0 -30z m-90 -10
c0 -5 -4 -10 -10 -10 -5 0 -10 5 -10 10 0 6 5 10 10 10 6 0 10 -4 10 -10z
m-303 -142 c-2 -24 -4 -5 -4 42 0 47 2 66 4 43 2 -24 2 -62 0 -85z m985 84
c-4 -12 0 -14 16 -10 12 4 22 2 22 -3 0 -5 -11 -9 -25 -9 -22 0 -25 4 -25 33
0 22 3 28 9 18 5 -8 7 -21 3 -29z m1066 6 c-2 -27 -7 -33 -28 -33 -21 0 -26 6
-28 33 -3 30 -1 32 28 32 29 0 31 -2 28 -32z m-1541 -30 c-2 -13 -4 -5 -4 17
-1 22 1 32 4 23 2 -10 2 -28 0 -40z m111 30 c-3 -7 -13 -14 -24 -15 -11 -2
-14 0 -5 3 11 5 11 8 0 15 -10 6 -8 9 9 9 15 0 22 -5 20 -12z m-656 -91 c-9
-19 -11 -13 -10 33 0 53 1 54 10 22 8 -23 8 -39 0 -55z m679 56 c1 -5 2 -34 3
-66 l1 -57 -61 0 -62 0 -4 40 c-2 22 0 40 4 40 5 0 8 -5 8 -11 0 -11 28 -38
40 -39 3 0 4 19 4 42 -2 54 1 58 37 58 16 0 30 -3 30 -7z m129 -34 c0 -26 -4
-29 -30 -29 -26 0 -30 3 -30 29 0 31 13 41 43 33 11 -3 17 -14 17 -33z m-1085
26 c-5 -2 -22 -6 -37 -9 -20 -5 -28 -13 -28 -28 0 -20 -3 -21 -92 -14 -50 3
-107 6 -127 6 -32 0 -36 3 -36 25 l0 25 165 -1 c91 0 161 -2 155 -4z m42 -1
c-3 -3 -12 -4 -19 -1 -8 3 -5 6 6 6 11 1 17 -2 13 -5z m661 -21 c-2 -23 -8
-29 -35 -31 -31 -3 -33 -1 -33 27 0 29 3 31 36 31 33 0 35 -2 32 -27z m166 12
c-4 -8 -7 -15 -9 -15 -2 0 -5 7 -9 15 -3 9 0 15 9 15 9 0 12 -6 9 -15z m596
-13 c0 -25 -3 -29 -27 -26 -16 1 -37 3 -48 4 -11 1 -14 4 -7 7 6 2 12 12 12
20 0 11 -7 14 -25 11 -14 -3 -25 -1 -25 3 0 5 27 9 60 9 59 0 60 0 60 -28z
m-675 -12 c3 -5 1 -10 -4 -10 -6 0 -11 5 -11 10 0 6 2 10 4 10 3 0 8 -4 11
-10z m575 0 c0 -5 -5 -10 -11 -10 -5 0 -7 5 -4 10 3 6 8 10 11 10 2 0 4 -4 4
-10z m-1387 -7 c-7 -2 -19 -2 -25 0 -7 3 -2 5 12 5 14 0 19 -2 13 -5z m2067
-43 c0 -27 -3 -30 -30 -30 -27 0 -30 3 -30 30 0 27 3 30 30 30 27 0 30 -3 30
-30z m260 0 c0 -28 -3 -30 -35 -30 -32 0 -35 2 -35 30 0 28 3 30 35 30 32 0
35 -2 35 -30z m58 -62 c3 -25 0 -28 -27 -28 -26 0 -31 4 -31 23 0 30 9 39 35
35 13 -2 21 -12 23 -30z m-2010 15 c-26 -6 -22 -31 5 -36 19 -4 18 -4 -5 -6
-24 -1 -28 3 -28 24 0 20 5 25 23 24 16 -1 18 -2 5 -6z m-421 -80 c-2 -22 -8
-29 -30 -31 -24 -3 -27 0 -27 27 0 28 3 31 29 31 26 0 30 -3 28 -27z m123 -3
c0 -25 -4 -30 -25 -30 -21 0 -25 5 -25 30 0 25 4 30 25 30 21 0 25 -5 25 -30z
m450 0 c0 -22 -4 -28 -15 -24 -12 5 -13 10 -4 20 12 14 -3 20 -71 27 -20 2 -7
5 28 5 l62 2 0 -30z m510 5 c0 -14 -4 -25 -10 -25 -5 0 -10 6 -10 14 0 8 -7
16 -15 20 -11 4 -15 -2 -15 -20 l0 -25 -102 3 c-99 3 -103 4 -101 25 2 13 -4
23 -15 26 -9 3 47 5 126 6 l142 1 0 -25z m-292 3 c-2 -7 3 -12 10 -10 20 4 13
-15 -8 -21 -16 -4 -20 0 -20 19 0 13 5 24 10 24 6 0 9 -6 8 -12z m-331 -20
c-3 -8 -6 -5 -6 6 -1 11 2 17 5 13 3 -3 4 -12 1 -19z m63 -4 c0 -2 -9 -4 -20
-4 -11 0 -20 4 -20 9 0 5 9 7 20 4 11 -3 20 -7 20 -9z m1693 -12 c19 3 22 -3
25 -34 3 -36 2 -38 -27 -38 -31 0 -31 0 -30 53 1 28 3 44 6 34 3 -12 12 -17
26 -15z m-2283 -32 c0 -25 -4 -30 -24 -30 -30 0 -40 13 -31 40 4 13 15 20 31
20 20 0 24 -5 24 -30z m130 0 c0 -27 -3 -30 -30 -30 -27 0 -30 3 -30 30 0 27
3 30 30 30 27 0 30 -3 30 -30z m538 2 c-3 -15 7 -17 72 -17 66 0 75 2 72 18
-2 9 2 17 7 17 6 0 10 -11 9 -25 -2 -25 -4 -25 -90 -25 l-88 0 0 31 c0 18 4
28 10 24 6 -4 9 -14 8 -23z m872 -2 c0 -27 -3 -30 -30 -30 -27 0 -30 3 -30 30
0 27 3 30 30 30 27 0 30 -3 30 -30z m-315 10 c-3 -6 -13 -10 -21 -10 -8 0 -14
-4 -14 -10 0 -5 18 -10 39 -10 29 0 41 5 44 18 4 13 5 11 6 -5 1 -21 -3 -23
-59 -23 -56 0 -60 1 -60 23 0 20 5 24 35 25 21 1 33 -3 30 -8z m-1562 -57
c-12 -2 -24 -12 -26 -21 -3 -12 -5 -10 -6 6 -1 18 4 22 27 21 22 -1 23 -2 5
-6z m402 -18 c0 -21 -5 -25 -27 -25 -23 0 -28 4 -28 25 0 21 5 25 28 25 22 0
27 -4 27 -25z m575 0 c0 -20 -5 -25 -24 -25 -17 0 -25 7 -28 25 -5 22 -2 25
23 25 24 0 29 -4 29 -25z m460 11 c0 -7 -3 -34 -6 -60 -6 -43 -9 -46 -35 -46
-29 0 -29 1 -29 60 l0 60 35 0 c23 0 35 -5 35 -14z m472 2 c-8 -8 -9 -15 -1
-25 9 -10 8 -13 -5 -13 -9 0 -16 4 -16 9 0 19 12 41 23 41 8 0 7 -4 -1 -12z
m681 -5 c-2 -7 2 -13 7 -13 6 0 10 5 10 10 0 6 5 10 11 10 5 0 7 -4 4 -10 -3
-5 1 -10 10 -10 9 0 13 -5 9 -11 -3 -6 -17 -9 -30 -6 -30 5 -34 -6 -34 -114
l0 -89 -30 0 -30 0 3 125 2 126 35 -3 c22 -2 34 -8 33 -15z m-656 -25 c-3 -8
-6 -5 -6 6 -1 11 2 17 5 13 3 -3 4 -12 1 -19z m-1857 -27 c0 -5 -9 -7 -20 -4
-11 3 -20 7 -20 9 0 2 9 4 20 4 11 0 20 -4 20 -9z m840 -21 l0 -30 -62 0 -63
0 0 30 0 30 63 0 62 0 0 -30z m82 -25 c-4 -44 -1 -55 10 -55 11 0 14 12 11 55
-2 39 1 55 10 55 8 0 12 -19 12 -60 0 -59 -1 -60 -27 -60 -27 0 -28 1 -28 60
0 33 4 60 8 60 5 0 7 -25 4 -55z m-932 2 c8 -3 3 -6 -12 -6 -22 -1 -28 3 -28
21 0 19 2 20 13 6 6 -9 19 -18 27 -21z m145 -41 c0 -34 -15 -39 -79 -26 -31 6
-34 8 -13 9 19 1 27 6 27 19 0 26 10 33 40 30 20 -2 25 -8 25 -32z m1795 4 c0
-27 -3 -30 -30 -30 -27 0 -30 3 -30 30 0 27 3 30 30 30 27 0 30 -3 30 -30z
m-1890 16 c0 -11 -19 -15 -25 -6 -3 5 1 10 9 10 9 0 16 -2 16 -4z m160 -86 c0
-28 3 -30 36 -30 l37 0 -7 -52 c-3 -29 -6 -72 -6 -95 0 -41 -1 -43 -30 -43
l-30 0 0 -130 0 -130 61 0 c37 0 58 -4 54 -10 -3 -5 -15 -10 -26 -10 -26 0
-24 -19 4 -30 16 -6 -3 -9 -65 -9 l-88 -1 0 160 0 160 30 0 30 0 0 95 0 95
-30 0 c-27 0 -30 3 -30 30 0 27 3 30 30 30 27 0 30 -3 30 -30z m700 3 c0 -23
-4 -28 -25 -28 -21 0 -25 5 -25 28 0 22 4 27 25 27 21 0 25 -5 25 -27z m129
-98 c-1 -122 -1 -125 -23 -123 -13 1 -23 8 -23 15 0 17 17 17 17 1 0 -8 5 -6
11 4 13 24 6 201 -9 206 -7 2 -10 -2 -6 -11 3 -8 1 -18 -4 -21 -5 -3 -12 8
-14 24 -4 27 -2 30 24 30 l29 0 -2 -125z m321 95 c0 -27 -3 -30 -30 -30 -27 0
-30 3 -30 30 0 27 3 30 30 30 27 0 30 -3 30 -30z m509 8 c-1 -16 -3 -18 -6 -6
-2 9 -14 19 -26 21 -18 4 -17 5 6 6 22 1 27 -3 26 -21z m201 -8 c0 -28 -3 -30
-35 -30 -32 0 -35 -2 -35 -30 0 -27 -3 -30 -30 -30 -27 0 -30 3 -30 30 0 27 3
30 30 30 27 0 30 3 30 30 0 28 3 30 35 30 32 0 35 -2 35 -30z m-235 -10 c3 -5
1 -10 -4 -10 -6 0 -11 5 -11 10 0 6 2 10 4 10 3 0 8 -4 11 -10z m-1755 -50 c0
-27 -3 -30 -30 -30 -27 0 -30 3 -30 30 0 27 3 30 30 30 27 0 30 -3 30 -30z
m260 20 c0 -5 -8 -10 -17 -10 -15 0 -16 2 -3 10 19 12 20 12 20 0z m1424 -15
c-4 -8 -8 -15 -10 -15 -2 0 -4 7 -4 15 0 8 4 15 10 15 5 0 7 -7 4 -15z m-1404
-23 c0 -4 -17 -9 -37 -10 -30 -1 -34 1 -18 8 26 11 55 12 55 2z m-215 -48 c0
-24 -4 -30 -27 -32 -26 -3 -28 -1 -28 31 0 31 3 34 28 32 23 -1 27 -5 27 -31z
m852 -11 c-3 -10 -5 -2 -5 17 0 19 2 27 5 18 2 -10 2 -26 0 -35z m-376 28 c-9
-6 -10 -11 -2 -15 6 -4 9 -12 6 -17 -11 -17 -22 -9 -22 16 0 16 5 25 16 25 13
0 13 -2 2 -9z m107 2 c-15 -2 -42 -2 -60 0 -18 2 -6 4 27 4 33 0 48 -2 33 -4z
m976 -8 c-4 -8 -8 -15 -10 -15 -2 0 -4 7 -4 15 0 8 4 15 10 15 5 0 7 -7 4 -15z
m556 -15 c0 -27 -3 -30 -30 -30 -27 0 -30 3 -30 30 0 27 3 30 30 30 27 0 30
-3 30 -30z m188 5 c0 -21 -5 -25 -29 -25 -25 0 -28 4 -27 25 2 20 8 25 29 25
22 0 27 -5 27 -25z m-1758 -16 c0 -5 -11 -9 -25 -9 -28 0 -34 16 -7 23 20 4
32 -1 32 -14z m90 1 c0 -5 -5 -10 -11 -10 -5 0 -7 5 -4 10 3 6 8 10 11 10 2 0
4 -4 4 -10z m1107 -42 c-2 -13 -4 -5 -4 17 -1 22 1 32 4 23 2 -10 2 -28 0 -40z
m-1807 -8 c0 -27 -3 -30 -30 -30 -27 0 -30 3 -30 30 0 27 3 30 30 30 27 0 30
-3 30 -30z m770 0 c0 -27 -3 -30 -30 -30 -27 0 -30 3 -30 30 0 27 3 30 30 30
27 0 30 -3 30 -30z m700 0 c0 -25 -4 -30 -24 -30 -17 0 -25 7 -28 25 -6 30 -2
35 29 35 19 0 23 -5 23 -30z m639 -27 c-1 -32 -4 -47 -6 -35 -3 17 -10 23 -23
19 -20 -5 -30 10 -30 49 0 20 5 24 30 24 l30 0 -1 -57z m-2189 -54 c23 -6 22
-7 -7 -8 -31 -1 -33 1 -32 32 1 29 2 30 8 7 4 -14 17 -27 31 -31z m975 17 c0
-24 -5 -30 -27 -33 -26 -3 -28 -1 -28 32 0 34 2 36 28 33 22 -2 27 -8 27 -32z
m385 -1 c0 -33 2 -35 34 -35 32 0 35 -2 34 -29 -1 -24 -6 -30 -29 -35 -27 -5
-42 -26 -19 -26 13 0 13 -27 0 -35 -6 -4 -40 -3 -75 0 -63 7 -65 8 -65 36 0
29 1 29 60 29 l60 0 0 30 0 30 -69 0 c-67 0 -68 0 -64 24 4 21 1 25 -17 23
-15 -1 -20 -6 -17 -19 3 -10 2 -20 -2 -22 -4 -3 -8 8 -9 24 -3 33 7 36 116 39
l62 1 0 -35z m128 3 c3 -25 0 -28 -27 -28 -28 0 -31 3 -31 31 0 27 3 30 28 27
21 -2 28 -9 30 -30z m962 -1 c0 -35 2 -34 -52 -28 -5 1 -8 15 -8 31 0 27 3 30
30 30 27 0 30 -3 30 -33z m-563 -19 c-3 -7 -5 -2 -5 12 0 14 2 19 5 13 2 -7 2
-19 0 -25z m300 -55 c-3 -10 -5 -2 -5 17 0 19 2 27 5 18 2 -10 2 -26 0 -35z
m-1147 7 c0 -27 -3 -30 -30 -30 -27 0 -30 3 -30 30 0 27 3 30 30 30 27 0 30
-3 30 -30z m102 20 c-17 -7 -21 -15 -18 -35 3 -14 0 -25 -5 -25 -5 0 -9 16 -9
35 0 32 3 35 28 34 26 0 26 -1 4 -9z m1426 3 c-10 -2 -26 -2 -35 0 -10 3 -2 5
17 5 19 0 27 -2 18 -5z m-1368 -44 c0 -5 -7 -9 -14 -9 -11 0 -16 -14 -19 -47
l-3 -48 -2 55 c-2 49 0 56 18 57 11 1 20 -2 20 -8z m870 -39 c0 -29 1 -29 63
-32 l62 -3 3 -127 3 -128 29 0 c29 0 29 0 32 68 3 62 4 67 25 64 18 -3 22 3
26 30 2 18 5 -11 5 -64 l2 -98 -30 0 -30 0 0 -125 c0 -93 -3 -125 -12 -126 -7
0 -21 -2 -30 -4 -16 -3 -18 8 -18 126 l0 129 -35 0 -35 0 0 -130 0 -130 30 0
c38 0 42 -15 38 -145 l-3 -100 -32 -3 -33 -3 0 -125 0 -124 -30 0 -30 0 0 125
0 125 -30 0 -30 0 0 63 c0 63 0 64 27 62 17 0 28 -7 29 -16 0 -7 2 -35 2 -61
2 -46 3 -48 32 -48 l30 0 0 125 0 125 -30 0 c-28 0 -30 3 -30 35 0 33 -2 35
-35 35 l-35 0 0 95 0 95 -30 0 -31 0 3 -97 c2 -78 6 -98 18 -99 8 -1 21 -2 28
-3 8 -1 12 -26 12 -91 l0 -90 -30 0 -30 0 0 95 0 95 -30 0 -30 0 0 95 0 95 30
0 30 0 0 95 0 95 -30 0 -30 0 0 65 0 65 95 0 95 0 0 -30z m-2123 -12 c-3 -7
-5 -2 -5 12 0 14 2 19 5 13 2 -7 2 -19 0 -25z m1473 -4 c0 -8 -5 -12 -10 -9
-6 4 -8 11 -5 16 9 14 15 11 15 -7z m139 -65 c-5 -22 -8 -48 -7 -57 2 -12 -5
-18 -24 -20 -28 -3 -34 11 -37 86 -1 31 0 32 38 32 l39 0 -9 -41z m926 1 c3
-5 -1 -10 -9 -10 -9 0 -16 5 -16 10 0 6 4 10 9 10 6 0 13 -4 16 -10z m-2538
-32 c-3 -7 -5 -2 -5 12 0 14 2 19 5 13 2 -7 2 -19 0 -25z m1033 -48 l0 -60
-30 0 -30 0 0 60 0 60 30 0 30 0 0 -60z m220 56 c0 -3 -4 -8 -10 -11 -5 -3
-10 -1 -10 4 0 6 5 11 10 11 6 0 10 -2 10 -4z m30 -26 c0 -16 -3 -30 -7 -30
-5 0 -8 14 -8 30 0 17 3 30 8 30 4 0 7 -13 7 -30z m130 0 c0 -25 -4 -30 -25
-30 -14 0 -25 3 -25 8 0 4 -3 17 -6 30 -6 19 -3 22 25 22 28 0 31 -3 31 -30z
m930 11 c0 -6 -4 -12 -8 -15 -5 -3 -9 1 -9 9 0 8 4 15 9 15 4 0 8 -4 8 -9z
m-2343 -63 c-2 -13 -4 -5 -4 17 -1 22 1 32 4 23 2 -10 2 -28 0 -40z m1110 -35
c-2 -16 -4 -5 -4 22 0 28 2 40 4 28 2 -13 2 -35 0 -50z m-915 27 l5 -30 -63 0
c-56 0 -63 2 -57 17 5 12 8 13 11 4 4 -11 6 -11 13 0 6 10 9 11 9 2 0 -7 5
-13 10 -13 6 0 10 8 10 18 0 24 9 32 36 32 17 0 23 -7 26 -30z m1478 -65 l0
-95 -30 0 -30 0 0 88 c0 49 3 92 7 95 3 4 17 7 30 7 22 0 23 -2 23 -95z m-368
60 c3 -14 1 -25 -3 -25 -5 0 -9 11 -9 25 0 14 2 25 4 25 2 0 6 -11 8 -25z
m190 -22 c-5 -76 -10 -83 -11 -15 0 34 2 62 7 62 4 0 6 -21 4 -47z m-148 12
c3 -9 0 -15 -9 -15 -9 0 -12 6 -9 15 4 8 7 15 9 15 2 0 5 -7 9 -15z m573 -57
c-2 -13 -4 -5 -4 17 -1 22 1 32 4 23 2 -10 2 -28 0 -40z m-2017 28 c0 -3 -4
-8 -10 -11 -5 -3 -10 -1 -10 4 0 6 5 11 10 11 6 0 10 -2 10 -4z m420 -91 l0
-96 -27 4 c-28 4 -28 4 -31 95 l-3 92 31 0 30 0 0 -95z m640 35 l0 -60 -30 0
-30 0 0 60 0 60 30 0 30 0 0 -60z m-450 -30 c0 -26 -4 -30 -28 -30 -20 0 -29
5 -29 18 -2 31 6 42 32 42 21 0 25 -5 25 -30z m623 -32 c22 -3 22 -4 25 -255
l2 -253 -30 0 -30 0 2 288 c0 158 3 273 5 255 3 -24 10 -33 26 -35z m-1241
-75 c2 -28 0 -49 -4 -46 -5 2 -7 37 -7 76 2 74 6 62 11 -30z m913 79 c-3 -3
-11 0 -18 7 -9 10 -8 11 6 5 10 -3 15 -9 12 -12z m95 -73 c0 -59 0 -59 -30
-59 l-30 0 0 63 0 64 30 -5 c29 -4 30 -5 30 -63z m637 -6 c-2 -16 -4 -5 -4 22
0 28 2 40 4 28 2 -13 2 -35 0 -50z m193 -23 l0 -90 -30 0 -30 0 0 90 0 90 30
0 30 0 0 -90z m-1470 0 l0 -30 -65 0 c-36 0 -65 4 -65 9 0 17 19 22 40 11 16
-9 20 -8 20 5 0 9 -9 15 -24 15 -14 0 -28 5 -31 10 -4 6 18 10 59 10 l66 0 0
-30z m-320 -20 c0 -5 -4 -10 -10 -10 -5 0 -10 5 -10 10 0 6 5 10 10 10 6 0 10
-4 10 -10z m170 0 c0 -5 -4 -10 -10 -10 -5 0 -10 5 -10 10 0 6 5 10 10 10 6 0
10 -4 10 -10z m-239 -112 c1 -57 3 -129 5 -160 l3 -58 -30 0 -29 0 -2 138 c0
75 -2 144 -3 152 -2 24 4 30 31 30 24 0 24 -1 25 -102z m967 70 c3 -25 0 -28
-27 -28 -28 0 -31 3 -31 31 0 27 3 30 28 27 21 -2 28 -9 30 -30z m649 -10 c-3
-7 -5 -2 -5 12 0 14 2 19 5 13 2 -7 2 -19 0 -25z m-717 -58 l0 -30 -60 0 -60
0 0 30 0 30 60 0 60 0 0 -30z m1029 -30 l1 -60 -30 0 -30 0 0 60 c0 59 0 60
29 60 28 0 28 -1 30 -60z m-259 -10 l0 -50 -32 1 c-31 2 -31 2 -5 6 25 4 27 8
27 49 0 24 2 44 5 44 3 0 5 -22 5 -50z m-900 -20 l0 -30 -60 0 -60 0 0 30 0
30 60 0 60 0 0 -30z m860 26 c0 -3 -4 -8 -10 -11 -5 -3 -10 -1 -10 4 0 6 5 11
10 11 6 0 10 -2 10 -4z m-993 -72 c-3 -3 -12 -4 -19 -1 -8 3 -5 6 6 6 11 1 17
-2 13 -5z m970 -244 l0 -250 -28 0 -29 0 0 250 0 250 29 0 29 0 -1 -250z
m-577 160 c0 -27 -3 -30 -30 -30 -27 0 -30 3 -30 30 0 27 3 30 30 30 27 0 30
-3 30 -30z m-1090 -480 l0 -450 -30 0 -30 0 0 443 c0 244 3 447 7 450 3 4 17
7 30 7 l23 0 0 -450z m960 350 c0 -28 3 -30 35 -30 l36 0 -3 -62 c-3 -63 -3
-63 -35 -66 -29 -3 -33 -7 -33 -33 0 -26 -3 -29 -30 -29 l-30 0 0 95 0 95 -30
0 c-27 0 -30 -3 -30 -30 0 -28 -3 -30 -34 -30 -32 0 -35 2 -33 28 2 23 7 27
35 30 28 3 32 7 32 33 0 29 0 29 60 29 l60 0 0 -30z m320 -95 c0 -117 1 -125
19 -125 44 0 51 -10 51 -71 0 -59 0 -59 30 -59 27 0 30 3 30 30 0 28 3 30 35
30 33 0 35 2 35 35 0 32 2 35 30 35 l30 0 0 -65 0 -65 30 0 c27 0 30 -3 30
-30 0 -27 -3 -30 -30 -30 -27 0 -30 3 -30 30 l0 30 -65 0 -65 0 0 -30 c0 -27
-3 -30 -30 -30 -27 0 -30 3 -30 30 0 27 -3 30 -29 30 -26 0 -30 4 -33 33 -3
28 -7 32 -35 35 l-33 3 0 155 0 154 30 0 30 0 0 -125z m710 95 c0 -27 -3 -30
-30 -30 -27 0 -30 3 -30 30 0 27 3 30 30 30 27 0 30 -3 30 -30z m-70 -52 c0
-34 15 -52 38 -46 17 5 21 0 27 -28 3 -19 3 -49 0 -68 -6 -31 -9 -33 -33 -27
-24 7 -27 13 -30 62 -2 30 -8 57 -14 60 -20 13 -48 -3 -48 -26 0 -13 -7 -25
-15 -29 -25 -9 -45 4 -45 30 0 20 5 24 30 24 28 0 30 3 30 35 0 32 2 35 30 35
24 0 30 -4 30 -22z m-1150 -78 c0 -27 -3 -30 -30 -30 -27 0 -30 3 -30 30 0 27
3 30 30 30 27 0 30 -3 30 -30z m320 -65 c0 -32 -2 -35 -30 -35 -28 0 -30 3
-30 35 0 32 2 35 30 35 28 0 30 -3 30 -35z m700 5 c0 -25 -4 -30 -25 -30 -21
0 -25 5 -25 30 0 25 4 30 25 30 21 0 25 -5 25 -30z m518 -2 c-3 -29 -6 -33
-33 -33 -27 0 -30 4 -33 33 -3 31 -2 32 33 32 35 0 36 -1 33 -32z m-1266 -108
c3 -17 1 -33 -4 -36 -4 -3 -8 11 -8 30 0 44 6 47 12 6z m45 -2 c-3 -7 -5 -2
-5 12 0 14 2 19 5 13 2 -7 2 -19 0 -25z m-388 -5 c0 -11 -3 -13 -6 -5 -2 6
-11 12 -18 12 -7 0 -16 -6 -18 -12 -3 -8 -6 -6 -6 5 -1 12 7 17 24 17 17 0 25
-5 24 -17z m1004 10 c-13 -2 -24 -13 -26 -26 -4 -18 -5 -17 -6 6 -1 23 3 27
27 26 22 -1 23 -2 5 -6z m732 -260 c-3 -396 0 -363 -33 -363 l-27 0 -1 315 0
315 32 0 32 0 -3 -267z m-645 177 c0 -25 -4 -30 -25 -30 -20 0 -25 5 -25 26 0
19 4 25 15 21 8 -4 17 -2 20 3 11 17 15 11 15 -20z m450 -38 c0 -63 0 -63 -27
-60 -27 3 -28 5 -26 58 1 30 2 57 2 60 1 3 12 5 26 5 24 0 25 -2 25 -63z
m-1220 33 c0 -20 -5 -25 -25 -25 -20 0 -25 5 -24 23 1 16 2 18 6 5 2 -10 11
-18 19 -18 17 0 19 26 2 33 -8 3 -6 6 5 6 12 1 17 -7 17 -24z m-356 -10 c3 -8
1 -15 -4 -15 -6 0 -10 7 -10 15 0 8 2 15 4 15 2 0 6 -7 10 -15z m839 -25 c33
0 37 -3 37 -25 0 -22 -5 -25 -32 -25 -18 0 -43 -3 -55 -6 -18 -5 -25 -1 -32
17 -12 33 -3 52 23 45 11 -3 38 -6 59 -6z m415 -45 c-2 -2 -28 -5 -58 -6 -53
-4 -55 -3 -58 23 -3 26 -2 27 55 30 54 3 58 1 61 -20 2 -13 2 -25 0 -27z
m-1181 39 c-3 -3 -12 -4 -19 -1 -8 3 -5 6 6 6 11 1 17 -2 13 -5z m33 -4 c0 -5
-2 -10 -4 -10 -3 0 -8 5 -11 10 -3 6 -1 10 4 10 6 0 11 -4 11 -10z m190 -15
c0 -20 -5 -25 -24 -25 -17 0 -25 7 -28 25 -5 22 -2 25 23 25 24 0 29 -4 29
-25z m-230 -15 c0 -5 -5 -10 -11 -10 -5 0 -7 5 -4 10 3 6 8 10 11 10 2 0 4 -4
4 -10z m170 -50 l0 -30 -60 0 -60 0 0 30 0 30 60 0 60 0 0 -30z m1270 -69 c0
-16 3 -43 6 -60 6 -29 5 -31 -25 -31 l-31 0 0 60 c0 57 1 60 25 60 21 0 25 -5
25 -29z m-317 -20 c2 -11 1 -37 -3 -58 -3 -22 -6 -47 -4 -56 1 -12 -5 -17 -22
-17 -23 0 -24 3 -24 59 0 33 3 66 6 75 9 22 41 20 47 -3z m-1023 -36 c0 -20
-5 -25 -24 -25 -17 0 -25 7 -28 25 -5 22 -2 25 23 25 24 0 29 -4 29 -25z
m1220 -70 l0 -95 -30 0 c-27 0 -30 -3 -30 -30 0 -27 -3 -30 -30 -30 -36 0 -42
17 -38 115 l3 70 33 3 c28 3 32 7 32 33 0 26 3 29 30 29 l30 0 0 -95z m-1280
5 c0 -27 -3 -30 -30 -30 -27 0 -30 3 -30 30 0 27 3 30 30 30 27 0 30 -3 30
-30z m-706 -117 c-1 -7 -2 -62 -2 -123 l-2 -110 -25 0 -25 0 0 126 0 125 28
-3 c15 -2 27 -9 26 -15z m706 -13 c0 -27 -3 -30 -30 -30 -27 0 -30 3 -30 30 0
27 3 30 30 30 27 0 30 -3 30 -30z m1064 -6 c24 -9 19 -19 -9 -19 -14 0 -25 6
-25 13 0 13 10 15 34 6z m86 -60 c0 -20 -5 -24 -30 -24 -25 0 -30 4 -30 23 0
31 5 35 35 29 18 -3 25 -11 25 -28z m-1150 -64 c0 -27 3 -30 30 -30 27 0 30
-3 30 -30 0 -27 -3 -30 -30 -30 -27 0 -30 3 -30 30 l0 30 -65 0 c-62 0 -65 1
-65 24 0 20 -6 25 -32 29 -18 2 11 5 65 5 l97 2 0 -30z m829 3 c-1 -17 -3 -21
-6 -10 -2 9 -13 17 -23 17 -10 0 -22 5 -25 10 -4 6 7 10 24 10 27 0 31 -3 30
-27z m174 20 c-7 -2 -19 -2 -25 0 -7 3 -2 5 12 5 14 0 19 -2 13 -5z m87 -22
c0 -26 -4 -29 -38 -32 -37 -4 -37 -4 -34 28 4 30 7 33 38 33 31 0 34 -3 34
-29z m-363 -62 c-3 -12 0 -19 8 -19 8 0 11 7 8 19 -3 10 -1 21 4 24 6 4 10 -7
10 -23 0 -25 -4 -30 -24 -30 -19 0 -23 5 -23 31 0 19 4 28 11 23 6 -3 9 -15 6
-25z m120 9 c-3 -8 -6 -5 -6 6 -1 11 2 17 5 13 3 -3 4 -12 1 -19z m363 -8 c0
-25 -4 -30 -25 -30 -21 0 -25 5 -25 30 0 25 4 30 25 30 21 0 25 -5 25 -30z
m-190 -10 c0 -18 -6 -20 -67 -18 l-68 2 63 3 c46 3 62 8 62 18 0 8 2 15 5 15
3 0 5 -9 5 -20z m-165 -10 c3 -5 1 -10 -4 -10 -6 0 -11 5 -11 10 0 6 2 10 4
10 3 0 8 -4 11 -10z m485 -48 c0 -26 -3 -28 -30 -24 -24 3 -30 9 -30 28 0 20
5 24 30 24 26 0 30 -4 30 -28z m70 -62 c0 -27 3 -30 30 -30 27 0 30 -3 30 -30
0 -27 -3 -30 -30 -30 -27 0 -30 3 -30 30 0 27 -3 30 -30 30 -27 0 -30 3 -30
30 0 27 3 30 30 30 27 0 30 -3 30 -30z m125 0 c0 -20 -6 -26 -27 -28 -25 -3
-28 0 -28 28 0 28 3 31 28 28 21 -2 27 -8 27 -28z m-195 -60 l0 -30 -60 0
c-56 0 -60 1 -60 23 0 31 0 32 64 35 l56 3 0 -31z m244 24 c9 -3 16 -17 16
-30 0 -20 -5 -24 -30 -24 -25 0 -30 4 -30 24 0 13 6 27 13 29 6 3 13 6 14 6 1
1 8 -2 17 -5z m-1904 -124 l0 -60 -30 0 -30 0 0 60 0 60 30 0 30 0 0 -60z
m450 0 l0 -60 -30 0 -30 0 0 60 0 60 30 0 30 0 0 -60z"/>
<path d="M3010 5730 c0 -27 3 -30 30 -30 27 0 30 3 30 30 0 27 -3 30 -30 30
-27 0 -30 -3 -30 -30z"/>
<path d="M3225 5530 c-3 -5 -1 -10 4 -10 6 0 11 5 11 10 0 6 -2 10 -4 10 -3 0
-8 -4 -11 -10z"/>
<path d="M3360 5475 c0 -8 5 -15 10 -15 6 0 10 7 10 15 0 8 -4 15 -10 15 -5 0
-10 -7 -10 -15z"/>
<path d="M3546 5475 c-3 -8 -1 -15 4 -15 6 0 10 7 10 15 0 8 -2 15 -4 15 -2 0
-6 -7 -10 -15z"/>
<path d="M2161 4704 c0 -11 3 -14 6 -6 3 7 2 16 -1 19 -3 4 -6 -2 -5 -13z"/>
<path d="M3020 4584 c0 -8 5 -12 10 -9 6 3 10 1 10 -4 0 -6 5 -11 10 -11 6 0
10 9 10 20 0 13 -7 20 -20 20 -11 0 -20 -7 -20 -16z"/>
<path d="M3473 4533 c9 -2 23 -2 30 0 6 3 -1 5 -18 5 -16 0 -22 -2 -12 -5z"/>
<path d="M3010 4006 c0 -2 9 -6 20 -9 11 -3 18 -1 14 4 -5 9 -34 13 -34 5z"/>
<path d="M3740 2410 c0 -5 5 -10 10 -10 6 0 10 5 10 10 0 6 -4 10 -10 10 -5 0
-10 -4 -10 -10z"/>
<path d="M2910 2150 c0 -5 5 -10 10 -10 6 0 10 5 10 10 0 6 -4 10 -10 10 -5 0
-10 -4 -10 -10z"/>
<path d="M2777 2093 c-12 -18 11 -36 37 -29 27 7 36 26 12 26 -8 0 -21 3 -29
6 -8 3 -17 1 -20 -3z"/>
<path d="M3796 1992 c-2 -4 -1 -14 5 -22 7 -12 9 -10 9 8 0 23 -5 28 -14 14z"/>
<path d="M3797 1930 c3 -11 7 -20 9 -20 2 0 4 9 4 20 0 11 -4 20 -9 20 -5 0
-7 -9 -4 -20z"/>
<path d="M4851 5104 c0 -11 3 -14 6 -6 3 7 2 16 -1 19 -3 4 -6 -2 -5 -13z"/>
<path d="M5060 5086 c0 -33 -2 -36 -29 -36 l-30 0 -3 -90 -3 -90 27 0 c26 0
27 2 30 63 3 61 3 62 34 65 l31 3 -5 52 c-2 29 -5 53 -6 53 0 1 -11 5 -23 8
-21 7 -23 4 -23 -28z"/>
<path d="M4815 5070 c-4 -6 5 -10 19 -10 14 0 26 5 26 10 0 6 -9 10 -19 10
-11 0 -23 -4 -26 -10z"/>
<path d="M4740 5026 c0 -17 7 -25 25 -28 30 -6 35 -2 35 29 0 19 -5 23 -30 23
-25 0 -30 -4 -30 -24z"/>
<path d="M4680 4960 c0 -25 4 -30 25 -30 21 0 25 5 25 30 0 25 -4 30 -25 30
-21 0 -25 -5 -25 -30z"/>
<path d="M5120 4930 l0 -60 30 0 30 0 0 60 0 60 -30 0 -30 0 0 -60z"/>
<path d="M4480 4735 l0 -125 30 0 30 0 0 125 0 125 -30 0 -30 0 0 -125z"/>
<path d="M5060 4765 l0 -95 30 0 30 0 0 95 0 95 -30 0 -30 0 0 -95z"/>
<path d="M5190 4735 l0 -125 31 0 31 0 -4 125 -3 125 -27 0 -28 0 0 -125z"/>
<path d="M4870 4699 c0 -27 3 -30 28 -27 21 2 28 9 30 31 3 24 0 27 -27 27
-28 0 -31 -3 -31 -31z"/>
<path d="M4800 4610 l0 -60 30 0 30 0 0 60 0 60 -30 0 -30 0 0 -60z"/>
<path d="M4755 3680 c-3 -5 -1 -10 4 -10 6 0 11 5 11 10 0 6 -2 10 -4 10 -3 0
-8 -4 -11 -10z"/>
<path d="M2594 1284 c3 -9 6 -22 6 -30 0 -8 5 -14 10 -14 6 0 10 14 10 30 0
21 -5 30 -16 30 -11 0 -14 -5 -10 -16z"/>
<path d="M2560 1185 l0 -35 65 0 65 0 0 35 0 35 -65 0 -65 0 0 -35z"/>
<path d="M960 800 l0 -160 130 0 c109 0 130 2 130 15 0 8 7 15 15 15 8 0 15 7
15 15 0 8 7 15 15 15 12 0 15 18 15 100 l0 100 -30 0 c-27 0 -30 3 -30 30 l0
30 -130 0 -130 0 0 -160z m190 80 c0 -11 7 -20 15 -20 12 0 15 -13 15 -60 0
-47 -3 -60 -15 -60 -8 0 -15 -9 -15 -19 0 -16 -6 -19 -32 -16 -18 2 -39 4 -45
4 -10 1 -13 27 -13 96 l0 95 45 0 c38 0 45 -3 45 -20z"/>
<path d="M1310 800 l0 -160 50 0 50 0 0 65 0 65 30 0 c19 0 30 -5 30 -14 0 -7
9 -16 21 -19 12 -3 18 -10 14 -16 -3 -6 0 -14 9 -17 8 -3 18 -19 21 -35 6 -27
10 -29 51 -29 42 0 44 1 44 30 0 20 -5 30 -15 30 -8 0 -15 9 -15 20 0 11 -7
20 -15 20 -8 0 -15 7 -15 15 0 8 7 15 15 15 10 0 15 10 15 30 0 20 5 30 15 30
10 0 15 11 15 35 0 24 -5 35 -15 35 -10 0 -15 10 -15 30 l0 30 -145 0 -145 0
0 -160z m223 86 c3 -8 4 -22 3 -32 -2 -16 -13 -20 -64 -22 l-62 -3 0 36 0 35
59 0 c41 0 60 -4 64 -14z"/>
<path d="M1700 931 c0 -20 -6 -30 -20 -34 -19 -5 -20 -14 -20 -131 l0 -126 50
0 50 0 0 65 0 66 63 -3 62 -3 3 -62 3 -63 44 0 45 0 0 130 c0 109 -2 130 -15
130 -10 0 -15 10 -15 30 l0 30 -125 0 -125 0 0 -29z m185 -66 c0 -30 0 -30
-62 -33 l-63 -3 0 30 c0 34 8 38 75 37 49 -1 50 -2 50 -31z"/>
<path d="M2080 930 c0 -27 -3 -30 -30 -30 l-30 0 0 -100 0 -100 30 0 c27 0 30
-3 30 -30 l0 -30 145 0 145 0 0 95 0 95 -95 0 -95 0 0 -30 c0 -29 2 -30 45
-30 43 0 45 -1 45 -30 l0 -30 -66 0 c-44 0 -63 4 -59 11 4 6 -2 13 -14 16 -18
5 -21 13 -21 63 0 49 3 58 20 63 11 3 20 13 20 22 0 15 12 16 108 13 l107 -3
3 33 3 32 -145 0 -146 0 0 -30z"/>
<path d="M2428 928 c-2 -20 -8 -32 -15 -30 -10 1 -13 -23 -13 -98 0 -82 3
-100 15 -100 10 0 15 -10 15 -30 l0 -30 130 0 130 0 0 30 c0 20 5 30 15 30 12
0 15 18 15 100 0 82 -3 100 -15 100 -10 0 -15 10 -15 30 l0 30 -129 0 -130 0
-3 -32z m192 -125 l0 -98 -60 0 -60 0 0 98 0 97 60 0 60 0 0 -97z"/>
<path d="M2750 800 l0 -160 50 0 50 0 0 95 c0 78 3 95 15 95 8 0 15 -7 15 -15
0 -8 7 -15 15 -15 8 0 15 -6 15 -14 0 -7 9 -16 21 -19 12 -3 18 -10 14 -16 -3
-6 1 -11 9 -11 11 0 16 -13 18 -47 l3 -48 48 -3 47 -3 0 160 0 161 -45 0 -45
0 0 -59 c0 -33 -5 -63 -10 -66 -12 -8 -60 34 -60 53 0 6 -7 12 -15 12 -8 0
-15 7 -15 15 0 8 -7 15 -15 15 -8 0 -15 7 -15 15 0 11 -12 15 -50 15 l-50 0 0
-160z"/>
<path d="M3390 930 l0 -30 88 -1 c48 -1 90 -1 95 0 4 0 7 -8 7 -19 0 -16 -7
-20 -30 -20 -20 0 -30 -5 -30 -15 0 -8 -7 -15 -15 -15 -8 0 -15 -7 -15 -15 0
-8 -6 -15 -13 -15 -7 0 -24 -13 -37 -30 -14 -16 -31 -29 -37 -30 -9 0 -13 -17
-13 -50 l0 -50 160 0 160 0 0 29 c0 28 -2 30 -52 35 -29 3 -68 5 -86 3 -56 -5
-60 8 -15 52 22 23 46 41 52 41 6 0 11 7 11 15 0 8 7 15 15 15 8 0 15 7 15 15
0 10 10 15 30 15 29 0 30 1 30 50 l0 50 -160 0 -160 0 0 -30z"/>
<path d="M3780 938 c0 -27 -16 -55 -27 -48 -4 3 -9 -37 -11 -88 -2 -74 0 -93
12 -98 8 -3 18 -19 21 -35 l7 -29 124 0 124 0 0 30 c0 20 5 30 15 30 12 0 15
18 15 100 0 82 -3 100 -15 100 -10 0 -15 10 -15 30 l0 30 -125 0 c-123 0 -125
0 -125 -22z m151 -48 l40 0 -3 -92 -3 -93 -50 0 c-77 -1 -75 -3 -75 95 0 89 6
104 38 94 8 -2 31 -4 53 -4z"/>
<path d="M4100 800 l0 -160 125 0 c104 0 125 2 125 15 0 8 7 15 15 15 8 0 15
6 15 14 0 7 9 16 20 19 18 5 20 14 20 97 0 83 -2 92 -20 97 -11 3 -20 12 -20
19 0 8 -7 14 -15 14 -8 0 -15 7 -15 15 0 13 -21 15 -125 15 l-125 0 0 -160z
m187 80 c3 -11 12 -20 19 -20 10 0 14 -16 14 -60 0 -47 -3 -60 -15 -60 -8 0
-15 -7 -15 -15 0 -8 -9 -15 -20 -16 -11 -1 -32 -1 -47 -2 l-28 -1 -3 91 -3 92
28 4 c57 8 65 7 70 -13z"/>
<path d="M4450 930 c0 -29 2 -30 45 -30 l45 0 0 -99 c0 -95 -1 -98 -22 -98
-66 -1 -68 -2 -68 -33 l0 -30 146 0 145 0 -3 32 c-3 30 -6 32 -43 34 -22 1
-43 2 -47 3 -5 0 -8 42 -8 91 0 65 4 90 13 91 6 1 28 2 47 3 32 1 35 4 38 34
l3 32 -145 0 -146 0 0 -30z"/>
<path d="M4800 930 c0 -20 -5 -30 -15 -30 -13 0 -15 -21 -15 -130 l0 -130 45
0 44 0 3 63 3 62 63 3 62 3 0 -66 0 -65 50 0 50 0 0 125 c0 102 -3 127 -15
131 -9 4 -15 19 -15 35 l0 29 -130 0 -130 0 0 -30z m190 -65 l0 -36 -62 3
c-56 3 -61 5 -65 27 -5 32 11 41 75 41 l52 0 0 -35z"/>
<path d="M5190 930 c0 -28 -3 -30 -35 -30 l-35 0 0 -100 0 -100 30 0 c27 0 30
-3 30 -30 l0 -30 130 0 130 0 0 50 0 50 -45 0 c-34 0 -47 -4 -53 -18 -6 -14
-19 -17 -64 -17 l-58 0 0 96 0 95 59 2 c51 1 60 -1 64 -18 4 -16 14 -20 51
-20 l46 0 0 50 0 50 -125 0 -125 0 0 -30z"/>
<path d="M1667 413 c-4 -3 -7 -55 -7 -115 l0 -108 35 0 35 0 0 65 c0 51 3 65
15 65 8 0 15 -7 15 -15 0 -8 7 -15 15 -15 11 0 15 -12 15 -50 l0 -50 35 0 36
0 -3 113 -3 112 -30 0 c-27 0 -30 -4 -33 -32 -3 -33 -32 -49 -32 -18 0 8 -7
15 -15 15 -8 0 -15 9 -15 20 0 15 -7 20 -28 20 -16 0 -32 -3 -35 -7z"/>
<path d="M1920 400 c0 -11 -7 -20 -15 -20 -12 0 -15 -17 -15 -95 l0 -95 30 0
c29 0 30 2 30 45 0 45 0 45 35 45 35 0 35 0 35 -45 0 -43 1 -45 30 -45 l30 0
0 95 c0 74 -3 95 -14 95 -7 0 -16 9 -19 20 -4 17 -14 20 -66 20 -54 0 -61 -2
-61 -20z m100 -55 c0 -10 -11 -15 -35 -15 -24 0 -35 5 -35 15 0 10 11 15 35
15 24 0 35 -5 35 -15z"/>
<path d="M2117 413 c-4 -3 -7 -55 -7 -115 l0 -108 35 0 35 0 0 65 c0 51 3 65
15 65 8 0 15 -7 15 -15 0 -8 7 -15 15 -15 11 0 15 -12 15 -50 0 -49 1 -50 30
-50 l30 0 0 115 0 115 -30 0 c-28 0 -30 -3 -30 -35 0 -24 -5 -35 -15 -35 -8 0
-15 7 -15 15 0 8 -7 15 -15 15 -8 0 -15 9 -15 20 0 15 -7 20 -28 20 -16 0 -32
-3 -35 -7z"/>
<path d="M2370 400 c0 -11 -7 -20 -15 -20 -12 0 -15 -16 -15 -80 0 -64 3 -80
15 -80 8 0 15 -7 15 -15 0 -12 13 -15 58 -15 82 0 102 23 102 119 0 54 -3 71
-14 71 -7 0 -16 9 -19 20 -4 17 -14 20 -66 20 -54 0 -61 -2 -61 -20z m90 -101
c0 -60 0 -60 -27 -57 -27 3 -28 6 -31 61 l-3 57 31 0 30 0 0 -61z"/>
<path d="M2560 305 l0 -115 80 0 c64 0 80 3 80 15 0 8 7 15 15 15 10 0 15 11
15 35 0 24 -5 35 -15 35 -8 0 -15 7 -15 15 0 8 7 15 15 15 10 0 15 10 15 30 0
20 -5 30 -15 30 -8 0 -15 9 -15 20 0 18 -7 20 -80 20 l-80 0 0 -115z m130 40
c0 -10 -11 -15 -35 -15 -24 0 -35 5 -35 15 0 10 11 15 35 15 24 0 35 -5 35
-15z m-5 -80 c0 -13 -8 -21 -24 -23 -28 -4 -46 11 -37 33 9 25 61 16 61 -10z"/>
<path d="M2820 404 c0 -9 -9 -18 -20 -21 -18 -5 -20 -14 -20 -99 l0 -94 35 0
c35 0 35 0 35 45 0 43 1 45 30 45 29 0 30 -2 30 -45 0 -45 0 -45 35 -45 l35 0
0 95 c0 80 -2 95 -16 95 -9 0 -18 9 -21 20 -5 17 -14 20 -64 20 -47 0 -59 -3
-59 -16z m90 -59 c0 -10 -10 -15 -30 -15 -20 0 -30 5 -30 15 0 10 10 15 30 15
20 0 30 -5 30 -15z"/>
<path d="M3010 305 l0 -115 30 0 30 0 0 65 c0 51 3 65 15 65 8 0 15 -6 15 -14
0 -7 8 -16 19 -19 15 -3 18 -14 18 -48 -1 -42 0 -44 31 -47 l32 -3 0 116 0
116 -32 -3 c-29 -3 -33 -6 -30 -30 4 -32 -16 -47 -33 -25 -7 10 -17 17 -24 17
-6 0 -11 9 -11 20 0 16 -7 20 -30 20 l-30 0 0 -115z"/>
<path d="M3263 400 c-3 -11 -12 -20 -19 -20 -11 0 -14 -21 -14 -96 l0 -95 33
3 c30 3 32 6 35 46 3 39 5 42 33 42 28 0 29 -2 29 -46 0 -45 0 -45 33 -42 30
3 32 5 31 43 -1 124 -4 145 -19 145 -8 0 -15 9 -15 20 0 18 -7 20 -61 20 -52
0 -62 -3 -66 -20z m97 -55 c0 -10 -10 -15 -30 -15 -20 0 -30 5 -30 15 0 10 10
15 30 15 20 0 30 -5 30 -15z"/>
<path d="M3460 305 l0 -115 30 0 30 0 0 65 c0 51 3 65 15 65 8 0 15 -7 15 -15
0 -8 7 -15 14 -15 11 0 16 -14 18 -47 3 -46 4 -48 36 -51 l33 -3 -3 113 -3
113 -30 0 c-27 0 -30 -4 -33 -32 -3 -33 -32 -49 -32 -18 0 8 -7 15 -15 15 -8
0 -15 9 -15 20 0 16 -7 20 -30 20 l-30 0 0 -115z"/>
<path d="M3713 400 c-3 -11 -12 -20 -19 -20 -11 0 -14 -21 -14 -95 l0 -95 30
0 c29 0 30 2 30 45 0 45 0 45 35 45 35 0 35 0 35 -45 0 -43 1 -45 30 -45 l30
0 0 95 c0 78 -3 95 -15 95 -8 0 -15 9 -15 20 0 18 -7 20 -61 20 -52 0 -62 -3
-66 -20z m97 -56 c0 -11 -8 -14 -32 -12 -46 4 -49 28 -4 28 26 0 36 -4 36 -16z"/>
<path d="M4100 418 c-1 -2 -1 -52 -2 -113 l-2 -110 32 -3 c32 -3 32 -3 32 42
0 34 4 46 15 46 8 0 15 -4 15 -10 0 -5 6 -10 14 -10 9 0 16 -12 18 -32 3 -29
7 -33 36 -36 30 -3 32 -1 32 27 0 21 -5 31 -15 31 -10 0 -15 11 -15 35 0 24 5
35 15 35 24 0 20 56 -5 63 -11 3 -19 11 -18 19 2 10 -16 14 -74 16 -43 2 -78
2 -78 0z m120 -73 c0 -10 -10 -15 -30 -15 -20 0 -30 5 -30 15 0 10 10 15 30
15 20 0 30 -5 30 -15z"/>
<path d="M4320 305 l0 -115 30 0 c17 0 31 5 31 10 1 6 3 15 4 20 1 6 3 19 4
30 1 17 8 20 46 20 41 0 45 2 45 25 0 16 6 25 15 25 10 0 15 10 15 30 0 20 -5
30 -15 30 -8 0 -15 9 -15 20 0 18 -7 20 -80 20 l-80 0 0 -115z m130 35 c0 -16
-7 -20 -30 -20 -23 0 -30 4 -30 20 0 16 7 20 30 20 23 0 30 -4 30 -20z"/>
<path d="M4580 404 c0 -9 -9 -18 -20 -21 -18 -5 -20 -14 -20 -80 0 -66 2 -75
20 -80 11 -3 20 -12 20 -19 0 -11 19 -14 80 -14 l80 0 0 70 0 70 -50 0 c-47 0
-50 -2 -50 -25 0 -16 6 -25 15 -25 8 0 15 -9 15 -20 0 -16 -7 -20 -30 -20
l-30 0 0 60 0 60 65 0 65 0 0 30 0 30 -80 0 c-67 0 -80 -3 -80 -16z"/>
</g>
</svg>
