<?xml version="1.0" standalone="no"?>
<!DOCTYPE svg PUBLIC "-//W3C//DTD SVG 20010904//EN"
 "http://www.w3.org/TR/2001/REC-SVG-20010904/DTD/svg10.dtd">
<svg version="1.0" xmlns="http://www.w3.org/2000/svg"
 width="640.000000pt" height="640.000000pt" viewBox="0 0 640.000000 640.000000"
 preserveAspectRatio="xMidYMid meet">
<metadata>
Created by potrace 1.16, written by Peter Selinger 2001-2019
</metadata>
<g transform="translate(0.000000,640.000000) scale(0.100000,-0.100000)"
fill="#000000" stroke="none">
<path d="M3280 5480 l0 -40 -80 0 -80 0 0 -40 0 -40 -40 0 -40 0 0 40 0 40
-80 0 -80 0 0 -40 0 -40 -40 0 -40 0 0 -40 0 -40 -40 0 -40 0 0 -40 0 -40 -40
0 -40 0 0 40 0 40 -200 0 -200 0 0 -40 0 -40 -80 0 -80 0 0 -40 0 -40 -40 0
-40 0 0 -40 0 -40 -40 0 -40 0 0 -40 0 -40 -40 0 -40 0 0 -80 0 -80 -40 0 -40
0 0 -80 0 -80 -40 0 -40 0 0 -80 0 -80 -40 0 -40 0 0 -80 0 -80 -40 0 -40 0 0
-80 0 -80 -40 0 -40 0 0 -120 0 -120 -40 0 -40 0 0 -120 0 -120 -40 0 -40 0 0
-120 0 -120 -40 0 -40 0 0 -120 0 -120 -40 0 -40 0 0 -120 0 -120 -40 0 -40 0
0 -240 0 -240 40 0 40 0 0 -40 0 -40 40 0 40 0 0 -40 0 -40 200 0 200 0 0 40
0 40 40 0 40 0 0 40 0 40 40 0 40 0 0 40 0 40 40 0 40 0 0 40 0 40 40 0 40 0
0 80 0 80 40 0 40 0 0 -80 0 -80 40 0 40 0 0 -80 0 -80 -40 0 -40 0 0 -80 0
-80 -40 0 -40 0 0 -120 0 -120 -40 0 -40 0 0 40 0 40 -80 0 -80 0 0 -40 0 -40
-40 0 -40 0 0 -80 0 -80 40 0 40 0 0 -40 0 -40 40 0 40 0 0 -40 0 -40 40 0 40
0 0 -40 0 -40 40 0 40 0 0 -40 0 -40 40 0 40 0 0 -40 0 -40 -40 0 -40 0 0
-120 0 -120 120 0 120 0 0 40 0 40 40 0 40 0 0 -40 0 -40 40 0 40 0 0 -80 0
-80 40 0 40 0 0 -240 0 -240 40 0 40 0 0 -40 0 -40 160 0 160 0 0 40 0 40 40
0 40 0 0 40 0 40 40 0 40 0 0 40 0 40 120 0 120 0 0 120 0 120 -40 0 -40 0 0
80 0 80 80 0 80 0 0 -40 0 -40 40 0 40 0 0 -160 0 -160 40 0 40 0 0 -40 0 -40
40 0 40 0 0 -40 0 -40 240 0 240 0 0 80 0 80 -40 0 -40 0 0 160 0 160 40 0 40
0 0 80 0 80 40 0 40 0 0 -40 0 -40 40 0 40 0 0 -40 0 -40 80 0 80 0 0 40 0 40
40 0 40 0 0 40 0 40 40 0 40 0 0 40 0 40 40 0 40 0 0 40 0 40 40 0 40 0 0 80
0 80 40 0 40 0 0 120 0 120 40 0 40 0 0 320 0 320 -40 0 -40 0 0 360 0 360
-40 0 -40 0 0 160 0 160 -40 0 -40 0 0 160 0 160 -40 0 -40 0 0 200 0 200 -40
0 -40 0 0 200 0 200 -40 0 -40 0 0 80 0 80 -40 0 -40 0 0 80 0 80 -40 0 -40 0
0 40 0 40 -40 0 -40 0 0 40 0 40 -40 0 -40 0 0 40 0 40 -80 0 -80 0 0 40 0 40
-120 0 -120 0 0 40 0 40 40 0 40 0 0 80 0 80 -200 0 -200 0 0 -40z m320 -80
l0 -40 -40 0 -40 0 0 -80 0 -80 -80 0 -80 0 0 -40 0 -40 120 0 120 0 0 -40 0
-40 40 0 40 0 0 -40 0 -40 40 0 40 0 0 40 0 40 40 0 40 0 0 40 0 40 40 0 40 0
0 -40 0 -40 40 0 40 0 0 -40 0 -40 40 0 40 0 0 -40 0 -40 40 0 40 0 0 -80 0
-80 40 0 40 0 0 -80 0 -80 40 0 40 0 0 -200 0 -200 40 0 40 0 0 -200 0 -200
40 0 40 0 0 -160 0 -160 40 0 40 0 0 -160 0 -160 40 0 40 0 0 -160 0 -160 -40
0 -40 0 0 -40 0 -40 40 0 40 0 0 -120 0 -120 40 0 40 0 -1 -315 -1 -315 -34 0
c-30 0 -34 3 -35 28 -3 61 -6 196 -7 355 l-2 167 -40 0 -39 0 -3 122 -3 122
-35 1 c-33 0 -35 2 -38 36 l-3 37 -155 7 -154 7 0 32 0 31 57 -5 c33 -2 46 -6
31 -8 -20 -2 -28 -9 -28 -23 0 -16 7 -19 45 -19 43 0 45 1 45 30 l0 30 120 0
120 0 0 40 0 40 -40 0 -40 0 0 80 0 80 -40 0 -40 0 0 -80 0 -81 -157 3 -158 3
-3 38 c-3 36 -4 37 -43 37 -39 0 -39 0 -39 40 l0 40 -40 0 -40 0 0 80 0 80 40
0 40 0 0 -40 0 -40 40 0 40 0 0 40 0 40 40 0 40 0 0 40 0 40 40 0 40 0 0 -40
0 -40 40 0 40 0 0 -80 0 -80 40 0 40 0 0 160 0 160 -40 0 -40 0 0 240 0 240
-40 0 -40 0 0 160 0 160 -40 0 -40 0 0 160 0 160 -40 0 -40 0 0 80 0 80 -40 0
-40 0 0 -120 0 -120 40 0 40 0 0 -280 0 -280 40 0 40 0 0 -200 0 -200 -40 0
-40 0 0 -40 0 -40 -40 0 -40 0 0 -40 0 -40 -80 0 -80 0 0 -40 0 -40 -40 0 -40
0 0 -40 0 -40 -440 0 -440 0 0 40 0 40 -160 0 -160 0 0 40 0 40 -80 0 -80 0 0
-40 0 -40 40 0 40 0 0 -40 0 -40 -80 0 -80 0 0 -40 0 -40 -40 0 -40 0 0 -40 0
-40 -40 0 -40 0 0 -40 0 -40 -40 0 -40 0 0 -40 0 -40 -40 0 -40 0 0 80 0 80
-40 0 -40 0 0 -80 0 -80 -40 0 -40 0 0 -80 0 -80 -40 0 -40 0 0 -40 0 -40 -40
0 -40 0 0 -40 0 -40 -40 0 -40 0 0 -40 0 -40 -200 0 -200 0 0 40 0 40 -40 0
-40 0 0 240 0 240 40 0 40 0 0 120 0 120 40 0 40 0 0 120 0 120 40 0 40 0 0
120 0 120 40 0 40 0 0 120 0 120 40 0 40 0 0 120 0 120 40 0 40 0 0 80 0 80
40 0 40 0 0 80 0 80 40 0 40 0 0 80 0 80 40 0 40 0 0 80 0 80 40 0 40 0 0 80
0 80 40 0 40 0 0 40 0 40 40 0 40 0 0 40 0 40 80 0 80 0 0 40 0 40 200 0 200
0 0 -40 0 -40 40 0 40 0 0 -40 0 -40 40 0 40 0 0 120 0 120 40 0 40 0 0 40 0
40 40 0 40 0 0 -80 0 -80 40 0 40 0 0 40 0 40 40 0 40 0 0 40 0 40 80 0 80 0
0 40 0 40 160 0 160 0 0 -40z m-897 -2297 c-7 -2 -19 -2 -25 0 -7 3 -2 5 12 5
14 0 19 -2 13 -5z m-77 -76 c3 -2 6 -37 7 -77 1 -51 -2 -74 -10 -77 -8 -3 -13
6 -14 24 0 15 -3 22 -6 15 -2 -6 -9 -9 -15 -6 -6 4 -8 -6 -5 -25 6 -34 -8 -52
-16 -21 -3 14 -14 20 -32 20 -24 0 -26 2 -21 40 4 34 2 40 -15 40 -16 0 -19
-7 -19 -40 0 -27 -5 -43 -15 -46 -20 -8 -19 -24 1 -24 9 0 14 -6 11 -13 -3 -9
3 -13 17 -13 17 1 22 -6 27 -39 5 -30 7 -33 8 -12 2 41 21 32 21 -10 l0 -38
-85 3 c-84 3 -120 21 -47 23 l37 2 -35 6 c-33 6 -47 28 -27 42 5 4 -4 10 -19
13 -20 5 -24 10 -15 16 22 13 1 32 -32 28 l-32 -3 4 45 c4 53 23 70 68 63 33
-6 33 -6 33 37 l0 43 110 -5 c61 -3 113 -8 116 -11z m814 -27 l0 -40 -160 0
-160 0 0 40 0 40 160 0 160 0 0 -40z m-650 10 c0 -15 -7 -20 -27 -21 l-28 -2
28 -4 c15 -2 27 -9 27 -14 0 -6 -4 -7 -10 -4 -6 4 -10 -12 -9 -42 0 -36 3 -43
9 -28 6 15 9 7 9 -31 l1 -51 -32 1 c-31 1 -33 4 -32 36 1 19 2 68 3 108 l1 72
30 0 c23 0 30 -4 30 -20z m1120 -12 c0 -30 -3 -33 -30 -33 -24 0 -30 4 -29 20
0 11 3 14 6 8 8 -21 22 -15 16 7 -3 11 -9 17 -14 14 -5 -3 -9 0 -9 5 0 6 14
11 30 11 27 0 30 -3 30 -32z m-961 -29 c-22 -14 -59 -11 -59 6 0 8 6 12 14 9
8 -3 23 -1 33 5 22 12 33 -7 12 -20z m81 -21 c0 -4 -11 -8 -25 -8 -18 0 -25
-5 -25 -20 0 -13 7 -20 20 -20 11 0 20 6 20 13 0 8 3 7 9 -3 14 -20 7 -25 -31
-24 -26 1 -34 5 -36 23 -2 12 -2 28 1 34 5 13 67 18 67 5z m567 -1 c3 -4 -8
-7 -25 -7 -26 0 -31 -4 -35 -27 -3 -24 -4 -23 -6 7 -1 33 1 35 29 34 17 0 33
-4 37 -7z m-1307 -31 c0 -37 -24 -67 -33 -42 -4 10 -1 13 9 9 10 -4 14 2 14
21 0 29 -16 35 -23 9 -3 -11 -5 -7 -6 10 -1 21 4 27 19 27 16 0 20 -7 20 -34z
m1702 5 c-3 -23 -10 -30 -33 -33 -35 -5 -39 -2 -39 34 0 26 3 28 38 28 37 0
38 -1 34 -29z m-399 -11 c3 -11 1 -23 -4 -26 -5 -3 -9 6 -9 20 0 31 6 34 13 6z
m-113 -93 c11 -3 21 0 24 7 2 6 5 3 5 -6 1 -14 -7 -18 -34 -18 -33 0 -34 1
-30 38 5 50 7 53 12 16 3 -21 11 -34 23 -37z m-410 43 c0 -5 -4 -10 -9 -10 -6
0 -13 5 -16 10 -3 6 1 10 9 10 9 0 16 -4 16 -10z m168 3 c-15 -2 -42 -2 -60 0
-18 2 -6 4 27 4 33 0 48 -2 33 -4z m115 0 c-7 -2 -19 -2 -25 0 -7 3 -2 5 12 5
14 0 19 -2 13 -5z m-723 -13 c0 -5 -4 -10 -10 -10 -5 0 -10 5 -10 10 0 6 5 10
10 10 6 0 10 -4 10 -10z m-320 -20 c0 -5 -5 -10 -11 -10 -5 0 -7 5 -4 10 3 6
8 10 11 10 2 0 4 -4 4 -10z m-43 -22 c-3 -8 -6 -5 -6 6 -1 11 2 17 5 13 3 -3
4 -12 1 -19z m363 12 c0 -5 -4 -10 -10 -10 -5 0 -10 5 -10 10 0 6 5 10 10 10
6 0 10 -4 10 -10z m660 -10 c-20 -13 -60 -13 -60 0 0 6 17 10 38 10 27 0 33
-3 22 -10z m-227 -7 c-28 -5 -30 -29 -3 -38 11 -3 20 -11 20 -16 0 -6 -4 -7
-10 -4 -5 3 -10 1 -10 -4 0 -6 14 -11 31 -11 18 0 28 4 24 10 -4 6 -11 8 -16
5 -5 -4 -9 -2 -9 3 0 9 32 22 58 22 7 0 12 -14 12 -35 0 -24 6 -37 20 -45 17
-9 20 -8 20 10 0 11 5 20 10 20 10 0 4 -63 -7 -82 -2 -5 -41 -8 -85 -8 -45 0
-79 -2 -77 -5 3 -2 53 -5 111 -6 104 -1 106 -2 106 -25 0 -27 -16 -30 -135
-26 -98 4 -110 19 -20 25 l62 3 -60 2 c-46 1 -66 -3 -85 -18 -17 -14 -20 -20
-10 -20 10 -1 9 -4 -5 -10 -19 -8 -19 -9 1 -9 14 -1 24 -9 28 -23 7 -29 -5
-40 -40 -36 -26 3 -29 7 -32 46 -3 43 -3 43 -40 40 l-37 -3 -1 43 c-1 23 2 42
7 42 13 0 11 38 -2 46 -8 5 -6 10 5 16 18 10 57 1 67 -15 4 -5 12 -7 18 -3 14
9 8 69 -8 74 -23 8 10 32 34 26 13 -3 26 -1 29 5 4 6 17 10 29 10 22 -2 22 -2
0 -6z m-903 -43 c0 -28 -3 -30 -35 -30 -32 0 -35 2 -35 30 0 28 3 30 35 30 32
0 35 -2 35 -30z m1140 16 c0 -8 -4 -18 -10 -21 -5 -3 -10 3 -10 14 0 12 5 21
10 21 6 0 10 -6 10 -14z m418 -60 c31 1 32 0 31 -40 l-2 -41 -7 35 c-6 35 -13
30 -23 -15 -3 -12 -5 -8 -6 12 -1 24 -5 31 -16 27 -8 -4 -15 -10 -15 -16 0 -5
5 -6 10 -3 6 3 10 1 10 -4 0 -6 -4 -11 -10 -11 -5 0 -10 -9 -10 -19 0 -14 5
-18 20 -14 24 6 27 -12 5 -33 -8 -9 -15 -11 -15 -5 0 6 -20 11 -47 11 -34 0
-44 -3 -33 -10 22 -14 11 -18 -50 -20 -86 -3 -110 -1 -110 9 0 5 11 8 25 6 24
-2 25 -1 27 69 1 63 2 65 5 19 3 -42 8 -53 21 -52 10 0 12 3 5 6 -9 3 -7 11 7
26 28 29 26 64 -2 70 -15 3 -10 5 13 6 44 1 87 22 82 38 -2 6 6 13 19 15 20 3
24 -2 28 -32 5 -33 8 -36 38 -34z m-1363 54 c3 -5 1 -10 -4 -10 -6 0 -11 5
-11 10 0 6 2 10 4 10 3 0 8 -4 11 -10z m1137 -1 c16 1 28 -2 28 -7 0 -5 -6 -9
-13 -9 -7 0 -25 -3 -40 -7 -23 -5 -27 -3 -27 14 0 14 4 19 12 13 7 -4 25 -6
40 -4z m-242 -44 c0 -25 -2 -45 -5 -45 -7 0 -25 73 -19 82 13 21 24 4 24 -37z
m-890 15 c0 -5 -7 -10 -16 -10 -8 0 -12 5 -9 10 3 6 10 10 16 10 5 0 9 -4 9
-10z m981 -51 l-9 -34 -1 31 c-1 17 2 34 6 37 12 13 14 -1 4 -34z m-1066 21
l50 -7 -40 -3 c-39 -2 -39 -3 -10 -9 l30 -7 -37 -7 c-21 -5 -38 -11 -38 -15 0
-4 -13 -9 -30 -10 -28 -2 -30 0 -30 33 0 39 6 41 105 25z m344 -11 c-10 -6
-11 -9 -1 -9 6 0 12 -9 12 -20 0 -16 -7 -20 -32 -20 -31 0 -33 2 -31 32 1 18
2 33 2 34 1 0 15 -2 32 -4 22 -3 27 -7 18 -13z m838 -11 c-3 -7 -5 -2 -5 12 0
14 2 19 5 13 2 -7 2 -19 0 -25z m533 24 c25 -11 21 -30 -8 -37 -25 -7 -25 -8
-7 -15 16 -7 12 -9 -17 -9 -37 -1 -38 0 -38 34 0 32 3 35 28 34 15 0 34 -3 42
-7z m-698 -56 c0 -26 -2 -50 -6 -53 -3 -4 -6 20 -6 52 0 69 10 69 12 1z m748
30 c0 -3 -4 -8 -10 -11 -5 -3 -10 -1 -10 4 0 6 5 11 10 11 6 0 10 -2 10 -4z
m-1580 -56 c36 -1 58 -4 50 -7 -8 -4 -21 -12 -28 -20 -11 -11 -11 -14 0 -17 7
-3 20 -7 28 -9 8 -3 -29 -6 -82 -6 l-98 -1 0 33 c0 31 2 33 33 31 17 -1 61 -3
97 -4z m90 -40 c0 -11 -4 -20 -8 -20 -4 0 -8 9 -9 20 -1 11 2 20 8 20 5 0 9
-9 9 -20z m1130 -8 c0 -5 -7 -9 -15 -9 -8 0 -15 4 -15 9 0 4 7 8 15 8 8 0 15
-4 15 -8z m78 -57 c3 -35 2 -35 -38 -35 -25 0 -39 4 -35 10 3 6 15 10 26 10
14 0 19 7 19 25 0 39 26 30 28 -10z m-1395 -56 c29 -2 29 -2 -8 -8 -45 -8 -68
-3 -59 11 3 5 13 7 21 4 8 -3 29 -7 46 -7z m117 -114 c0 -32 -3 -35 -27 -35
l-28 0 23 18 c15 12 21 24 16 35 -3 10 -1 17 5 17 6 0 11 -16 11 -35z m853 28
c-7 -2 -19 -2 -25 0 -7 3 -2 5 12 5 14 0 19 -2 13 -5z m-1045 -50 c-10 -2 -26
-2 -35 0 -10 3 -2 5 17 5 19 0 27 -2 18 -5z m1172 -3 c0 -5 -2 -10 -4 -10 -3
0 -8 5 -11 10 -3 6 -1 10 4 10 6 0 11 -4 11 -10z m30 0 c0 -5 -4 -10 -10 -10
-5 0 -10 5 -10 10 0 6 5 10 10 10 6 0 10 -4 10 -10z m177 -27 c-9 -8 -137 -12
-137 -4 0 15 9 16 75 13 37 -2 64 -6 62 -9z m-520 1 c-3 -3 -12 -4 -19 -1 -8
3 -5 6 6 6 11 1 17 -2 13 -5z m40 0 c-3 -3 -12 -4 -19 -1 -8 3 -5 6 6 6 11 1
17 -2 13 -5z m-274 -81 c-7 -2 -19 -2 -25 0 -7 3 -2 5 12 5 14 0 19 -2 13 -5z
m350 0 c-13 -2 -33 -2 -45 0 -13 2 -3 4 22 4 25 0 35 -2 23 -4z m250 0 c-7 -2
-19 -2 -25 0 -7 3 -2 5 12 5 14 0 19 -2 13 -5z m244 -15 c-3 -8 -6 -5 -6 6 -1
11 2 17 5 13 3 -3 4 -12 1 -19z m-793 -36 c2 -4 -12 -6 -32 -4 -56 5 -62 10
-15 11 23 1 44 -3 47 -7z m299 1 c-13 -2 -33 -2 -45 0 -13 2 -3 4 22 4 25 0
35 -2 23 -4z m55 -76 c10 -3 7 -5 -9 -6 -21 -1 -25 3 -23 22 5 47 7 51 11 20
3 -19 11 -34 21 -36z m352 28 c0 -19 -4 -35 -8 -35 -4 0 -6 16 -4 35 2 19 6
35 8 35 2 0 4 -16 4 -35z m720 -2 c0 -31 -2 -33 -35 -33 -32 0 -35 2 -35 29 0
29 10 36 53 37 13 0 17 -8 17 -33z m-1407 0 c-32 -12 -7 -22 65 -26 l77 -3
-82 -2 c-77 -2 -83 -1 -83 18 0 13 6 20 18 19 10 0 12 -3 5 -6z m210 -30 c-7
-2 -19 -2 -25 0 -7 3 -2 5 12 5 14 0 19 -2 13 -5z m364 1 c-3 -3 -12 -4 -19
-1 -8 3 -5 6 6 6 11 1 17 -2 13 -5z m-1797 -54 l0 -40 -40 0 -40 0 0 40 0 40
40 0 40 0 0 -40z m1760 -120 l0 -81 -117 3 -118 3 -3 64 c-2 35 -1 70 2 77 4
11 33 14 121 14 l115 0 0 -80z m-1112 -32 c2 -18 10 -28 20 -29 29 -2 -30 -17
-70 -18 -37 -1 -38 -2 -38 -41 l0 -40 -40 0 c-40 0 -40 0 -40 -39 0 -37 -2
-39 -35 -43 -20 -2 -38 -2 -40 1 -3 2 -5 22 -5 43 0 38 0 38 40 38 l40 0 0 40
0 40 40 0 40 0 0 41 0 40 43 -3 c38 -3 42 -6 45 -30z m1506 -66 c-1 -6 -2 -41
-2 -77 l-2 -64 -36 1 c-34 1 -36 3 -30 31 3 16 6 49 6 73 0 32 4 44 18 47 27
8 47 3 46 -11z m719 -39 c7 -66 4 -167 -5 -170 -5 -2 -19 -3 -32 -3 -25 0 -25
1 -28 110 l-3 110 32 0 c30 0 31 -2 36 -47z m-1833 -58 c0 -34 -1 -35 -40 -35
-36 0 -40 3 -40 25 0 18 -4 23 -15 19 -8 -4 -15 -1 -15 4 0 13 23 19 73 21 36
1 37 0 37 -34z m-120 21 c0 -11 -19 -15 -25 -6 -3 5 1 10 9 10 9 0 16 -2 16
-4z m31 -55 c0 -14 1 -56 2 -93 l2 -68 -32 0 c-26 0 -33 4 -33 20 0 15 7 20
28 21 27 2 27 2 2 6 -14 3 -29 11 -33 19 -5 8 -24 14 -45 14 -37 0 -38 1 -34
34 3 30 8 34 31 34 45 -1 51 1 51 21 0 15 7 19 30 19 25 -1 30 -5 31 -27z
m-231 -51 l0 -40 40 0 40 0 0 -40 0 -40 40 0 40 0 0 -40 0 -40 40 0 40 0 0
-40 0 -40 40 0 40 0 0 -40 0 -40 40 0 40 0 0 -40 0 -40 40 0 40 0 0 -40 0 -40
40 0 40 0 0 -40 0 -40 40 0 40 0 0 -80 0 -80 -120 0 -120 0 0 39 0 38 -72 8
c-65 7 -70 9 -46 18 25 10 43 39 30 51 -3 3 -20 6 -39 6 -31 0 -33 2 -33 33 0
19 -3 36 -6 39 -10 10 -44 -4 -44 -18 0 -8 -5 -14 -11 -14 -6 0 -9 7 -5 15 6
18 -22 35 -58 35 -21 0 -25 5 -28 38 -3 35 -5 37 -38 37 -33 0 -35 2 -40 40
-4 32 -9 41 -27 43 -13 2 -24 11 -24 20 -1 15 -2 15 -6 0 -7 -28 -20 -21 -21
12 -1 43 -8 50 -52 50 -38 0 -39 1 -30 25 5 14 7 25 4 25 -4 0 -1 6 5 13 9 11
2 14 -36 16 -26 1 -48 3 -49 4 -9 9 -8 142 1 140 63 -9 60 -11 63 40 l3 47 80
0 79 0 0 -40z m1040 20 c0 -5 -6 -10 -12 -11 -10 0 -10 -2 0 -6 18 -7 15 -23
-5 -24 -17 -1 -17 -2 0 -6 27 -7 20 -26 -22 -55 -38 -27 -39 -29 -28 -64 l11
-35 16 22 17 22 7 -24 c4 -13 9 -43 12 -66 l6 -43 -41 2 c-23 1 -41 6 -40 12
1 6 1 23 0 39 -1 25 -4 27 -43 26 -35 -1 -38 -2 -18 -8 17 -5 21 -9 12 -15
-22 -13 -13 -27 11 -16 22 11 22 11 -2 -9 -13 -12 -18 -21 -12 -21 6 0 20 -9
31 -20 l20 -20 -42 -2 c-37 -1 -39 -2 -10 -5 18 -3 32 -10 32 -18 0 -7 6 -16
13 -18 6 -3 -20 -6 -60 -6 -39 -1 -75 4 -78 9 -4 6 9 10 32 11 37 1 37 1 10
11 -15 5 -25 14 -21 19 8 13 -44 30 -80 27 -30 -3 -31 -2 -31 36 0 23 -5 41
-13 44 -9 3 -10 7 -2 17 8 9 8 15 0 20 -6 3 -8 11 -5 16 4 5 -1 9 -10 9 -9 0
-13 -5 -9 -11 3 -6 0 -15 -7 -20 -10 -6 -11 -9 -1 -9 6 0 12 -4 12 -10 0 -5
-11 -10 -25 -10 -24 0 -25 2 -25 73 0 43 5 78 12 85 9 9 9 12 0 12 -7 0 -12
11 -12 25 l0 25 200 0 c127 0 200 -4 200 -10z m468 -20 c-1 -16 -7 -30 -13
-30 -6 0 -9 -16 -7 -40 4 -38 -10 -56 -21 -27 -3 6 -6 3 -6 -7 -2 -43 -13 -2
-18 63 l-5 71 36 0 c34 0 36 -2 34 -30z m-1793 3 c13 -12 19 -13 25 -4 5 9 9
7 13 -8 6 -26 -5 -33 -38 -25 -18 4 -25 13 -25 30 0 28 3 29 25 7z m1792 -95
c-2 -13 -4 -5 -4 17 -1 22 1 32 4 23 2 -10 2 -28 0 -40z m565 -29 l3 -69 -35
0 -35 0 2 72 c1 40 2 73 2 74 1 0 14 -1 30 -4 29 -4 30 -5 33 -73z m-2455 19
c-2 -13 -4 -5 -4 17 -1 22 1 32 4 23 2 -10 2 -28 0 -40z m-27 -34 c0 -2 -13
-4 -30 -4 -16 0 -30 4 -30 8 0 5 14 7 30 4 17 -2 30 -6 30 -8z m2404 -102 c1
-30 -1 -32 -31 -32 -30 0 -33 3 -33 29 0 31 12 41 44 38 14 -2 19 -10 20 -35z
m-1621 -23 l32 -2 -35 -6 c-46 -9 -48 -8 -41 31 5 32 6 32 9 6 3 -24 8 -28 35
-29z m903 21 c-5 -45 -16 -49 -16 -7 0 21 4 37 10 37 5 0 8 -14 6 -30z m-1719
-26 c-3 -3 -12 -4 -19 -1 -8 3 -5 6 6 6 11 1 17 -2 13 -5z m2113 -57 c0 -32
-2 -33 -30 -29 -25 4 -30 9 -30 33 0 26 4 29 30 29 27 0 30 -3 30 -33z m242 2
c5 -34 -6 -43 -44 -37 -18 2 -24 10 -26 36 -3 30 -2 32 31 32 31 0 35 -3 39
-31z m-1495 -21 c-3 -7 -5 -2 -5 12 0 14 2 19 5 13 2 -7 2 -19 0 -25z m963
-34 c0 -8 -5 -12 -10 -9 -6 4 -8 11 -5 16 9 14 15 11 15 -7z m46 -62 c-11 -10
-13 3 -7 43 l6 40 3 -39 c2 -21 1 -41 -2 -44z m408 39 l1 -33 -73 0 c-40 0
-76 2 -79 5 -3 3 -2 18 1 34 6 28 7 28 78 27 l72 -1 0 -32z m-1644 -181 c0 -5
-2 -10 -4 -10 -3 0 -8 5 -11 10 -3 6 -1 10 4 10 6 0 11 -4 11 -10z"/>
<path d="M3760 4880 l0 -80 -120 0 -120 0 0 40 0 40 -40 0 -40 0 0 -40 0 -40
40 0 40 0 0 -40 0 -40 200 0 200 0 0 -40 0 -40 40 0 40 0 0 40 0 40 -40 0 -40
0 0 80 0 80 -40 0 -40 0 0 40 0 40 -40 0 -40 0 0 -80z"/>
<path d="M2400 4680 l0 -40 -40 0 -40 0 0 -40 0 -40 -40 0 -40 0 0 -40 0 -40
-40 0 -40 0 0 -80 0 -80 -40 0 -40 0 0 -40 0 -40 -40 0 -40 0 0 -80 0 -80 -40
0 -40 0 0 -120 0 -120 -40 0 -40 0 0 -80 0 -80 -40 0 -40 0 0 -80 0 -80 -40 0
-40 0 0 -80 0 -80 -40 0 -40 0 0 -120 0 -120 -40 0 -40 0 0 -80 0 -80 -40 0
-40 0 0 -200 0 -200 80 0 80 0 0 40 0 40 -40 0 -40 0 0 160 0 160 40 0 40 0 0
80 0 80 40 0 40 0 0 80 0 80 40 0 40 0 0 80 0 80 40 0 40 0 0 80 0 80 40 0 40
0 0 40 0 40 40 0 40 0 0 -80 0 -80 40 0 40 0 0 -200 0 -200 -40 0 -40 0 0 -80
0 -80 40 0 40 0 0 80 0 80 40 0 40 0 0 120 0 120 40 0 40 0 0 -40 0 -40 80 0
80 0 0 40 0 40 -80 0 -80 0 0 80 0 80 -40 0 -40 0 0 200 0 200 40 0 40 0 0
160 0 160 40 0 40 0 0 120 0 120 40 0 40 0 0 80 0 80 80 0 80 0 0 40 0 40 -80
0 -80 0 0 -40z"/>
<path d="M2720 4040 l0 -40 40 0 40 0 0 -40 0 -40 -40 0 -40 0 0 -120 0 -120
120 0 120 0 0 200 0 200 -120 0 -120 0 0 -40z"/>
<path d="M3840 4040 l0 -40 40 0 40 0 0 -40 0 -40 -40 0 -40 0 0 -120 0 -120
80 0 80 0 0 200 0 200 -80 0 -80 0 0 -40z"/>
<path d="M3367 3673 c-4 -3 -7 -21 -7 -40 0 -32 1 -33 40 -33 l40 0 0 -80 0
-80 -80 0 -80 0 0 -40 0 -40 80 0 80 0 0 40 0 40 40 0 40 0 0 -40 0 -40 40 0
40 0 0 40 0 40 -40 0 -40 0 0 80 0 80 40 0 40 0 0 40 0 40 -40 0 -40 0 0 -40
0 -40 -40 0 -40 0 0 40 c0 39 -1 40 -33 40 -19 0 -37 -3 -40 -7z"/>
<path d="M4211 2754 c0 -11 3 -14 6 -6 3 7 2 16 -1 19 -3 4 -6 -2 -5 -13z"/>
<path d="M2585 3009 c-17 -6 -17 -8 -2 -8 11 -1 17 -9 17 -23 0 -26 13 -16 15
13 2 25 -4 29 -30 18z"/>
<path d="M2534 2930 c1 -39 16 -39 16 0 0 17 -4 30 -9 30 -4 0 -8 -13 -7 -30z"/>
<path d="M2743 2925 c0 -27 2 -38 4 -22 2 15 2 37 0 50 -2 12 -4 0 -4 -28z"/>
<path d="M2742 2850 c0 -14 2 -19 5 -12 2 6 2 18 0 25 -3 6 -5 1 -5 -13z"/>
<path d="M2772 2850 c0 -14 2 -19 5 -12 2 6 2 18 0 25 -3 6 -5 1 -5 -13z"/>
<path d="M3009 2769 c-7 -22 -4 -49 6 -49 12 0 14 35 2 46 -4 4 -8 5 -8 3z"/>
<path d="M2938 2623 c7 -3 16 -2 19 1 4 3 -2 6 -13 5 -11 0 -14 -3 -6 -6z"/>
<path d="M3208 2593 c6 -2 18 -2 25 0 6 3 1 5 -13 5 -14 0 -19 -2 -12 -5z"/>
<path d="M3628 2623 c6 -2 18 -2 25 0 6 3 1 5 -13 5 -14 0 -19 -2 -12 -5z"/>
<path d="M3518 2593 c7 -3 16 -2 19 1 4 3 -2 6 -13 5 -11 0 -14 -3 -6 -6z"/>
<path d="M3862 1790 c0 -14 2 -19 5 -12 2 6 2 18 0 25 -3 6 -5 1 -5 -13z"/>
<path d="M3892 1740 c0 -14 2 -19 5 -12 2 6 2 18 0 25 -3 6 -5 1 -5 -13z"/>
<path d="M4605 1810 c3 -5 8 -10 11 -10 2 0 4 5 4 10 0 6 -5 10 -11 10 -5 0
-7 -4 -4 -10z"/>
<path d="M2675 1690 c3 -5 8 -10 11 -10 2 0 4 5 4 10 0 6 -5 10 -11 10 -5 0
-7 -4 -4 -10z"/>
<path d="M2665 1600 c-4 -6 3 -10 14 -10 25 0 27 6 6 13 -8 4 -17 2 -20 -3z"/>
<path d="M2348 1513 c-35 -5 -37 -23 -3 -23 14 0 25 -5 25 -12 0 -6 6 -3 14 7
14 19 12 37 -2 34 -4 -1 -19 -4 -34 -6z"/>
<path d="M2290 1486 c0 -15 -3 -16 -15 -6 -12 10 -15 10 -15 -4 0 -9 8 -16 19
-16 25 0 37 18 22 33 -8 8 -11 6 -11 -7z"/>
<path d="M2330 1470 c0 -5 5 -10 10 -10 6 0 10 5 10 10 0 6 -4 10 -10 10 -5 0
-10 -4 -10 -10z"/>
<path d="M2447 1384 c-4 -4 -3 -12 1 -18 7 -12 8 -16 11 -43 2 -15 4 -15 9 -3
4 8 20 15 37 15 17 0 30 5 30 10 0 6 -14 9 -31 9 -26 -1 -31 2 -27 17 5 19
-16 27 -30 13z"/>
<path d="M2612 1215 c4 -17 1 -25 -8 -25 -8 0 -14 -10 -14 -24 0 -19 4 -23 20
-19 16 4 20 14 20 49 0 26 -5 44 -11 44 -7 0 -9 -10 -7 -25z m8 -45 c0 -5 -4
-10 -10 -10 -5 0 -10 5 -10 10 0 6 5 10 10 10 6 0 10 -4 10 -10z"/>
<path d="M3158 1643 c6 -2 18 -2 25 0 6 3 1 5 -13 5 -14 0 -19 -2 -12 -5z"/>
<path d="M3323 1643 c26 -2 68 -2 95 0 26 2 4 3 -48 3 -52 0 -74 -1 -47 -3z"/>
<path d="M3388 1613 c18 -2 45 -2 60 0 15 2 0 4 -33 4 -33 0 -45 -2 -27 -4z"/>
<path d="M3458 1423 c7 -3 16 -2 19 1 4 3 -2 6 -13 5 -11 0 -14 -3 -6 -6z"/>
<path d="M3337 1383 c-12 -11 -8 -23 8 -23 8 0 15 7 15 15 0 16 -12 20 -23 8z"/>
</g>
</svg>
