<?xml version="1.0" standalone="no"?>
<!DOCTYPE svg PUBLIC "-//W3C//DTD SVG 20010904//EN"
 "http://www.w3.org/TR/2001/REC-SVG-20010904/DTD/svg10.dtd">
<svg version="1.0" xmlns="http://www.w3.org/2000/svg"
 width="640.000000pt" height="640.000000pt" viewBox="0 0 640.000000 640.000000"
 preserveAspectRatio="xMidYMid meet">
<metadata>
Created by potrace 1.16, written by Peter Selinger 2001-2019
</metadata>
<g transform="translate(0.000000,640.000000) scale(0.100000,-0.100000)"
fill="#000000" stroke="none">
<path d="M2840 5225 c0 -33 -2 -35 -35 -35 l-35 0 0 -175 0 -175 35 0 c34 0
35 -1 35 -40 0 -39 -1 -40 -35 -40 -33 0 -35 -2 -35 -35 0 -33 -2 -35 -35 -35
-33 0 -35 -2 -35 -35 0 -33 -2 -35 -35 -35 l-35 0 0 -70 0 -70 35 0 c33 0 35
-2 35 -35 0 -33 -2 -35 -35 -35 -33 0 -35 -2 -35 -35 0 -33 -2 -35 -35 -35
-33 0 -35 -2 -35 -35 0 -33 -2 -35 -35 -35 -33 0 -35 -2 -35 -35 l0 -35 -69 0
-70 0 -3 -37 -3 -38 -72 -3 -73 -3 0 -34 c0 -33 -2 -35 -35 -35 -33 0 -35 -2
-35 -35 0 -33 -2 -35 -35 -35 l-35 0 0 -105 0 -105 -35 0 c-33 0 -35 -2 -35
-35 0 -33 -2 -35 -35 -35 -33 0 -35 -2 -35 -35 0 -33 -2 -35 -35 -35 l-35 0 0
-70 c0 -74 -2 -76 -52 -71 -13 2 -18 -7 -20 -36 -3 -35 -6 -38 -35 -41 l-33
-3 0 -390 0 -389 35 0 c33 0 35 -2 35 -35 0 -33 2 -35 35 -35 33 0 35 -2 35
-35 l0 -35 215 0 215 0 0 35 c0 33 2 35 35 35 33 0 35 2 35 35 0 33 2 35 35
35 l36 0 -3 143 -3 142 -32 3 c-28 3 -32 7 -35 35 -3 28 -7 32 -35 35 l-33 3
0 105 0 104 35 0 35 0 0 70 0 70 35 0 c33 0 35 2 35 35 0 33 2 35 35 35 l35 0
0 -70 0 -70 35 0 35 0 0 -70 0 -70 35 0 35 0 0 -139 0 -140 -32 -3 -33 -3 -3
-72 -3 -73 -34 0 -35 0 0 -70 0 -70 -35 0 c-33 0 -35 -2 -35 -35 0 -33 -2 -35
-35 -35 -33 0 -35 -2 -35 -34 0 -33 -2 -35 -37 -38 -36 -3 -38 -5 -36 -35 2
-30 -1 -32 -35 -35 -35 -3 -37 -5 -36 -35 2 -30 -1 -32 -35 -35 -33 -3 -36 -6
-39 -35 -2 -18 -9 -33 -15 -34 -7 0 -37 -1 -67 -2 -55 -2 -55 -2 -60 -37 l-5
-35 -172 -3 -172 -2 -3 37 c-3 35 -5 37 -38 37 -33 1 -35 3 -38 39 -3 35 -5
37 -38 37 l-34 0 0 140 0 140 -35 0 c-33 0 -35 2 -35 35 l0 35 -105 0 -105 0
0 -35 c0 -33 -2 -35 -35 -35 l-35 0 0 -139 0 -140 32 -3 33 -3 3 -73 3 -72 34
0 c33 0 35 -2 35 -35 0 -33 2 -35 35 -35 33 0 35 -2 35 -35 0 -33 2 -35 35
-35 33 0 35 -2 35 -35 0 -33 2 -35 35 -35 33 0 35 -2 35 -35 l0 -35 250 0 250
0 0 35 0 35 70 0 70 0 0 -70 0 -70 -35 0 -35 0 0 -69 0 -70 -32 -3 c-29 -3
-34 -7 -38 -38 -4 -26 -10 -35 -25 -36 -11 -1 -26 -2 -32 -3 -9 -1 -13 -22
-13 -71 l0 -70 -35 0 -35 0 0 -70 0 -70 -35 0 -35 0 0 -105 0 -105 285 0 285
0 0 175 0 175 35 0 35 0 0 70 0 69 68 3 67 3 5 35 5 35 67 3 67 3 3 32 c3 28
7 32 35 35 28 3 32 7 35 35 3 28 7 33 38 37 31 4 35 9 38 38 3 29 6 32 38 32
32 0 34 2 34 35 0 33 2 35 35 35 33 0 35 2 35 35 l0 35 250 0 250 0 0 -35 0
-35 70 0 70 0 0 -34 c0 -33 -2 -35 -37 -38 -36 -3 -38 -4 -35 -35 3 -32 2 -33
-32 -33 l-36 0 0 -70 0 -70 30 0 29 0 3 -73 3 -72 38 -3 37 -3 0 -70 0 -69 35
0 35 0 0 -70 0 -70 35 0 35 0 0 -70 0 -70 320 0 320 0 0 70 0 70 -35 0 c-33 0
-35 2 -35 35 0 33 -2 35 -35 35 -33 0 -35 2 -35 35 l0 34 -72 3 -73 3 -3 32
c-3 28 -7 32 -35 35 -28 3 -32 7 -35 35 -3 28 -7 32 -35 35 l-32 3 0 70 0 70
32 3 c28 3 32 7 35 35 3 28 7 32 35 35 28 3 32 7 35 35 3 29 6 32 41 35 35 3
37 5 37 38 0 32 2 34 35 34 l35 0 0 140 0 140 -35 0 -34 0 -3 72 -3 73 -35 5
c-32 4 -36 8 -35 35 l0 30 108 3 107 3 0 34 0 35 70 0 70 0 0 35 c0 33 2 35
35 35 33 0 35 2 35 35 l0 35 70 0 70 0 0 35 0 35 145 0 146 0 -3 108 -3 107
-32 3 c-28 3 -32 7 -35 35 -3 28 -7 32 -35 35 -30 3 -33 6 -33 38 0 32 2 34
35 34 33 0 35 2 35 35 0 33 2 35 35 35 l35 0 0 70 0 70 35 0 c33 0 35 2 35 35
0 33 2 35 35 35 33 0 35 2 35 35 0 33 2 35 35 35 l35 0 0 68 c0 38 -2 71 -5
74 -3 2 -18 3 -34 0 -25 -3 -30 -9 -33 -36 -3 -28 -7 -31 -38 -34 l-36 -3 4
-64 c4 -64 4 -65 -22 -66 -14 -1 -32 -2 -38 -3 -7 0 -14 -18 -16 -38 -3 -36
-5 -38 -38 -38 -32 0 -34 -2 -34 -35 0 -32 -2 -35 -30 -35 l-30 0 0 70 0 70
35 0 c33 0 35 2 35 35 0 33 2 35 35 35 l35 0 0 70 0 70 35 0 35 0 0 69 c0 39
-4 72 -10 76 -5 3 -21 3 -35 -1 -24 -6 -25 -10 -25 -75 l0 -69 -35 0 c-33 0
-35 -2 -35 -35 0 -33 -2 -35 -34 -35 l-34 0 -7 -70 -7 -70 -34 0 c-32 0 -34
-2 -34 -35 0 -32 -2 -35 -30 -35 l-30 0 0 69 0 70 33 3 32 3 3 67 3 67 32 3
c28 3 33 7 37 38 4 31 8 35 35 35 l30 0 3 67 3 67 32 3 32 3 3 73 3 72 34 0
c33 0 35 2 35 35 0 33 2 35 35 35 l35 0 0 70 0 70 35 0 35 0 0 70 0 70 34 0
33 0 7 70 c7 69 8 70 37 70 27 0 29 2 29 40 l0 40 75 0 75 0 0 35 0 35 70 0
70 0 0 35 c0 34 1 35 37 35 l36 0 -6 -112 c-4 -62 -7 -141 -7 -175 l0 -63 -30
0 -30 0 0 -75 0 -75 -34 0 c-32 0 -35 -3 -38 -32 -3 -30 -6 -33 -40 -36 l-38
-3 0 -70 0 -69 -35 0 c-33 0 -35 -2 -35 -35 0 -33 -2 -35 -35 -35 -33 0 -35
-2 -35 -35 0 -33 -2 -35 -35 -35 l-35 0 0 -70 0 -70 -35 0 c-34 0 -35 -1 -35
-40 0 -39 1 -40 35 -40 33 0 35 2 35 35 0 28 4 35 20 36 11 1 26 2 33 3 6 0
14 17 17 36 4 31 9 36 40 40 30 4 34 8 35 35 0 27 3 30 38 33 l37 3 0 70 0 69
35 0 c33 0 35 2 35 35 0 33 2 35 35 35 l35 0 0 70 0 70 35 0 35 0 0 76 c0 72
1 75 23 74 49 -4 47 -12 47 210 l0 210 -70 0 -70 0 0 -35 0 -35 -70 0 -70 0 0
-35 0 -35 -75 0 -75 0 0 -35 c0 -33 -2 -35 -35 -35 -33 0 -35 -2 -35 -35 0
-33 -2 -35 -35 -35 l-35 0 0 -70 c0 -60 -3 -70 -17 -71 -10 -1 -25 -2 -33 -3
-12 -1 -16 -18 -18 -73 l-3 -73 -34 0 -35 0 0 -70 0 -70 -35 0 c-33 0 -35 -2
-35 -35 0 -33 -2 -35 -35 -35 l-35 0 0 -70 0 -70 -35 0 -35 0 -1 -52 c-2 -84
-1 -83 -39 -88 -32 -5 -35 -8 -38 -42 -3 -36 -5 -38 -38 -38 l-34 0 0 -70 0
-70 -35 0 -35 0 0 -70 0 -70 -35 0 -35 0 0 70 0 70 -105 0 -105 0 0 35 c0 33
-2 35 -35 35 l-34 0 -3 73 -3 72 -32 3 c-30 3 -33 6 -33 38 0 32 2 34 35 34
33 0 35 2 35 35 0 33 2 35 35 35 l35 0 0 70 0 70 -35 0 c-33 0 -35 2 -35 35 0
33 -2 35 -35 35 -33 0 -35 2 -35 34 0 33 -2 35 -37 38 -35 3 -38 6 -41 35 -3
28 -7 32 -35 35 -32 3 -32 3 -35 67 -3 70 6 85 46 76 22 -5 22 -4 22 105 l0
110 -35 0 c-33 0 -35 2 -35 35 0 33 2 35 35 35 33 0 35 2 35 34 0 32 -3 35
-32 38 -29 3 -33 7 -36 35 -3 28 -7 32 -35 35 l-32 3 0 140 0 140 33 3 32 3 0
139 0 139 -32 3 c-29 3 -33 7 -36 36 l-3 32 -70 0 -69 0 0 -35 c0 -33 -2 -35
-35 -35 -33 0 -35 -2 -35 -35 l0 -35 -70 0 -70 0 0 35 0 35 -180 0 -180 0 0
-35 0 -35 -70 0 -70 0 0 35 c0 33 -2 35 -35 35 -33 0 -35 2 -35 35 l0 35 -110
0 -110 0 0 -35z m140 -70 c0 -32 -2 -35 -30 -35 -28 0 -30 -3 -30 -35 0 -33 2
-35 35 -35 33 0 35 2 35 36 0 34 1 35 33 32 22 -2 31 -8 29 -17 -8 -36 7 -56
40 -56 30 0 32 -2 33 -35 1 -33 3 -35 38 -37 36 -2 37 -1 37 31 0 37 9 42 89
45 56 2 62 6 59 39 -3 27 -2 27 65 30 l67 3 0 -36 0 -35 -70 0 -70 0 0 -36 c0
-35 -1 -36 -35 -32 l-35 4 0 -44 0 -43 38 3 c35 3 37 5 37 36 l0 33 103 2 102
2 0 -32 0 -33 -70 0 -70 0 0 -35 c0 -33 -2 -35 -35 -35 -33 0 -35 -2 -35 -35
0 -29 4 -36 25 -41 38 -9 55 2 55 36 l0 30 70 0 70 0 0 35 c0 32 2 35 30 35
28 0 30 -3 30 -35 l0 -35 75 0 75 0 0 35 c0 33 2 35 35 35 l35 0 0 -66 0 -65
28 3 c20 2 27 8 27 25 0 12 3 25 8 29 4 4 7 -25 7 -64 l0 -72 -35 0 c-33 0
-35 -2 -35 -35 0 -33 2 -35 34 -35 l35 0 3 -105 3 -105 -37 0 -38 0 0 -69 0
-69 -75 -7 c-41 -4 -104 -4 -140 0 l-65 7 0 34 c0 33 -1 34 -40 34 -45 0 -44
1 -34 -87 l7 -52 66 -3 66 -3 0 -70 0 -70 -105 0 -105 0 -3 37 c-3 36 -5 38
-35 35 l-32 -2 -3 73 -3 72 -69 0 -70 0 0 -40 c0 -39 1 -40 35 -40 33 0 35 -2
35 -35 0 -33 2 -35 35 -35 33 0 35 -2 35 -35 0 -33 2 -35 35 -35 33 0 35 -2
35 -35 l0 -35 180 0 180 0 0 -35 c0 -33 -2 -35 -35 -35 -33 0 -35 -2 -35 -35
l0 -35 -137 0 c-76 0 -155 3 -175 6 -32 6 -37 10 -40 38 -3 28 -6 31 -38 32
-32 0 -34 2 -35 35 -1 32 -3 34 -39 37 -36 3 -38 5 -32 33 6 32 10 31 -139 35
-156 3 -145 1 -145 34 0 24 -5 30 -22 32 -13 0 -30 1 -38 2 -8 1 -14 4 -12 9
1 4 2 37 2 73 l0 65 33 -3 c28 -3 33 -7 37 -38 4 -31 8 -35 35 -35 28 0 30 -3
33 -38 3 -36 5 -38 35 -35 29 3 32 6 32 38 0 32 -3 35 -32 38 -30 3 -33 6 -33
38 0 32 -2 34 -35 34 l-35 0 0 175 0 175 30 0 c17 0 30 -5 31 -12 0 -7 2 -47
3 -88 1 -41 3 -99 4 -127 l2 -53 35 0 35 0 0 141 0 140 33 -3 c28 -3 32 -7 35
-35 3 -30 6 -33 38 -33 32 0 34 2 34 35 0 33 2 35 35 35 l35 0 0 -70 0 -70 75
0 75 0 0 -37 c0 -36 1 -38 32 -37 l33 1 3 71 3 71 -38 3 c-36 3 -38 5 -36 35
2 30 -1 32 -35 35 -34 3 -37 6 -40 38 l-3 35 -104 -3 -105 -3 0 35 c0 34 2 36
35 36 34 0 35 1 35 41 l0 40 -37 -3 c-36 -3 -38 -5 -35 -35 3 -30 2 -32 -35
-35 l-38 -3 0 -67 c0 -57 -3 -68 -17 -68 -9 0 -23 -3 -32 -6 -13 -5 -16 2 -16
35 0 40 -1 41 -35 41 -32 0 -35 2 -35 30 0 28 3 30 35 30 33 0 35 2 35 35 0
33 -2 35 -34 35 -33 0 -35 2 -38 38 -3 34 -5 37 -38 40 l-35 3 3 104 3 105 35
0 c32 0 34 2 34 35 0 32 2 35 30 35 28 0 30 -3 30 -35z m640 -70 c0 -32 -2
-35 -30 -35 -28 0 -30 3 -30 35 0 32 2 35 30 35 28 0 30 -3 30 -35z m360 -70
l0 -105 -70 0 -70 0 3 68 4 67 32 0 c29 0 31 2 31 37 0 37 1 38 35 38 l35 0 0
-105z m-210 -76 l0 -29 -70 0 -70 0 0 30 c0 29 1 29 63 32 34 2 65 2 70 0 4
-2 7 -16 7 -33z m-860 -278 c0 -20 -6 -30 -19 -34 -26 -6 -37 3 -43 36 -5 25
-3 27 28 27 31 0 34 -3 34 -29z m-70 -216 l0 -175 -70 0 -71 0 3 68 3 67 33 3
c29 3 32 6 32 38 0 31 -3 34 -29 34 -27 0 -29 3 -35 53 -11 92 -14 87 64 87
l70 0 0 -175z m1210 70 c0 -33 -2 -35 -35 -35 -33 0 -35 2 -35 35 0 33 2 35
35 35 33 0 35 -2 35 -35z m0 -140 c0 -33 -2 -35 -35 -35 -33 0 -35 -2 -35 -35
0 -33 -2 -35 -35 -35 -34 0 -35 1 -35 40 0 39 1 40 33 38 30 -3 32 -1 30 28
-2 29 -1 30 37 32 40 3 40 2 40 -33z m-97 18 c-7 -2 -13 -11 -13 -19 0 -8 -4
-14 -10 -14 -5 0 -10 9 -10 20 0 14 6 20 23 19 12 0 16 -3 10 -6z m97 -158 c0
-33 -2 -35 -35 -35 -33 0 -35 -2 -35 -35 0 -33 -2 -35 -36 -35 -34 0 -35 1
-32 33 2 17 9 33 16 33 6 1 21 2 32 3 15 1 20 8 20 29 0 16 3 32 7 35 3 4 19
7 35 7 25 0 28 -3 28 -35z m-212 -113 l3 -72 -71 0 -70 0 0 35 c0 33 2 35 35
35 34 0 35 1 35 39 0 37 1 38 33 37 l32 -1 3 -73z m-1278 -37 c0 -33 2 -35 35
-35 33 0 35 -2 35 -35 0 -33 -2 -35 -35 -35 -33 0 -35 -2 -35 -35 0 -33 2 -35
35 -35 33 0 35 -2 35 -35 0 -33 -2 -35 -35 -35 -33 0 -35 2 -35 35 l0 34 -102
3 -103 3 -5 35 c-4 31 -9 35 -37 38 -29 3 -33 7 -33 33 0 27 3 29 35 29 33 0
35 2 35 35 l0 35 105 0 105 0 0 -35z m140 -141 c0 -34 -1 -35 -32 -32 -54 5
-53 68 2 68 28 0 30 -3 30 -36z m1420 1 c0 -33 2 -35 35 -35 l35 0 0 -70 0
-70 -30 0 c-30 0 -35 8 -31 53 2 14 -6 17 -38 17 -40 0 -41 -1 -41 -35 0 -32
-3 -35 -29 -35 -24 0 -29 5 -33 30 -5 36 -3 40 34 40 26 0 28 3 28 38 0 35 -2
38 -27 37 -24 0 -28 4 -31 33 l-3 32 65 0 66 0 0 -35z m-1770 -69 c0 -32 3
-35 33 -38 28 -3 32 -7 35 -35 3 -28 7 -32 35 -35 28 -3 32 -7 32 -33 0 -27
-4 -30 -32 -33 -32 -3 -33 -2 -33 32 0 35 -1 36 -40 36 -39 0 -40 1 -40 35 0
31 -3 35 -25 35 -21 0 -25 -5 -27 -32 l-1 -33 -4 32 c-4 29 -8 32 -41 35 -34
3 -37 6 -40 36 l-3 32 75 0 76 0 0 -34z m1770 -141 c0 -33 -2 -35 -33 -35 -28
0 -33 4 -35 26 -3 36 4 44 39 44 27 0 29 -3 29 -35z m140 0 c0 -32 -2 -35 -30
-35 -28 0 -30 3 -30 35 0 32 2 35 30 35 28 0 30 -3 30 -35z m-1990 -70 c0 -32
-2 -35 -30 -35 -28 0 -30 3 -30 35 0 32 2 35 30 35 28 0 30 -3 30 -35z m1920
0 c0 -32 -2 -35 -30 -35 -28 0 -30 3 -30 35 0 32 2 35 30 35 28 0 30 -3 30
-35z m-2130 -10 c0 -33 2 -35 35 -35 33 0 35 -2 35 -35 l0 -35 70 0 70 0 0
-34 c0 -33 2 -35 38 -38 33 -3 37 -6 38 -30 1 -28 1 -28 -67 -28 l-69 0 0 35
0 35 -108 0 -107 0 0 33 c0 30 -2 32 -37 35 -34 3 -38 6 -38 32 0 26 4 29 38
32 35 3 37 5 37 36 0 30 2 32 32 32 31 0 33 -2 33 -35z m288 -63 c3 -31 2 -32
-32 -32 -33 0 -36 2 -36 29 0 23 5 31 23 34 35 7 42 2 45 -31z m66 -73 c0 -19
-4 -33 -7 -31 -4 1 -18 2 -32 2 -21 0 -25 5 -25 29 0 31 12 41 45 36 16 -1 20
-9 19 -36z m606 21 c0 -5 -19 -10 -42 -11 -36 -1 -39 -2 -18 -9 25 -7 25 -7 3
-16 -12 -5 -22 -13 -22 -19 -1 -5 -4 -11 -8 -12 -5 -2 -9 15 -11 37 l-2 40 50
0 c27 0 50 -4 50 -10z m1170 -20 c0 -27 -3 -30 -30 -30 -27 0 -30 3 -30 30 0
27 3 30 30 30 27 0 30 -3 30 -30z m-2200 -75 l0 -35 73 0 73 0 -4 -35 -4 -36
-67 3 -66 3 -3 32 c-3 31 -4 31 -73 38 -68 7 -69 7 -69 36 l0 29 70 0 70 0 0
-35z m1130 -6 c0 -27 3 -29 38 -29 l37 -1 -39 -18 c-25 -12 -34 -20 -25 -24 8
-3 -1 -6 -18 -6 -32 -1 -33 -3 -33 -41 0 -33 -3 -40 -20 -40 -17 0 -20 7 -20
40 0 22 -4 40 -10 40 -5 0 -10 9 -10 20 0 11 -4 20 -10 20 -5 0 -10 9 -10 20
0 25 37 27 43 3 2 -10 3 -8 2 5 -1 12 2 25 6 28 5 3 9 0 9 -5 0 -6 5 -11 10
-11 6 0 10 6 10 14 0 15 20 26 33 19 4 -2 7 -17 7 -34z m1000 11 c0 -28 -3
-30 -37 -31 -100 -4 -96 -5 -97 29 l-1 32 68 0 67 0 0 -30z m-1246 -19 c2 -17
-1 -34 -6 -37 -5 -3 -6 -14 -3 -25 4 -10 2 -19 -3 -19 -8 0 -10 63 -3 114 2
18 11 -1 15 -33z m-1034 -51 c0 -27 -3 -30 -30 -30 -25 0 -30 4 -30 23 0 30 7
37 37 37 19 0 23 -5 23 -30z m2420 0 l0 -30 -65 0 -65 0 0 30 0 30 65 0 65 0
0 -30z m-1340 0 c0 -22 6 -24 63 -21 36 3 37 2 37 -31 0 -26 -25 -94 -48 -128
-2 -3 -10 4 -18 14 -12 17 -14 18 -14 3 0 -9 -5 -17 -11 -17 -6 0 -10 25 -8
68 3 93 2 94 -21 87 -16 -5 -20 -2 -20 19 0 19 5 26 20 26 13 0 20 -7 20 -20z
m835 -10 c3 -5 1 -10 -4 -10 -6 0 -11 5 -11 10 0 6 2 10 4 10 3 0 8 -4 11 -10z
m-495 -26 c0 -10 10 -13 32 -12 18 2 33 -2 35 -9 3 -8 -6 -13 -24 -14 -15 0
-22 -3 -15 -6 6 -2 12 -13 12 -24 0 -11 6 -19 13 -18 6 1 28 1 47 -1 28 -1 31
-3 15 -9 -11 -5 -28 -4 -37 1 -17 8 -22 4 -19 -15 1 -4 -8 -3 -19 3 -18 9 -20
8 -20 -15 0 -14 -4 -25 -10 -25 -5 0 -10 -4 -10 -10 0 -5 16 -10 35 -10 19 0
35 5 35 10 0 6 7 10 16 10 8 0 12 5 9 10 -4 6 -10 8 -14 6 -4 -3 -8 1 -8 8 0
10 7 11 29 2 20 -7 28 -17 28 -34 0 -13 -4 -21 -9 -18 -5 3 -11 -6 -14 -19 -2
-14 -1 -28 4 -31 5 -2 5 -15 0 -27 -9 -25 -4 -50 10 -41 5 3 10 -1 11 -8 1 -7
5 25 8 72 5 74 6 66 7 -60 0 -80 -3 -131 -6 -115 -4 17 -6 38 -5 48 3 15 0 17
-11 7 -27 -23 -38 -1 -31 66 4 41 3 64 -4 64 -5 0 -10 -5 -10 -11 0 -5 -4 -8
-9 -4 -6 3 -9 -6 -8 -21 2 -23 -2 -27 -33 -29 -19 -2 -29 -1 -21 2 11 5 11 7
0 15 -10 6 -7 7 9 3 33 -9 28 15 -7 28 -29 10 -60 47 -41 47 5 0 10 9 10 21 0
19 -5 20 -72 16 -40 -2 -67 -2 -60 1 7 2 12 21 12 43 0 32 4 39 19 39 10 0 21
7 25 15 3 8 11 15 18 15 7 0 21 14 30 30 17 30 48 33 48 4z m-1062 -36 c-2
-28 -8 -34 -30 -36 -26 -3 -28 -1 -28 32 0 33 2 36 31 36 28 0 30 -2 27 -32z
m1496 19 c3 3 6 1 6 -4 0 -6 -3 -13 -7 -16 -5 -2 -2 -2 6 0 7 2 20 -2 27 -8 7
-6 18 -8 24 -4 5 3 10 1 10 -4 0 -6 -16 -11 -35 -11 -31 0 -35 -3 -35 -25 0
-17 -4 -23 -14 -19 -8 3 -12 12 -9 20 3 8 2 14 -1 14 -4 0 -11 -10 -16 -22 -8
-22 -9 -21 -10 7 -1 17 -3 39 -5 50 -5 24 13 37 36 25 9 -5 19 -6 23 -3z m424
-19 l-3 -33 -65 0 -65 0 -3 33 -3 32 71 0 71 0 -3 -32z m-788 -18 c0 -5 -5
-10 -11 -10 -5 0 -7 5 -4 10 3 6 8 10 11 10 2 0 4 -4 4 -10z m870 -55 c0 -33
-2 -35 -35 -35 -33 0 -35 2 -35 35 0 33 2 35 35 35 33 0 35 -2 35 -35z m280
-35 l0 -70 35 0 c33 0 35 -2 35 -35 0 -33 -2 -35 -35 -35 -33 0 -35 2 -35 35
0 33 -2 35 -35 35 l-35 0 0 70 0 70 35 0 35 0 0 -70z m-913 13 c-3 -10 -5 -2
-5 17 0 19 2 27 5 18 2 -10 2 -26 0 -35z m16 -30 c-18 -6 -16 -23 2 -23 8 0
15 5 15 11 0 5 5 7 10 4 14 -8 3 -24 -24 -35 -16 -7 -17 -9 -4 -9 9 -1 20 4
23 9 3 6 11 10 16 10 6 0 7 -6 3 -12 -5 -7 -7 -27 -5 -44 2 -28 -1 -31 -24
-31 -18 0 -25 4 -21 13 4 10 -4 14 -29 14 -24 0 -35 5 -38 18 -3 9 -5 -18 -6
-60 -1 -79 4 -108 21 -108 5 0 6 5 3 10 -3 6 -1 10 5 10 6 0 8 5 5 10 -12 20
11 10 25 -11 8 -12 24 -25 35 -29 13 -6 -1 -8 -42 -7 l-61 2 -1 135 -2 135 53
-4 c29 -2 47 -6 41 -8z m257 -18 c0 -33 2 -35 35 -35 l35 0 0 -70 0 -70 34 0
c33 0 35 -2 38 -37 3 -36 5 -38 35 -35 30 3 32 2 35 -35 3 -35 6 -38 35 -41
28 -3 32 -7 35 -35 3 -29 6 -32 41 -35 l38 -3 -3 -67 -3 -67 -37 -3 -38 -3 0
-70 0 -69 -70 0 -70 0 0 35 c0 33 -2 35 -35 35 -33 0 -35 2 -35 35 0 33 -2 35
-35 35 -33 0 -35 2 -35 35 0 33 -2 35 -35 35 -33 0 -35 2 -35 35 0 33 -2 35
-35 35 l-35 0 0 145 0 145 35 0 35 0 0 70 0 70 35 0 c33 0 35 -2 35 -35z m280
0 c0 -32 -2 -35 -30 -35 -28 0 -30 3 -30 35 0 32 2 35 30 35 28 0 30 -3 30
-35z m570 -35 l0 -70 -30 0 -30 0 0 70 0 70 30 0 30 0 0 -70z m-1515 40 c48
-18 16 -37 -61 -34 l-66 2 4 -56 c3 -53 1 -56 -22 -63 -17 -5 -19 -7 -7 -8 10
-1 16 -5 13 -10 -4 -5 -14 -8 -24 -6 -12 2 -17 11 -16 34 1 17 -3 32 -10 32
-6 1 -15 2 -21 4 -5 1 -18 3 -27 3 -11 1 -18 10 -18 23 0 11 5 17 10 14 6 -3
10 -1 10 4 0 22 20 10 21 -11 0 -13 3 -17 6 -10 2 6 13 12 24 12 10 0 19 5 19
10 0 6 7 10 15 10 15 0 19 11 16 38 -2 10 6 12 28 7 19 -4 31 -3 31 4 0 6 7 8
15 5 8 -4 15 -1 15 6 0 6 4 9 9 6 4 -3 21 -10 36 -16z m-1047 -77 l3 -33 -105
0 -106 0 0 35 0 36 103 -3 102 -3 3 -32z m2702 -33 l0 -70 -30 0 -30 0 0 70 0
70 30 0 30 0 0 -70z m-1285 10 c3 -5 1 -10 -4 -10 -6 0 -11 5 -11 10 0 6 2 10
4 10 3 0 8 -4 11 -10z m-1627 -47 c3 -32 2 -33 -32 -33 -35 0 -36 1 -36 36 0
34 1 35 33 32 28 -3 32 -7 35 -35z m2702 2 c0 -33 -2 -35 -35 -35 -32 0 -35 3
-35 28 0 16 3 32 7 35 3 4 19 7 35 7 25 0 28 -3 28 -35z m-1520 8 c0 -10 -4
-14 -8 -8 -4 6 -11 13 -16 18 -5 4 -2 7 7 7 10 0 17 -8 17 -17z m-223 1 c-3
-3 -12 -4 -19 -1 -8 3 -5 6 6 6 11 1 17 -2 13 -5z m0 -20 c-3 -3 -12 -4 -19
-1 -8 3 -5 6 6 6 11 1 17 -2 13 -5z m323 -14 c0 -14 7 -20 22 -20 12 0 18 -3
15 -7 -4 -3 -2 -12 4 -20 15 -17 -12 -18 -29 -1 -9 9 -12 7 -12 -10 0 -21 -5
-22 -70 -22 -40 0 -70 4 -70 10 0 6 4 10 9 10 5 0 8 12 6 27 -3 26 -2 26 12 8
11 -14 17 -16 20 -8 3 8 14 11 29 7 19 -5 24 -2 24 13 0 23 8 33 27 33 7 0 13
-9 13 -20z m-1360 -51 c0 -27 -3 -30 -27 -27 -23 2 -28 8 -29 31 -1 23 3 27
27 27 26 0 29 -4 29 -31z m430 -4 c0 -33 2 -35 35 -35 l35 0 0 -68 0 -68 -30
0 c-28 0 -30 2 -30 38 0 39 0 39 -37 36 l-38 -3 -3 -107 -3 -108 36 0 c33 0
35 -2 35 -35 l0 -36 -67 3 -67 3 -1 34 c0 33 -2 35 -35 35 -32 1 -35 4 -40 36
-5 32 -8 35 -37 36 -32 0 -33 -2 -33 -38 0 -37 -1 -38 -35 -38 -33 0 -35 -2
-35 -35 0 -33 -2 -35 -35 -35 -33 0 -35 2 -35 35 0 33 2 35 35 35 33 0 35 2
35 35 0 32 -2 35 -30 35 -42 0 -45 -2 -42 -31 3 -21 -2 -27 -20 -31 -45 -8
-48 -2 -48 103 l0 99 35 0 c33 0 35 2 35 35 0 33 2 35 35 35 33 0 35 2 35 35
l0 35 175 0 175 0 0 -35z m710 5 c0 -27 -3 -30 -30 -30 -19 0 -30 5 -30 14 0
30 13 46 36 46 20 0 24 -5 24 -30z m1500 -34 l0 -65 -37 -3 c-36 -3 -38 -5
-38 -35 0 -31 -2 -33 -32 -33 l-33 0 0 100 0 100 70 0 70 0 0 -64z m210 36 c0
-37 -4 -39 -40 -34 -25 4 -30 9 -30 33 0 26 3 29 35 29 32 0 35 -3 35 -28z
m72 -71 c-3 -22 -11 -30 -30 -34 -35 -7 -45 4 -36 37 5 21 12 26 38 26 30 0
32 -2 28 -29z m-1489 -28 c-13 -2 -35 -2 -50 0 -16 2 -5 4 22 4 28 0 40 -2 28
-4z m1277 -48 c0 -33 2 -35 35 -35 l35 0 -1 -52 c-1 -29 -3 -45 -6 -35 -4 17
-15 19 -98 22 l-30 1 -1 67 -2 67 34 0 c32 0 34 -2 34 -35z m281 3 c-5 -25
-12 -31 -34 -32 -24 -2 -27 2 -27 31 0 31 2 33 34 33 32 0 33 -1 27 -32z m74
-70 c-2 -30 -5 -33 -36 -33 -30 0 -33 3 -34 30 0 25 5 31 30 36 40 7 43 5 40
-33z m-1490 0 l-2 -33 -63 -3 c-81 -4 -88 -1 -82 37 l4 31 73 0 73 0 -3 -32z
m266 -48 c5 0 9 -10 9 -21 0 -17 -3 -19 -14 -10 -11 9 -15 6 -18 -19 -4 -24
-2 -27 9 -19 10 9 13 6 13 -15 0 -17 5 -26 16 -26 23 0 55 20 49 31 -4 5 -1 9
4 9 6 0 11 -16 11 -36 0 -34 1 -35 32 -32 19 2 33 -2 35 -9 3 -8 -5 -13 -21
-13 -15 0 -25 -5 -23 -12 1 -7 -4 -12 -10 -10 -7 1 -13 -7 -13 -18 0 -13 -7
-20 -20 -20 -13 0 -20 -7 -20 -20 0 -13 -7 -20 -20 -20 -11 0 -20 -6 -20 -14
0 -8 -6 -17 -12 -20 -10 -5 -10 -7 0 -12 6 -3 12 -12 12 -20 0 -9 4 -13 9 -10
5 3 15 -2 22 -11 12 -14 12 -17 0 -21 -11 -4 -11 -6 0 -13 11 -7 10 -9 -3 -9
-10 0 -18 -4 -18 -10 0 -5 -10 -10 -22 -10 -21 1 -22 2 -5 14 23 17 22 26 -4
26 -11 0 -17 -4 -14 -10 3 -5 1 -10 -4 -10 -6 0 -11 5 -11 10 0 6 -7 10 -15
10 -8 0 -15 7 -15 15 0 8 -11 26 -25 39 -20 20 -24 30 -16 44 6 10 7 28 4 40
-4 18 -1 22 16 22 14 0 21 -6 21 -20 0 -13 7 -20 20 -20 14 0 20 -7 21 -22 1
-22 1 -22 9 2 4 14 8 19 9 12 1 -7 6 -10 11 -7 6 4 10 33 9 66 -2 46 -5 59
-18 60 -13 1 -12 2 2 6 10 3 16 10 14 16 -5 15 -57 29 -57 15 0 -6 -6 -8 -14
-5 -7 3 -18 1 -23 -4 -6 -6 -14 -4 -23 6 -10 13 -9 15 6 16 18 0 18 1 -1 9
-23 10 -21 11 25 15 19 2 38 3 43 4 4 1 5 12 1 25 -7 30 3 49 23 42 8 -3 19
-6 24 -6z m799 -24 c0 -32 3 -35 33 -38 28 -3 32 -7 35 -36 l3 -33 -68 3 -68
3 -5 35 c-4 31 -8 35 -35 35 -27 0 -30 4 -33 33 l-3 32 70 0 71 0 0 -34z m95
-16 c3 -5 1 -10 -4 -10 -6 0 -11 5 -11 10 0 6 2 10 4 10 3 0 8 -4 11 -10z
m-2515 -54 c0 -32 -2 -34 -35 -34 -31 0 -35 3 -35 27 0 35 6 41 42 41 25 0 28
-3 28 -34z m675 24 c3 -6 -1 -17 -9 -26 -15 -14 -16 -13 -16 10 0 26 13 35 25
16z m190 0 c18 -7 16 -9 -12 -15 -43 -10 -42 -25 1 -25 19 0 38 -4 41 -10 4
-6 -10 -10 -34 -10 -49 0 -53 -17 -16 -55 29 -28 78 -35 69 -10 -5 11 1 15 25
15 31 0 42 -14 19 -23 -8 -3 -6 -6 5 -6 13 -1 17 -10 17 -41 0 -35 -3 -40 -22
-41 l-23 0 23 -11 c22 -11 30 -28 12 -28 -5 0 -10 -4 -10 -10 0 -5 9 -10 20
-10 11 0 20 5 20 11 0 6 12 9 28 7 24 -3 27 -7 27 -38 0 -32 -3 -35 -30 -38
-27 -2 -28 -1 -13 11 16 13 16 15 -6 26 -25 14 -80 7 -103 -11 -9 -7 -13 -7
-13 1 0 6 -7 11 -15 11 -8 0 -15 -6 -15 -14 0 -8 -5 -18 -12 -22 -6 -4 -8 -3
-5 2 3 6 2 16 -3 23 -6 10 -9 8 -15 -8 -3 -11 -11 -21 -16 -21 -5 0 -13 -8
-16 -17 -11 -29 -55 -73 -72 -72 -13 1 -13 2 2 6 24 6 22 33 -3 33 -13 0 -20
-7 -20 -19 0 -13 -6 -18 -17 -17 -15 2 -18 16 -21 84 l-3 82 -39 0 c-33 0 -40
3 -40 20 0 14 -7 20 -22 21 l-23 2 23 4 c12 2 22 10 21 16 -3 29 2 57 11 57 6
0 10 -11 10 -24 0 -20 4 -23 21 -19 25 7 39 -11 39 -49 0 -26 3 -28 41 -28 65
0 79 13 79 70 0 39 -3 50 -16 50 -9 0 -34 14 -56 32 -32 25 -42 28 -49 17 -7
-11 -9 -10 -9 4 0 10 8 20 18 23 9 3 24 8 32 12 8 3 18 4 23 4 4 -1 7 2 7 8 0
5 15 14 33 19 22 6 26 10 12 11 -17 2 -16 3 5 10 33 11 60 11 85 0z m52 -52
c-3 -7 -5 -2 -5 12 0 14 2 19 5 13 2 -7 2 -19 0 -25z m1300 10 c-3 -8 -6 -5
-6 6 -1 11 2 17 5 13 3 -3 4 -12 1 -19z m-761 3 c-4 -5 -2 -20 3 -33 6 -12 10
-17 10 -10 1 6 6 12 11 12 6 0 9 -13 8 -29 -2 -25 -6 -29 -28 -26 -33 4 -55
-9 -47 -29 3 -8 2 -18 -3 -21 -6 -4 -10 1 -10 10 0 9 -5 13 -11 10 -6 -4 -9
-1 -8 6 1 8 -3 27 -9 42 -15 36 -8 47 29 47 19 0 29 5 29 15 0 8 7 15 16 15 8
0 13 -4 10 -9z m-371 -55 c12 -15 13 -15 18 4 3 11 10 20 15 20 16 0 26 -41
12 -50 -15 -9 -50 -1 -50 12 0 5 -8 4 -19 -2 -30 -16 -81 -13 -81 5 0 8 -7 15
-16 15 -13 0 -14 3 -5 13 15 19 110 6 126 -17z m1218 -29 c-8 -15 -23 5 -23
31 l0 27 14 -25 c7 -14 11 -28 9 -33z m42 13 c3 -5 1 -10 -4 -10 -6 0 -11 5
-11 10 0 6 2 10 4 10 3 0 8 -4 11 -10z m-1109 -45 c-8 -23 27 -37 51 -20 20
14 47 15 60 1 4 -4 4 -7 -2 -6 -5 1 -19 1 -30 0 -11 -2 5 -7 35 -11 l55 -7
-65 2 -65 1 3 -32 c2 -17 -1 -34 -7 -38 -6 -3 -11 1 -11 9 0 9 -8 16 -17 15
-11 0 -13 -3 -5 -6 24 -10 11 -20 -25 -20 -21 0 -28 2 -15 4 14 3 22 12 22 24
0 16 4 19 21 14 15 -5 19 -4 15 4 -4 6 -13 11 -21 11 -7 0 -15 5 -17 12 -7 19
3 58 14 58 6 0 8 -7 4 -15z m613 -27 c2 -49 -7 -46 -19 6 -6 26 -4 36 4 36 7
0 13 -17 15 -42z m-40 13 c8 -15 7 -20 -5 -25 -22 -8 -21 -9 -21 19 0 30 12
33 26 6z m-602 -55 c-14 -11 -15 -15 -5 -19 8 -4 7 -6 -4 -6 -10 -1 -18 4 -18
9 0 6 -7 10 -15 10 -33 0 -12 17 23 18 33 1 35 0 19 -12z m235 -11 c3 -14 1
-25 -3 -25 -5 0 -9 11 -9 25 0 14 2 25 4 25 2 0 6 -11 8 -25z m452 10 c-4 -8
-14 -15 -23 -14 -12 0 -12 2 -2 6 11 5 11 7 0 14 -10 6 -8 9 8 9 16 0 21 -4
17 -15z m-79 -5 c3 -5 -1 -10 -9 -10 -36 0 -13 -19 27 -23 l42 -4 -47 -1 c-45
-2 -48 0 -48 23 0 25 23 35 35 15z m-85 -10 c0 -5 -2 -10 -4 -10 -3 0 -8 5
-11 10 -3 6 -1 10 4 10 6 0 11 -4 11 -10z m-633 -26 c-3 -3 -12 -4 -19 -1 -8
3 -5 6 6 6 11 1 17 -2 13 -5z m583 -10 c0 -14 -3 -14 -15 -4 -8 7 -15 14 -15
16 0 2 7 4 15 4 8 0 15 -7 15 -16z m-2320 -69 l0 -65 -35 0 c-33 0 -35 -2 -35
-35 0 -33 -2 -35 -35 -35 l-35 0 2 65 3 64 35 3 c33 3 35 5 32 36 -3 31 -2 32
32 32 l36 0 0 -65z m2049 42 c11 -16 10 -17 -8 -8 -24 13 -101 14 -101 2 0 -5
6 -12 13 -14 9 -4 8 -8 -3 -16 -11 -8 -5 -9 23 -4 30 5 41 2 56 -16 12 -13 30
-21 50 -21 18 0 30 -4 26 -9 -3 -5 5 -12 17 -14 13 -2 4 -5 -19 -6 -36 -1 -43
-4 -43 -21 0 -19 -36 -47 -47 -36 -3 3 2 8 11 12 9 3 14 10 11 14 -3 5 -1 11
4 15 12 7 3 35 -11 35 -5 0 -6 -4 -3 -10 8 -13 1 -13 -40 4 -50 21 -62 35 -57
70 6 39 14 44 67 42 30 0 47 -6 54 -19z m51 -7 c0 -5 -5 -10 -11 -10 -5 0 -7
5 -4 10 3 6 8 10 11 10 2 0 4 -4 4 -10z m228 -27 c-10 -2 -26 -2 -35 0 -10 3
-2 5 17 5 19 0 27 -2 18 -5z m-1238 -40 c0 -19 -13 -9 -16 12 -1 8 2 13 7 9 5
-3 9 -12 9 -21z m54 21 c21 -8 20 -20 0 -28 -17 -6 -44 9 -44 25 0 10 21 12
44 3z m1416 -24 c0 -28 -3 -30 -35 -30 -33 0 -35 -2 -35 -35 0 -33 -2 -35 -35
-35 -34 0 -35 -1 -35 -40 0 -39 1 -40 35 -40 19 0 36 5 36 10 1 6 2 20 3 33 1
20 7 22 71 27 l70 5 3 33 c3 28 7 32 33 32 27 0 29 -3 29 -35 0 -33 2 -35 35
-35 l35 0 0 -105 0 -105 -35 0 c-33 0 -35 -2 -35 -35 l0 -36 -102 3 -103 3 -3
68 -3 67 -34 0 c-33 0 -35 2 -35 35 0 33 -2 35 -35 35 l-35 0 0 70 0 70 35 0
c33 0 35 2 35 35 l0 35 70 0 70 0 0 -30z m-1080 10 c0 -5 -2 -10 -4 -10 -3 0
-8 5 -11 10 -3 6 -1 10 4 10 6 0 11 -4 11 -10z m-277 -26 c-6 -15 -29 -19 -37
-5 -7 11 -1 16 23 18 13 1 18 -3 14 -13z m57 6 c0 -5 -7 -10 -15 -10 -19 0
-19 -9 1 -31 17 -19 12 -39 -11 -39 -16 0 -23 17 -19 50 1 14 3 28 3 33 1 11
41 8 41 -3z m-137 -17 c-7 -2 -19 -2 -25 0 -7 3 -2 5 12 5 14 0 19 -2 13 -5z
m-983 -117 l0 -104 -65 1 -65 1 -1 41 c-1 22 -2 52 -3 68 -2 25 1 27 36 27 37
0 38 1 38 35 0 32 2 35 30 35 l30 0 0 -104z m1353 93 c23 12 68 8 66 -7 -4
-23 2 -62 9 -61 21 3 52 -16 52 -32 0 -17 -8 -19 -82 -18 -46 1 -73 4 -61 6
27 5 36 28 17 43 -8 7 -14 9 -14 5 0 -4 -6 -2 -14 4 -8 7 -13 21 -11 32 2 10
-1 19 -6 19 -6 0 -7 5 -3 11 4 8 9 7 15 -2 6 -11 12 -11 32 0z m337 1 c0 -5
-12 -10 -26 -10 -14 0 -23 -3 -21 -7 3 -5 1 -17 -4 -28 l-8 -20 0 20 c-1 17
-3 17 -11 5 -6 -10 -10 -11 -10 -2 0 6 -8 13 -17 13 -10 1 -4 5 12 9 30 8 30
8 -7 9 -24 1 -38 -4 -38 -11 0 -7 -5 -5 -12 4 -7 9 -22 18 -33 20 -11 2 24 5
78 6 60 2 97 -1 97 -8z m30 -30 c0 -5 -9 -10 -19 -10 -11 0 -23 5 -26 10 -4 6
5 10 19 10 14 0 26 -4 26 -10z m-475 -10 c-3 -5 -11 -10 -16 -10 -6 0 -7 5 -4
10 3 6 11 10 16 10 6 0 7 -4 4 -10z m514 -39 c0 -10 -2 -11 -6 -3 -2 6 -12 12
-20 12 -13 0 -13 -3 -3 -15 10 -13 9 -15 -11 -15 -19 0 -21 -2 -9 -10 11 -7 6
-10 -22 -10 -26 0 -40 6 -47 19 -14 25 -5 31 41 31 21 0 38 4 38 9 0 5 9 7 20
4 11 -3 20 -13 19 -22z m-449 -14 c0 -5 -4 -5 -10 -2 -5 3 -10 14 -10 23 0 15
2 15 10 2 5 -8 10 -19 10 -23z m465 -17 c-3 -5 -16 -10 -28 -9 -20 1 -20 2 3
9 14 4 26 8 28 9 2 1 0 -3 -3 -9z m-237 -7 c-10 -2 -26 -2 -35 0 -10 3 -2 5
17 5 19 0 27 -2 18 -5z m80 0 c-10 -2 -26 -2 -35 0 -10 3 -2 5 17 5 19 0 27
-2 18 -5z m-1401 -79 l-2 -66 -67 -4 -68 -4 0 70 0 70 70 0 70 0 -3 -66z m853
31 c0 -33 2 -35 35 -35 33 0 35 -2 35 -35 0 -33 2 -35 35 -35 33 0 35 -2 35
-35 0 -33 -2 -35 -35 -35 -33 0 -35 -2 -35 -35 l0 -35 -175 0 -175 0 0 35 c0
33 -2 35 -35 35 l-35 0 0 70 0 70 30 0 c28 0 30 -3 30 -35 l0 -35 110 0 110 0
0 35 0 35 -70 0 -70 0 0 35 0 35 105 0 105 0 0 -35z m-430 -70 c0 -33 -2 -35
-35 -35 -33 0 -35 2 -35 35 0 33 2 35 35 35 33 0 35 -2 35 -35z m2 -428 c3
-28 7 -32 36 -35 26 -3 32 -7 32 -28 0 -36 -2 -39 -35 -39 -27 0 -30 -3 -33
-37 -3 -37 -3 -38 32 -38 l36 0 0 -105 0 -105 -30 0 c-28 0 -30 3 -31 38 -4
103 -1 97 -42 100 l-37 3 0 -70 0 -71 -70 0 -70 0 0 76 c0 65 -2 75 -16 70 -9
-3 -24 -6 -35 -6 -17 0 -19 -8 -19 -70 l0 -70 -35 0 -35 0 0 70 0 70 35 0 c33
0 35 2 35 34 0 33 2 35 38 38 35 3 37 4 34 36 l-4 32 77 0 76 0 -3 38 c-3 35
-5 37 -39 40 -32 3 -37 6 -37 30 0 15 2 29 3 32 2 3 32 4 68 2 66 -4 66 -4 69
-35z m1638 3 c0 -29 -1 -30 -47 -30 -27 0 -58 -3 -70 -6 -21 -6 -23 -3 -23 30
l0 36 70 0 70 0 0 -30z m140 -74 c0 -33 -1 -34 -35 -29 l-35 5 0 -41 0 -41 70
0 70 0 0 -35 0 -35 68 0 c38 0 71 -2 73 -4 2 -2 2 -34 1 -70 -4 -65 -4 -66
-33 -66 -26 0 -29 3 -29 35 0 34 -1 35 -40 35 -39 0 -40 -1 -40 -35 l0 -35
-105 0 -105 0 0 35 c0 33 -2 35 -35 35 l-35 0 0 105 0 105 35 0 c33 0 35 2 35
35 l0 35 70 0 70 0 0 -34z m360 -281 c0 -33 -2 -35 -35 -35 -33 0 -35 2 -35
35 0 33 2 35 35 35 33 0 35 -2 35 -35z"/>
<path d="M2990 5016 c0 -35 1 -36 36 -36 34 0 35 1 32 33 -3 28 -7 32 -35 35
-32 3 -33 2 -33 -32z"/>
<path d="M2990 4868 c0 -38 1 -39 33 -36 29 3 32 6 35 40 3 35 2 36 -32 36
-35 0 -36 -1 -36 -40z"/>
<path d="M3480 4730 l0 -40 40 0 40 0 0 40 0 40 -40 0 -40 0 0 -40z"/>
<path d="M3697 4763 c-2 -5 -3 -21 -2 -38 1 -27 5 -30 38 -33 l37 -3 0 40 c0
40 -1 41 -34 41 -19 0 -37 -3 -39 -7z"/>
<path d="M3490 4588 c0 -37 1 -38 36 -38 35 0 35 1 32 37 -3 34 -6 37 -35 38
-32 1 -33 0 -33 -37z"/>
<path d="M3629 4625 c-1 0 -3 -17 -4 -37 l-4 -38 41 0 c40 0 40 0 36 -35 -4
-35 -4 -35 34 -35 37 0 38 -1 38 -35 0 -33 2 -35 35 -35 l35 0 0 105 0 105
-38 0 c-35 0 -37 -2 -37 -32 0 -30 -3 -33 -32 -36 -32 -3 -33 -2 -33 36 0 38
-1 39 -35 38 -19 -1 -35 -1 -36 -1z"/>
<path d="M3129 4475 c-1 -3 -1 -14 -1 -25 0 -42 2 -47 25 -45 12 1 28 3 35 4
7 0 12 15 12 36 0 33 -2 35 -35 35 -19 0 -35 -2 -36 -5z"/>
<path d="M3200 4375 c0 -34 1 -35 38 -35 36 0 37 1 37 35 0 34 -1 35 -37 35
-37 0 -38 -1 -38 -35z"/>
<path d="M3060 4305 c0 -33 2 -35 35 -35 33 0 35 2 35 35 0 33 -2 35 -35 35
-33 0 -35 -2 -35 -35z"/>
<path d="M1802 3394 c9 -3 19 -13 22 -22 3 -12 4 -12 3 3 -1 12 -10 21 -22 22
-15 1 -15 0 -3 -3z"/>
<path d="M2940 3255 c0 -8 4 -15 8 -15 5 0 9 7 9 15 0 8 -4 15 -9 15 -4 0 -8
-7 -8 -15z"/>
<path d="M3515 3160 c4 -6 11 -8 16 -5 14 9 11 15 -7 15 -8 0 -12 -5 -9 -10z"/>
<path d="M3168 3153 c7 -3 16 -2 19 1 4 3 -2 6 -13 5 -11 0 -14 -3 -6 -6z"/>
<path d="M3015 3050 c3 -5 8 -10 11 -10 2 0 4 5 4 10 0 6 -5 10 -11 10 -5 0
-7 -4 -4 -10z"/>
<path d="M3138 2943 c12 -2 30 -2 40 0 9 3 -1 5 -23 4 -22 0 -30 -2 -17 -4z"/>
<path d="M1805 2940 c4 -6 11 -8 16 -5 14 9 11 15 -7 15 -8 0 -12 -5 -9 -10z"/>
<path d="M2937 2944 c6 -17 33 -19 33 -1 0 7 -9 13 -19 14 -14 1 -18 -3 -14
-13z"/>
<path d="M2880 2385 c0 -8 7 -15 16 -15 8 0 22 7 30 15 14 13 12 15 -15 15
-21 0 -31 -5 -31 -15z"/>
<path d="M3980 1245 c0 -33 2 -35 35 -35 33 0 35 2 35 35 0 33 -2 35 -35 35
-33 0 -35 -2 -35 -35z"/>
<path d="M5050 3662 c0 -36 2 -38 35 -40 34 -3 35 -2 35 36 0 37 -1 39 -35 40
-34 1 -35 0 -35 -36z"/>
</g>
</svg>
