<?xml version="1.0" standalone="no"?>
<!DOCTYPE svg PUBLIC "-//W3C//DTD SVG 20010904//EN"
 "http://www.w3.org/TR/2001/REC-SVG-20010904/DTD/svg10.dtd">
<svg version="1.0" xmlns="http://www.w3.org/2000/svg"
 width="640.000000pt" height="640.000000pt" viewBox="0 0 640.000000 640.000000"
 preserveAspectRatio="xMidYMid meet">
<metadata>
Created by potrace 1.16, written by Peter Selinger 2001-2019
</metadata>
<g transform="translate(0.000000,640.000000) scale(0.100000,-0.100000)"
fill="#000000" stroke="none">
<path d="M2190 5945 c0 -21 -5 -25 -30 -25 -25 0 -30 -4 -30 -25 0 -20 -5 -25
-25 -25 -24 0 -25 -3 -25 -55 l0 -55 -680 0 -680 0 0 -40 0 -40 -40 0 -40 0 0
-2480 0 -2480 40 0 40 0 0 -40 0 -40 2480 0 2480 0 0 40 0 40 40 0 40 0 0
2480 0 2480 -40 0 -40 0 0 40 0 40 -680 0 -680 0 0 55 c0 52 -1 55 -25 55 -20
0 -25 5 -25 25 0 21 -5 25 -30 25 -25 0 -30 4 -30 25 l0 25 -1010 0 -1010 0 0
-25z m2022 -52 c2 -23 7 -27 26 -25 22 3 22 3 22 -132 l0 -136 -25 0 c-20 0
-25 -5 -25 -25 0 -21 5 -25 30 -25 25 0 30 4 30 25 0 20 5 25 25 25 23 0 25 4
25 40 l0 40 653 -2 652 -3 -3 -22 c-3 -20 1 -23 27 -23 l31 0 0 -840 c0 -740
-2 -840 -15 -840 -11 0 -15 12 -15 53 l0 52 -50 -3 -50 -4 0 111 0 111 -55 0
-55 0 0 105 0 105 -55 0 -55 0 0 105 0 105 -50 0 -50 0 0 110 0 110 -55 0 -55
0 0 105 0 105 -55 0 -55 0 0 -105 0 -105 -105 0 -105 0 0 -56 0 -55 -52 3 -53
3 -1 35 c-2 72 0 70 -54 70 l-50 0 0 50 0 50 50 0 50 0 0 55 0 55 -105 0 -106
0 3 -107 3 -106 50 -1 50 -1 3 -212 2 -213 -55 0 -55 0 0 -50 0 -50 -40 -1
c-22 -1 -46 -2 -52 -3 -8 -1 -14 -21 -16 -53 l-3 -53 -209 0 -209 0 -3 53 -3
52 -52 3 -53 3 0 154 0 155 213 2 212 3 3 53 3 52 50 0 49 0 0 160 0 160 -50
0 -50 0 0 -105 0 -105 -110 0 -110 0 0 -55 0 -55 -50 0 -50 0 0 55 0 55 -55 0
-55 0 0 50 0 50 -105 0 -105 0 0 55 0 54 -107 3 -108 3 -3 53 -3 52 -265 0
-264 0 0 -55 0 -55 210 0 210 0 0 -25 c0 -23 -3 -25 -50 -25 -47 0 -50 -2 -50
-25 0 -22 -4 -25 -40 -26 -22 -1 -46 -2 -52 -3 -8 -1 -14 -21 -16 -53 -3 -49
-5 -53 -28 -53 -23 0 -24 -3 -24 -55 0 -52 -1 -55 -25 -55 l-24 0 -3 -157 -3
-158 -157 -3 -158 -3 0 161 0 160 25 0 c24 0 25 3 25 55 0 52 1 55 25 55 23 0
25 3 25 50 l0 50 55 0 55 0 0 55 0 55 -160 0 -160 0 0 -55 0 -54 73 -4 c39 -2
-8 -1 -105 1 l-178 5 0 -52 0 -51 -55 0 -55 0 0 -55 0 -55 -105 0 -105 0 0
-55 0 -55 50 0 50 0 0 -105 0 -105 -50 0 -50 0 -2 -62 c-1 -35 -2 -82 -2 -105
l1 -43 -54 0 -53 0 0 -55 0 -55 -55 0 -55 0 0 -56 0 -55 -102 2 -103 2 -3
-107 -3 -106 56 0 55 0 0 -55 0 -55 160 0 160 0 0 -50 c0 -47 2 -50 25 -50
l24 0 3 157 c3 154 3 156 26 158 l22 2 0 -374 0 -373 -50 0 -50 0 0 215 0 215
-55 0 -55 0 0 -215 0 -215 -55 0 -55 0 0 -50 0 -50 -50 0 c-47 0 -50 2 -50 25
0 22 -4 25 -33 25 -32 0 -33 -1 -29 -35 4 -31 7 -34 27 -29 21 5 23 2 26 -45
l4 -51 -52 0 c-50 0 -53 2 -53 25 0 20 -5 25 -25 25 -21 0 -25 5 -25 30 0 27
-3 30 -30 30 l-30 0 0 -79 0 -80 -50 1 c-46 0 -50 2 -50 24 0 22 -4 24 -49 24
l-50 0 -3 48 -3 47 -57 3 -58 3 0 -106 0 -105 -49 0 -50 0 -3 -52 -3 -53 -158
-3 -157 -3 0 -49 0 -50 68 0 c37 0 84 -3 105 -6 l37 -7 0 -103 0 -104 -55 0
-55 0 0 55 0 55 -50 0 -50 0 0 55 c0 42 -3 55 -15 55 -13 0 -15 171 -15 1480
l0 1480 29 0 c23 0 28 4 27 23 l-1 22 653 3 652 2 0 -40 c0 -36 2 -40 25 -40
20 0 25 -5 25 -25 0 -21 5 -25 30 -25 25 0 30 4 30 25 0 20 -5 25 -25 25 l-25
0 0 135 c0 134 0 135 23 132 17 -2 23 4 25 26 l3 27 1009 0 1009 0 3 -27z
m-806 -892 c-3 -5 -15 -7 -26 -4 -11 3 -20 0 -20 -6 0 -6 -6 -10 -12 -8 -7 1
-14 -7 -14 -18 -1 -11 -2 -26 -3 -34 -2 -31 -15 2 -16 39 l0 40 48 0 c27 0 46
-4 43 -9z m-820 -119 c-12 -11 -18 7 -10 30 l8 23 4 -23 c2 -13 1 -26 -2 -30z
m-133 11 c-15 -3 -20 -9 -16 -20 6 -15 4 -15 -17 0 -50 35 -57 26 -58 -74 -1
-51 -4 -94 -7 -97 -3 -3 -5 40 -5 96 l0 102 63 -1 c34 -1 52 -4 40 -6z m107
-2 c0 -4 -11 -6 -25 -3 -14 2 -25 6 -25 8 0 2 11 4 25 4 14 0 25 -4 25 -9z
m99 -38 c0 -27 -3 -43 -5 -36 -3 7 -13 9 -22 6 -14 -4 -15 -3 -2 6 16 11 15
12 -15 30 -19 11 -18 12 6 8 21 -3 25 0 21 15 -2 10 1 18 7 18 7 0 11 -19 10
-47z m609 40 c-10 -2 -28 -2 -40 0 -13 2 -5 4 17 4 22 1 32 -1 23 -4z m247 2
c-23 -8 -83 -10 -79 -3 3 4 24 8 47 7 23 0 38 -2 32 -4z m-283 -127 c-2 -27
-8 -48 -13 -48 -11 0 -12 123 -2 134 12 11 20 -34 15 -86z m288 47 c0 -8 -7
-15 -15 -15 -16 0 -20 12 -8 23 11 12 23 8 23 -8z m-962 -11 c8 -2 12 -28 12
-84 0 -44 -2 -80 -5 -80 -3 0 -15 10 -27 22 -15 15 -17 20 -5 15 9 -3 19 -1
23 4 4 7 -14 10 -51 8 l-57 -3 0 62 c1 34 1 64 1 67 1 5 85 -3 109 -11z m1059
-66 c-2 -13 -4 -3 -4 22 0 25 2 35 4 23 2 -13 2 -33 0 -45z m-1010 10 c-3 -8
-6 -5 -6 6 -1 11 2 17 5 13 3 -3 4 -12 1 -19z m1 -140 c-1 -106 -2 -114 -8
-58 -6 60 -2 180 6 180 2 0 3 -55 2 -122z m-278 73 c0 -10 -76 -9 -86 2 -4 4
14 7 39 7 26 0 47 -4 47 -9z m30 -1 c0 -5 -5 -10 -11 -10 -5 0 -7 5 -4 10 3 6
8 10 11 10 2 0 4 -4 4 -10z m1255 -20 c1 -11 -2 -20 -7 -20 -4 0 -8 12 -8 27
0 30 13 24 15 -7z m-1200 -10 c3 -5 1 -10 -4 -10 -6 0 -11 5 -11 10 0 6 2 10
4 10 3 0 8 -4 11 -10z m720 -108 c-6 -8 -35 12 -35 24 0 11 4 10 18 -3 10 -10
18 -19 17 -21z m-865 -42 c5 0 11 8 13 18 4 13 5 11 6 -5 1 -17 -5 -23 -19
-23 -17 0 -20 6 -18 38 1 36 1 36 5 5 2 -18 8 -33 13 -33z m253 43 c-13 -2
-35 -2 -50 0 -16 2 -5 4 22 4 28 0 40 -2 28 -4z m940 0 c-35 -2 -91 -2 -125 0
-35 2 -7 3 62 3 69 0 97 -1 63 -3z m-339 -9 c9 -3 16 -12 16 -19 0 -8 14 -15
33 -18 22 -3 15 -4 -20 -5 -50 -2 -53 -1 -53 23 0 27 1 28 24 19z m-594 -14
c0 -5 -9 -10 -21 -10 -11 0 -17 5 -14 10 3 6 13 10 21 10 8 0 14 -4 14 -10z
m910 0 c0 -5 -4 -10 -9 -10 -6 0 -13 5 -16 10 -3 6 1 10 9 10 9 0 16 -4 16
-10z m80 -10 c0 -19 -7 -20 -119 -20 -66 0 -122 3 -124 8 -3 4 42 6 101 4 95
-3 104 -2 93 12 -12 14 -9 16 18 16 24 0 31 -4 31 -20z m-997 -17 c-24 -2 -62
-2 -85 0 -24 2 -5 4 42 4 47 0 66 -2 43 -4z m2489 -39 c3 -26 6 -27 53 -28 47
-1 50 -3 53 -28 3 -22 9 -28 28 -28 22 0 24 -4 24 -50 0 -47 -2 -50 -25 -50
-25 0 -25 -1 -25 -80 l0 -80 -49 0 c-47 0 -50 2 -53 28 -3 26 -5 27 -55 24
l-53 -3 0 30 c0 31 0 31 -54 31 l-53 0 1 75 c1 75 1 75 29 75 26 0 27 2 27 53
l0 53 74 2 c74 3 75 3 78 -24z m-1344 -31 c109 -6 112 -7 112 -30 0 -22 -3
-23 -75 -23 l-75 0 0 -55 0 -55 -55 0 -55 0 0 -50 0 -50 -297 -1 c-164 -1
-308 0 -321 1 -22 2 -23 0 -20 -97 3 -83 6 -98 20 -101 15 -3 18 8 21 85 l3
88 2 -92 2 -93 -130 0 -130 0 0 105 0 105 -264 0 -264 0 -4 128 c-2 70 -3 130
-1 135 5 9 1373 9 1531 0z m165 -60 c-7 -2 -19 -2 -25 0 -7 3 -2 5 12 5 14 0
19 -2 13 -5z m707 -3 c-25 -4 -49 -4 -54 1 -6 5 12 8 45 8 l54 -2 -45 -7z
m-30 -70 c0 -11 -4 -20 -9 -20 -6 0 -9 9 -8 20 1 11 5 20 9 20 4 0 8 -9 8 -20z
m53 -12 c-6 -11 -43 -10 -43 1 0 5 11 8 24 7 13 0 22 -4 19 -8z m-676 -95 c-2
-16 -4 -3 -4 27 0 30 2 43 4 28 2 -16 2 -40 0 -55z m-1867 -73 l0 -50 -48 0
-47 0 3 44 c4 43 5 45 40 49 21 2 40 4 45 5 4 1 7 -20 7 -48z m2242 17 c3 -19
9 -22 48 -21 38 1 45 4 51 25 5 17 7 8 8 -28 l1 -53 55 0 55 0 -6 -55 -6 -55
56 0 56 0 0 -45 0 -45 -50 0 c-47 0 -50 1 -50 26 0 25 -2 26 -50 22 -49 -5
-50 -4 -50 24 0 27 -1 28 -55 28 -52 0 -55 1 -55 24 0 23 -4 25 -52 28 -49 3
-53 5 -56 31 -3 26 -6 27 -56 27 l-52 0 4 38 c2 20 5 42 6 47 2 6 41 9 99 7
90 -3 96 -5 99 -25z m415 1 c-3 -8 -6 -5 -6 6 -1 11 2 17 5 13 3 -3 4 -12 1
-19z m6 -60 c-6 -11 -83 -10 -83 0 0 5 14 8 31 7 24 -2 33 3 37 18 5 20 6 20
12 1 4 -10 6 -22 3 -26z m-2763 -68 l0 -50 -50 0 -50 0 0 50 0 50 50 0 50 0 0
-50z m1810 -210 l0 -160 -55 0 -55 0 0 -52 0 -53 -50 3 -50 4 0 -111 0 -111
-55 0 -55 0 0 -56 0 -57 -37 6 c-54 9 -68 -4 -68 -59 l0 -47 -50 -1 c-167 -5
-163 -4 -157 -31 4 -22 1 -25 -27 -25 -26 0 -31 4 -31 25 0 20 -5 25 -25 25
-20 0 -25 -5 -25 -25 l0 -25 -215 0 -215 0 0 24 c0 23 -4 25 -52 28 l-53 3 -3
53 -3 52 -50 0 -49 0 0 55 0 55 -53 0 -53 0 -1 265 -1 265 25 0 24 0 -2 -137
-1 -138 26 3 c23 3 26 0 26 -29 l0 -32 53 7 c28 3 67 6 85 6 27 0 32 3 32 25
0 20 5 25 25 25 20 0 25 5 25 25 0 21 5 25 30 25 l30 0 0 111 c0 109 0 110 23
107 16 -2 22 -10 22 -28 l0 -25 163 -3 162 -2 0 29 0 30 82 -1 c131 -2 123 8
123 -138 l0 -125 28 -3 c23 -3 27 -8 27 -33 l0 -29 88 0 c112 0 132 6 132 36
0 20 5 24 29 24 26 0 29 3 25 25 -4 22 -1 25 25 25 36 0 38 13 31 140 -5 81
-6 85 -30 90 -14 3 -25 11 -26 18 -2 29 -5 32 -29 32 -18 0 -25 5 -25 20 0 18
8 20 128 23 70 1 128 4 130 5 1 1 2 -70 2 -158z m220 0 l0 -160 -55 0 -55 0 0
-55 0 -55 -49 0 c-31 0 -51 -5 -54 -13 -3 -7 -5 -78 -5 -158 l-1 -144 -51 -3
-50 -3 0 160 0 161 50 0 c54 0 54 0 53 83 0 9 5 18 11 18 10 1 37 4 84 8 9 1
12 40 12 161 l0 160 55 0 55 0 0 -160z m-760 140 c-13 -9 -13 -11 0 -20 11 -7
0 -10 -37 -10 -46 0 -53 3 -53 20 0 17 7 20 53 20 37 0 48 -3 37 -10z m1592 1
c-7 -4 -24 -6 -38 -3 -23 4 -24 2 -24 -42 0 -25 -4 -46 -10 -46 -5 0 -10 23
-10 50 l0 50 48 0 c29 0 42 -4 34 -9z m-2224 -143 l-3 -53 -50 0 -50 0 -3 53
-3 52 56 0 56 0 -3 -52z m960 0 l-3 -53 -50 0 -50 0 -3 53 -3 52 56 0 56 0 -3
-52z m2132 -3 l0 -55 -50 0 -50 0 0 -50 0 -50 -160 0 -160 0 0 -55 0 -55 -111
0 -110 0 2 -52 3 -53 -52 -3 -52 -3 0 80 0 80 52 3 c49 3 53 5 53 28 0 24 2
25 53 22 l52 -3 0 30 c0 31 0 31 55 31 52 0 55 1 55 24 0 23 4 25 53 28 49 3
52 5 55 31 2 15 7 25 12 22 5 -3 27 -3 49 1 35 6 41 10 41 30 0 24 1 24 105
24 l105 0 0 -55z m-787 -152 c-13 -2 -33 -2 -45 0 -13 2 -3 4 22 4 25 0 35 -2
23 -4z m-2463 -33 c0 -25 -4 -30 -25 -30 -21 0 -25 5 -25 30 0 25 4 30 25 30
21 0 25 -5 25 -30z m905 0 c0 -18 -6 -26 -23 -28 -13 -2 -25 3 -28 12 -10 26
4 48 28 44 17 -2 23 -10 23 -28z m1175 -25 l0 -55 -105 0 -105 0 0 55 0 55
105 0 105 0 0 -55z m1200 -1375 l0 -1430 -25 0 c-20 0 -25 -5 -25 -25 l0 -25
-2430 0 -2430 0 0 25 c0 20 -5 25 -25 25 l-25 0 2 787 c2 517 6 788 13 788 6
0 11 -24 13 -52 l3 -53 160 0 159 0 0 55 0 55 50 0 50 0 0 50 0 50 55 0 55 0
0 -50 0 -50 55 0 55 0 0 105 0 105 48 -1 c26 -1 74 -5 107 -9 l60 -7 -53 -2
-53 -1 3 -92 3 -93 100 -1 c55 -1 101 -4 103 -7 1 -4 2 -30 2 -57 l0 -51 -107
3 -108 3 -1 50 -1 50 -52 3 -51 3 0 -55 0 -56 50 0 50 0 0 -55 0 -55 55 0 55
0 0 -50 0 -50 215 0 215 0 0 49 0 50 52 3 53 3 0 50 0 50 53 3 52 3 0 -160 0
-161 -55 0 -55 0 0 -55 0 -55 -50 0 -50 0 0 -105 0 -105 50 0 50 0 0 68 c0 37
3 84 7 105 l6 38 56 -2 56 -2 -2 39 -2 39 11 -39 c7 -27 7 -40 0 -45 -6 -4
-14 -26 -18 -49 l-7 -42 36 0 c58 0 67 7 67 56 l0 44 55 0 55 0 0 -50 0 -50
-50 0 -50 0 -2 -67 c-1 -38 -2 -86 -2 -108 l-1 -40 -52 -3 -53 -3 0 -50 0 -49
-105 0 -105 0 0 105 0 105 -55 0 -55 0 0 -160 0 -160 105 0 105 0 0 -160 0
-160 -50 0 -50 0 0 -105 0 -105 425 0 425 0 0 210 0 210 160 0 160 0 0 55 0
55 -265 0 -265 0 0 55 0 55 -55 0 -56 0 3 158 3 157 47 1 46 1 7 -53 c3 -30 5
-78 4 -107 l-3 -52 52 -3 52 -3 0 -50 0 -49 58 -1 c31 -1 102 -1 157 -1 l100
1 3 51 3 50 55 0 54 0 0 110 0 111 50 -2 50 -3 0 -158 0 -158 -49 0 c-43 0
-50 -3 -55 -24 -3 -13 -3 -38 0 -55 6 -30 8 -31 60 -31 l54 0 0 -55 0 -55 50
0 50 0 0 -160 0 -160 55 0 55 0 0 -50 0 -50 320 0 320 0 0 266 0 265 52 -3 52
-3 1 -50 0 -50 52 -3 52 -3 3 -52 3 -52 158 3 157 3 0 -55 0 -56 160 0 160 0
0 50 0 50 43 2 c23 0 48 1 55 1 9 -1 12 27 12 108 l0 109 -55 0 -55 0 0 55 0
55 -160 0 -160 0 0 -55 0 -55 -105 0 -105 0 0 55 0 55 105 0 105 0 0 50 0 50
55 0 55 0 0 55 0 55 55 0 55 0 0 160 0 160 50 0 50 0 0 215 0 215 -50 0 -50 0
0 160 0 160 50 0 50 0 0 105 0 105 -50 0 -50 0 0 105 0 105 -55 0 -55 0 0 55
0 55 105 0 105 0 0 55 0 55 110 0 110 0 0 50 0 50 105 0 105 0 0 55 0 55 105
0 105 0 0 48 c0 48 5 62 22 62 4 0 8 -643 8 -1430z m-1410 1160 l0 -50 118 -2
c64 -1 135 -3 157 -3 l40 -1 3 -52 3 -52 48 0 48 0 6 -82 c12 -148 15 -138
-48 -138 l-55 0 0 -50 c0 -27 5 -50 10 -50 6 0 10 5 10 11 0 6 7 9 15 6 8 -4
72 -9 142 -13 70 -4 129 -7 130 -8 1 0 3 -23 4 -51 l3 -50 -108 -3 -108 -3 4
-49 3 -50 -107 0 -108 0 0 -55 0 -55 -265 0 -265 0 0 55 0 55 -55 0 -55 0 0
210 0 210 55 0 55 0 0 110 0 110 50 0 50 0 0 50 0 50 110 0 110 0 0 -50z m493
-277 c-7 -2 -19 -2 -25 0 -7 3 -2 5 12 5 14 0 19 -2 13 -5z m-36 -95 c-3 -8
-6 -5 -6 6 -1 11 2 17 5 13 3 -3 4 -12 1 -19z m63 1 c0 -11 -4 -17 -10 -14 -5
3 -10 13 -10 21 0 8 5 14 10 14 6 0 10 -9 10 -21z m-2127 4 c-7 -2 -19 -2 -25
0 -7 3 -2 5 12 5 14 0 19 -2 13 -5z m390 0 c-13 -2 -35 -2 -50 0 -16 2 -5 4
22 4 28 0 40 -2 28 -4z m-817 -60 c-1 -32 -5 -48 -13 -47 -7 1 -29 2 -48 3
-35 1 -35 2 -35 46 l0 45 48 0 49 0 -1 -47z m2437 -20 c-7 -2 -19 -2 -25 0 -7
3 -2 5 12 5 14 0 19 -2 13 -5z m-2113 -83 l0 -48 108 -7 107 -7 -2 -157 -2
-156 -48 -1 c-70 -1 -72 -2 -67 -26 l5 -23 -10 23 c-10 20 -17 22 -100 22
l-90 0 -3 -52 -3 -53 -55 0 -55 0 -3 53 -3 52 -50 0 -49 0 0 165 0 165 50 0
50 0 0 49 0 50 53 3 c28 2 78 1 110 0 l57 -4 0 -48z m-430 -2 l0 -48 -50 0
-50 0 0 50 0 50 50 -3 50 -2 0 -47z m1393 -35 c2 -49 4 -133 2 -188 l-3 -100
-51 -3 c-47 -3 -51 -5 -51 -28 l0 -24 -270 1 -270 1 0 159 0 159 108 0 c59 0
178 3 265 7 l157 6 0 49 0 48 54 0 53 0 6 -87z m-1266 25 c-2 -13 -4 -5 -4 17
-1 22 1 32 4 23 2 -10 2 -28 0 -40z m973 42 c0 -5 -4 -10 -10 -10 -5 0 -10 5
-10 10 0 6 5 10 10 10 6 0 10 -4 10 -10z m-573 -42 c-3 -7 -5 -2 -5 12 0 14 2
19 5 13 2 -7 2 -19 0 -25z m960 -14 c-6 -45 -13 -52 -19 -20 -3 14 -1 23 3 20
5 -3 9 4 9 15 0 12 3 21 6 21 3 0 3 -16 1 -36z m-1705 -151 c-6 -2 -10 -9 -7
-13 3 -5 1 -11 -5 -15 -5 -3 -10 -2 -10 3 0 18 -40 21 -50 4 -8 -15 -9 -15
-10 -1 0 24 10 29 54 28 23 0 35 -3 28 -6z m1817 -65 c0 -40 -3 -67 -6 -60 -2
6 -13 12 -24 12 -10 0 -19 5 -19 10 0 6 5 10 11 10 7 0 10 17 7 45 -3 44 6 62
15 28 4 -14 5 -12 6 5 0 12 3 22 6 22 3 0 5 -33 4 -72z m-1942 15 c-15 -4 -16
-7 -6 -21 11 -14 11 -15 -1 -4 -8 6 -25 12 -39 11 -15 0 -20 -3 -13 -6 6 -2
10 -9 6 -14 -10 -18 -24 -9 -24 16 0 23 3 25 48 24 26 -1 39 -3 29 -6z m1901
-20 c-2 -14 -14 -19 -48 -20 l-45 -2 40 19 c50 24 57 25 53 3z m-1938 -43 c0
-5 -9 -10 -20 -10 -11 0 -20 5 -20 10 0 6 9 10 20 10 11 0 20 -4 20 -10z m97
-47 c-3 -10 -5 -4 -5 12 0 17 2 24 5 18 2 -7 2 -21 0 -30z m53 -101 c-8 -13
-10 -3 -9 43 2 86 13 111 17 37 2 -34 -2 -70 -8 -80z m-302 101 c-10 -2 -26
-2 -35 0 -10 3 -2 5 17 5 19 0 27 -2 18 -5z m1917 -21 c-3 -3 -11 0 -18 7 -9
10 -8 11 6 5 10 -3 15 -9 12 -12z m115 -1 c0 -12 -20 -25 -27 -18 -7 7 6 27
18 27 5 0 9 -4 9 -9z m30 -1 c0 -5 -4 -10 -10 -10 -5 0 -10 5 -10 10 0 6 5 10
10 10 6 0 10 -4 10 -10z m-1780 -45 c0 -14 -4 -25 -10 -25 -11 0 -14 33 -3 43
11 11 13 8 13 -18z m1227 -7 c-3 -8 -6 -5 -6 6 -1 11 2 17 5 13 3 -3 4 -12 1
-19z m187 14 c-5 -4 -12 -11 -15 -15 -3 -5 -9 -2 -12 5 -3 9 3 14 15 15 11 1
16 -1 12 -5z m-637 -62 c-1 -19 -8 -20 -97 -18 l-95 2 88 3 c80 3 87 6 87 24
0 11 4 18 9 14 6 -3 9 -14 8 -25z m876 13 c-13 -2 -35 -2 -50 0 -16 2 -5 4 22
4 28 0 40 -2 28 -4z m-123 -23 c0 -6 -58 -9 -157 -8 l-158 2 145 6 c80 3 151
7 158 8 6 1 12 -2 12 -8z m70 0 c0 -5 -13 -10 -30 -10 -16 0 -30 4 -30 8 0 4
14 9 30 10 17 1 30 -2 30 -8z m95 0 c-3 -5 -15 -10 -25 -10 -10 0 -22 5 -25
10 -4 6 7 10 25 10 18 0 29 -4 25 -10z m-1677 -7 c-16 -2 -40 -2 -55 0 -16 2
-3 4 27 4 30 0 43 -2 28 -4z m429 1 c-3 -3 -12 -4 -19 -1 -8 3 -5 6 6 6 11 1
17 -2 13 -5z m2396 -10 l77 -7 0 -48 c0 -45 -2 -48 -30 -54 -16 -4 -39 -3 -51
0 -19 6 -21 4 -19 -37 2 -23 2 -73 1 -110 l-1 -68 -55 0 -55 0 0 -50 0 -50
105 0 105 0 0 -49 c0 -30 -5 -51 -12 -53 -7 -3 -76 -6 -153 -7 -77 -1 -149 -4
-160 -6 -11 -3 -14 -2 -7 1 7 3 12 26 12 60 l0 54 -49 0 -48 0 -7 77 c-3 42
-6 114 -6 160 l0 83 55 0 55 0 0 55 0 55 83 0 c46 0 118 -3 160 -6z m-2916
-71 c-2 -16 -4 -5 -4 22 0 28 2 40 4 28 2 -13 2 -35 0 -50z m1043 61 c-8 -2
-49 -5 -90 -6 l-75 -3 -6 -35 -6 -35 -2 43 -1 42 98 -1 c53 -1 90 -3 82 -5z
m239 -41 l-2 -48 -6 40 c-7 38 -5 55 5 55 2 0 3 -21 3 -47z m1811 37 c0 -5 -2
-10 -4 -10 -3 0 -8 5 -11 10 -3 6 -1 10 4 10 6 0 11 -4 11 -10z m-3110 -34 c0
-3 -4 -8 -10 -11 -5 -3 -10 -1 -10 4 0 6 5 11 10 11 6 0 10 -2 10 -4z m1233
-43 c-13 -2 -33 -2 -45 0 -13 2 -3 4 22 4 25 0 35 -2 23 -4z m1137 -173 l0
-160 -55 0 -55 0 -2 -162 -2 -163 -6 150 c-3 92 -9 149 -15 148 -5 -1 -23 2
-40 7 -27 8 -26 9 12 5 30 -2 43 1 47 12 3 8 6 84 6 169 l0 154 55 0 55 0 0
-160z m741 118 c2 -24 2 -72 -1 -108 l-4 -65 -6 50 -5 50 -42 3 -43 3 0 55 0
54 49 0 49 0 3 -42z m-2303 25 c-10 -2 -18 -9 -18 -14 0 -5 8 -10 18 -10 15
-1 15 -2 0 -6 -9 -2 -19 -12 -21 -21 -3 -9 -5 0 -6 21 -1 32 2 37 22 36 16 -1
18 -2 5 -6z m62 -40 l0 -43 -41 0 c-22 0 -38 4 -35 9 3 5 19 8 35 7 31 -2 39
23 11 36 -12 5 -10 7 5 8 19 1 19 1 1 15 -18 13 -18 14 3 12 18 -1 21 -8 21
-44z m476 -23 c32 -13 30 -21 -4 -18 -27 2 -28 5 -29 47 0 34 1 37 4 13 3 -24
11 -36 29 -42z m32 63 c-10 -2 -26 -2 -35 0 -10 3 -2 5 17 5 19 0 27 -2 18 -5z
m1109 -60 c-2 -16 -4 -5 -4 22 0 28 2 40 4 28 2 -13 2 -35 0 -50z m450 -15
c-3 -7 -5 -2 -5 12 0 14 2 19 5 13 2 -7 2 -19 0 -25z m-1637 -173 l0 -155
-210 0 -210 0 0 155 0 155 210 0 210 0 0 -155z m1187 73 c-2 -13 -4 -3 -4 22
0 25 2 35 4 23 2 -13 2 -33 0 -45z m623 -89 c0 -16 -4 -28 -9 -25 -8 5 -3 56
5 56 2 0 4 -14 4 -31z m-2560 -96 c0 -52 -6 -55 -12 -5 -2 18 -10 37 -18 42
-12 8 -10 10 8 10 20 0 22 -5 22 -47z m1603 40 c-7 -2 -19 -2 -25 0 -7 3 -2 5
12 5 14 0 19 -2 13 -5z m-82 -100 c-6 -15 -9 -39 -6 -53 2 -13 -1 -28 -8 -32
-7 -6 -1 -8 18 -6 30 3 30 3 33 -54 3 -54 5 -58 27 -58 22 0 25 -4 25 -37 0
-21 4 -43 8 -50 5 -8 42 -13 102 -15 l95 -3 3 -52 3 -53 -215 0 -216 0 0 50 0
50 -50 0 -50 0 0 54 c0 57 5 63 59 71 11 1 15 10 13 28 -2 15 1 27 7 27 5 0
12 -17 14 -37 3 -31 4 -29 5 15 l2 52 -50 0 -50 0 0 -50 0 -50 -55 0 -55 0 0
55 0 55 -54 0 -54 0 3 43 c1 23 3 45 4 50 0 4 98 7 216 7 185 0 216 2 222 15
3 9 8 14 11 11 2 -3 0 -18 -7 -33z m-578 0 c-13 -2 -35 -2 -50 0 -16 2 -5 4
22 4 28 0 40 -2 28 -4z m977 -17 c0 -14 -4 -27 -8 -30 -5 -3 -8 5 -8 17 1 19
-6 23 -44 28 l-45 6 53 1 c49 2 52 1 52 -22z m-1930 -28 c0 -5 -19 -8 -42 -7
-26 0 -36 3 -26 7 23 9 68 9 68 0z m-13 -24 c-3 -3 -12 -4 -19 -1 -8 3 -5 6 6
6 11 1 17 -2 13 -5z m1940 -20 c-3 -3 -12 -4 -19 -1 -8 3 -5 6 6 6 11 1 17 -2
13 -5z m-567 -51 c0 -19 -13 -9 -16 12 -1 8 2 13 7 9 5 -3 9 -12 9 -21z m337
-45 c-3 -7 -5 -2 -5 12 0 14 2 19 5 13 2 -7 2 -19 0 -25z m-14 -25 c-7 -2 -13
-11 -13 -19 0 -9 -4 -13 -10 -9 -14 9 0 35 19 34 10 0 11 -2 4 -6z m-46 -55
c-2 -13 -4 -5 -4 17 -1 22 1 32 4 23 2 -10 2 -28 0 -40z m-1511 -266 c5 -4 8
-28 6 -54 l-4 -48 -109 0 -109 0 0 55 0 55 103 0 c56 0 107 -4 113 -8z m1284
-47 l0 -55 -110 0 -110 0 0 55 0 55 110 0 110 0 0 -55z m198 -52 c-1 -46 -2
-50 -5 -18 -2 22 -12 46 -21 54 -16 13 -16 13 1 8 9 -4 17 -2 17 3 0 6 2 10 5
10 3 0 4 -26 3 -57z m-350 -20 c-10 -2 -28 -2 -40 0 -13 2 -5 4 17 4 22 1 32
-1 23 -4z m-33 -53 c-4 -6 5 -10 20 -10 15 0 24 -4 20 -10 -3 -5 -19 -10 -35
-10 -16 0 -32 5 -35 10 -3 6 -1 10 5 10 6 0 8 5 5 10 -4 6 -4 19 0 28 6 16 7
16 16 -1 6 -9 7 -22 4 -27z m35 10 c0 -5 -4 -10 -10 -10 -5 0 -10 5 -10 10 0
6 5 10 10 10 6 0 10 -4 10 -10z m340 -34 c8 -2 -55 -3 -140 -3 -145 1 -148 1
-50 6 98 6 154 4 190 -3z m-1447 -3 c-46 -2 -120 -2 -165 0 -46 1 -9 3 82 3
91 0 128 -2 83 -3z"/>
<path d="M2320 5825 c0 -8 -7 -15 -15 -15 -12 0 -15 -16 -15 -80 0 -64 3 -80
15 -80 8 0 15 -7 15 -15 0 -12 14 -15 65 -15 51 0 65 3 65 15 0 8 7 15 15 15
12 0 15 15 15 75 0 98 -14 115 -100 115 -47 0 -60 -3 -60 -15z m108 -92 l3
-53 -40 0 -41 0 0 56 0 55 38 -3 37 -3 3 -52z"/>
<path d="M2510 5814 c0 -26 20 -54 39 -54 20 0 11 -41 -14 -64 -14 -14 -25
-34 -25 -50 0 -21 5 -26 25 -26 16 0 25 6 25 15 0 8 7 15 15 15 8 0 15 6 15
14 0 8 6 16 13 18 16 6 37 -1 37 -13 0 -19 35 -49 57 -49 19 0 23 5 23 30 0
20 -5 30 -15 30 -8 0 -15 7 -15 15 0 8 -4 15 -10 15 -19 0 -10 43 15 66 14 13
25 32 25 44 0 17 -6 20 -40 20 l-40 0 0 -40 c0 -29 -4 -40 -15 -40 -8 0 -15 5
-15 11 0 19 -58 69 -79 69 -16 0 -21 -6 -21 -26z"/>
<path d="M2880 5815 c0 -23 3 -25 48 -25 27 0 52 -3 55 -7 4 -4 -12 -25 -35
-46 -24 -22 -42 -44 -40 -49 1 -4 -5 -8 -14 -8 -11 0 -14 -8 -12 -27 l3 -28
90 0 90 0 3 28 c3 27 2 27 -52 27 -31 0 -56 5 -56 10 0 6 7 10 15 10 8 0 15 5
15 11 0 7 11 22 25 35 14 13 25 28 25 34 0 5 7 10 15 10 9 0 15 9 15 25 0 25
0 25 -95 25 -95 0 -95 0 -95 -25z"/>
<path d="M3135 5815 c-11 -13 -26 -24 -32 -25 -20 0 -18 -110 2 -110 8 0 15
-7 15 -15 0 -8 6 -15 14 -15 8 0 16 -4 18 -9 5 -14 104 -17 101 -3 -2 7 4 12
12 12 12 0 15 15 15 75 0 92 -16 115 -82 115 -33 0 -48 -6 -63 -25z m93 -82
l3 -53 -40 0 -41 0 0 56 0 55 38 -3 37 -3 3 -52z"/>
<path d="M3332 5733 l3 -108 60 -1 c56 -1 62 1 93 33 27 29 32 42 32 84 0 37
-4 49 -15 49 -8 0 -15 5 -15 11 0 26 -30 39 -95 39 l-66 0 3 -107z m131 45
c-2 -5 -3 -28 -3 -53 0 -45 0 -45 -35 -45 l-35 0 0 56 0 55 38 -3 c20 -2 36
-6 35 -10z"/>
<path d="M3550 5816 c0 -15 7 -26 20 -29 17 -4 20 -14 20 -56 0 -44 -3 -51
-20 -51 -15 0 -20 -7 -20 -29 0 -29 0 -29 63 -27 60 1 62 2 65 29 3 22 -1 27
-17 27 -19 0 -21 6 -21 55 0 48 2 55 20 55 15 0 20 7 20 25 0 24 -2 25 -65 25
-62 0 -65 -1 -65 -24z"/>
<path d="M3760 5824 c0 -8 -4 -13 -8 -10 -5 3 -16 -4 -25 -15 -13 -14 -17 -39
-17 -99 0 -79 0 -80 25 -80 21 0 25 5 25 30 0 28 2 30 40 30 38 0 40 -2 40
-29 0 -26 3 -30 28 -28 l27 2 -2 78 c-2 71 -4 79 -32 107 -34 34 -101 44 -101
14z m80 -59 c0 -22 -4 -25 -40 -25 -32 0 -40 4 -40 18 0 26 9 32 47 32 29 0
33 -3 33 -25z"/>
<path d="M3963 5825 c-7 -8 -13 -18 -13 -24 0 -5 -7 -11 -15 -15 -11 -4 -15
-20 -15 -56 0 -38 4 -50 15 -50 8 0 15 -5 15 -10 0 -6 8 -19 18 -30 13 -14 30
-18 77 -17 58 2 60 3 63 30 3 27 2 27 -52 27 -43 0 -56 3 -56 15 0 8 -4 15
-10 15 -5 0 -10 11 -10 25 0 14 5 25 10 25 6 0 10 7 10 15 0 12 13 15 55 15
52 0 55 1 55 25 0 24 -2 25 -67 25 -46 -1 -72 -5 -80 -15z"/>
<path d="M2190 5520 l0 -30 1010 0 1010 0 0 30 0 30 -1010 0 -1010 0 0 -30z"/>
<path d="M1920 5286 l0 -55 -52 -3 -53 -3 -3 -52 -3 -53 -50 0 -49 0 0 -105 0
-105 -55 0 -55 0 0 -215 0 -215 55 0 55 0 0 -55 0 -55 50 0 50 0 0 -50 0 -50
55 0 55 0 0 56 0 55 -52 -3 -53 -3 0 50 0 50 -53 3 -52 3 2 212 3 212 48 0 47
0 0 108 0 107 55 0 55 0 0 -160 0 -160 55 0 55 0 0 160 0 160 50 0 50 0 0 110
0 110 -105 0 -105 0 0 -54z m108 -113 l3 -53 -55 0 -56 0 0 56 0 55 53 -3 52
-3 3 -52z"/>
<path d="M4167 5333 c-4 -3 -7 -53 -7 -110 l0 -103 55 0 55 0 0 55 0 55 50 0
50 0 0 -55 0 -55 55 0 55 0 0 55 0 55 -55 0 -55 0 0 55 0 55 -98 0 c-54 0
-102 -3 -105 -7z"/>
<path d="M4690 5175 l0 -55 160 0 160 0 0 55 0 55 -160 0 -160 0 0 -55z"/>
<path d="M1497 3303 c-4 -3 -7 -28 -7 -55 l0 -48 -105 0 -105 0 0 -55 0 -55
50 0 c64 0 65 1 62 28 -3 20 0 22 52 22 54 0 56 1 56 28 l0 27 135 -1 c74 -1
141 -4 149 -7 19 -7 26 13 26 74 l0 49 -153 0 c-85 0 -157 -3 -160 -7z"/>
<path d="M2507 3413 c-1 -1 -1 -25 1 -55 l4 -53 49 3 c49 4 49 4 49 -27 0 -28
3 -31 30 -31 30 0 30 1 30 55 0 54 0 55 -30 55 -26 0 -30 4 -30 28 0 26 -2 27
-51 27 -28 0 -51 -1 -52 -2z"/>
<path d="M2934 3411 c-2 -2 -4 -15 -4 -28 0 -18 -5 -23 -25 -23 -24 0 -25 -3
-25 -56 0 -54 0 -55 28 -52 21 2 27 8 27 28 0 23 4 25 53 28 l53 3 -3 51 -3
51 -48 1 c-27 0 -51 -1 -53 -3z"/>
<path d="M2666 3142 c-3 -5 -4 -17 -2 -28 3 -18 13 -19 164 -22 l162 -2 0 30
0 30 -159 0 c-88 0 -162 -4 -165 -8z"/>
<path d="M3125 3920 c3 -5 13 -10 21 -10 8 0 12 5 9 10 -3 6 -13 10 -21 10 -8
0 -12 -4 -9 -10z"/>
<path d="M2140 1548 l0 -48 53 0 c28 0 47 4 42 8 -9 6 -12 26 -5 35 1 1 4 14
6 29 4 25 3 26 -46 25 l-50 -2 0 -47z"/>
<path d="M4160 3256 l0 -55 -52 -3 -53 -3 3 -52 4 -53 -56 0 -56 0 0 -105 0
-105 50 0 50 0 0 -48 c0 -27 2 -51 5 -53 2 -3 28 -2 57 1 l53 6 -3 -58 -4 -58
57 0 56 0 -2 63 c-3 59 -2 62 22 64 l24 2 -25 -8 c-16 -6 32 -9 133 -10 l157
-1 0 49 0 50 -62 -4 c-124 -7 -208 -8 -215 -2 -3 4 -15 7 -25 7 -15 0 -18 8
-18 50 0 35 -4 50 -12 49 -7 -1 -30 -1 -50 0 -32 1 -38 4 -38 24 0 33 -11 67
-21 67 -5 0 -9 -8 -10 -17 0 -15 -2 -15 -8 2 -11 25 -5 35 20 35 16 0 19 7 19
55 l0 55 56 0 55 0 -3 53 -3 52 -52 3 -53 3 0 -55z m-67 -260 c3 4 10 -1 13
-11 5 -11 1 -21 -9 -27 -10 -5 -17 -19 -17 -30 0 -45 -13 -5 -17 49 -3 52 -2
56 10 35 7 -12 16 -20 20 -16z m109 -58 c-6 -6 -16 -7 -22 -3 -9 6 -9 9 1 16
17 10 34 0 21 -13z m48 -150 c0 -5 -16 -8 -35 -8 -19 0 -35 4 -35 8 0 5 16 8
35 8 19 -1 35 -4 35 -8z"/>
<path d="M4483 2130 l-1 -100 47 0 48 0 2 92 c2 101 -1 108 -59 108 l-35 0 -2
-100z m60 -52 c7 -4 8 -8 2 -8 -26 0 -35 17 -28 51 l8 34 3 -35 c2 -19 9 -38
15 -42z m14 30 c-3 -7 -5 -2 -5 12 0 14 2 19 5 13 2 -7 2 -19 0 -25z"/>
<path d="M2993 2080 c-1 -22 2 -40 8 -40 5 0 9 13 9 30 0 17 7 33 18 39 15 9
14 10 -8 11 -23 0 -26 -4 -27 -40z"/>
<path d="M2885 2020 c-3 -5 -3 -15 0 -21 4 -6 4 -26 1 -45 l-7 -34 -58 0 c-56
0 -58 1 -54 24 3 13 0 27 -6 30 -6 4 -11 13 -11 19 0 7 4 6 10 -3 8 -12 10
-11 10 8 0 20 -5 22 -45 22 l-46 0 3 -92 3 -93 98 -3 97 -3 0 45 0 46 54 0
c30 0 56 -4 58 -10 2 -5 3 18 3 53 l0 63 -52 2 c-28 1 -54 -2 -58 -8z m-145
-80 c0 -11 -4 -20 -10 -20 -5 0 -10 -12 -10 -27 0 -14 -3 -24 -6 -20 -9 9 6
87 17 87 5 0 9 -9 9 -20z m20 -49 c0 -6 -4 -13 -10 -16 -5 -3 -10 1 -10 9 0 9
5 16 10 16 6 0 10 -4 10 -9z"/>
<path d="M3072 1960 c0 -19 2 -27 5 -17 2 9 2 25 0 35 -3 9 -5 1 -5 -18z"/>
<path d="M3520 1755 l0 -45 50 0 50 0 0 45 0 45 -50 0 -50 0 0 -45z m66 -22
c-10 -10 -19 5 -10 18 6 11 8 11 12 0 2 -7 1 -15 -2 -18z"/>
<path d="M3740 1550 l0 -50 50 0 50 0 0 50 0 50 -50 0 -50 0 0 -50z"/>
</g>
</svg>
