<?xml version="1.0" standalone="no"?>
<!DOCTYPE svg PUBLIC "-//W3C//DTD SVG 20010904//EN"
 "http://www.w3.org/TR/2001/REC-SVG-20010904/DTD/svg10.dtd">
<svg version="1.0" xmlns="http://www.w3.org/2000/svg"
 width="640.000000pt" height="640.000000pt" viewBox="0 0 640.000000 640.000000"
 preserveAspectRatio="xMidYMid meet">
<metadata>
Created by potrace 1.16, written by Peter Selinger 2001-2019
</metadata>
<g transform="translate(0.000000,640.000000) scale(0.100000,-0.100000)"
fill="#000000" stroke="none">
<path d="M2498 5593 c-1 -21 -2 -49 -2 -63 -1 -15 -8 -26 -18 -28 -12 -2 -18
-13 -18 -33 0 -19 -5 -29 -15 -29 -10 0 -15 -10 -15 -30 0 -20 -5 -30 -15 -30
-8 0 -15 -9 -15 -20 0 -17 -7 -20 -50 -20 -40 0 -48 -3 -44 -15 4 -10 20 -15
50 -15 32 0 44 4 44 15 0 8 7 15 15 15 8 0 15 6 15 14 0 7 9 16 20 19 15 4 20
14 20 36 0 21 5 31 15 31 10 0 15 10 15 30 0 20 5 30 15 30 8 0 15 9 15 20 0
22 3 23 38 14 12 -4 22 -13 22 -20 0 -8 7 -14 15 -14 12 0 15 -17 15 -96 0
-86 2 -95 18 -92 14 3 17 17 20 94 3 85 1 92 -18 97 -15 4 -20 13 -20 36 0 21
-5 31 -15 31 -10 0 -15 10 -15 30 0 29 -2 30 -45 30 l-45 0 -2 -37z"/>
<path d="M2565 5500 c3 -5 8 -10 11 -10 2 0 4 5 4 10 0 6 -5 10 -11 10 -5 0
-7 -4 -4 -10z"/>
<path d="M2778 5502 l-28 -3 0 -125 0 -124 35 0 35 0 0 65 c0 40 4 65 11 65 6
0 13 -9 16 -20 3 -11 12 -20 19 -20 8 0 14 9 14 20 0 11 7 20 15 20 12 0 15
-14 15 -65 l0 -65 35 0 36 0 -3 127 c-3 125 -3 127 -25 126 -40 -2 -43 -3 -43
-18 0 -8 -7 -15 -15 -15 -8 0 -15 -7 -15 -15 0 -8 -7 -15 -15 -15 -8 0 -15 7
-15 15 0 8 -7 15 -15 15 -8 0 -15 6 -15 14 0 19 -9 23 -42 18z"/>
<path d="M3578 5502 c-26 -3 -28 -7 -28 -48 0 -32 -4 -44 -15 -44 -11 0 -15
12 -15 45 0 44 -1 45 -33 45 l-33 0 1 -122 1 -123 32 -3 c32 -3 32 -3 32 42 0
34 4 46 15 46 11 0 15 -12 15 -45 0 -45 0 -45 36 -45 l35 0 -3 48 c-2 26 -7
45 -12 42 -5 -3 -12 5 -17 18 -5 12 -15 22 -24 22 -22 0 -18 21 5 27 11 3 20
12 20 19 0 8 7 14 15 14 10 0 15 10 15 29 0 34 -5 38 -42 33z"/>
<path d="M3668 5503 c-16 -4 -18 -19 -18 -129 l0 -124 65 0 65 0 0 30 c0 28
-3 30 -35 30 -24 0 -35 5 -35 15 0 8 6 15 14 15 8 0 18 5 21 11 11 16 -4 59
-20 59 -8 0 -15 7 -15 15 0 10 11 15 35 15 32 0 35 2 35 30 0 26 -4 30 -27 30
-16 0 -37 2 -48 4 -11 2 -28 2 -37 -1z"/>
<path d="M3817 5503 c-4 -3 -7 -33 -7 -65 0 -55 1 -58 25 -58 24 0 25 -2 25
-65 l0 -65 30 0 30 0 0 65 c0 63 1 65 25 65 24 0 25 3 25 60 l0 60 -30 0 c-29
0 -30 -2 -30 -45 0 -38 -3 -45 -20 -45 -17 0 -20 7 -20 44 0 31 -5 46 -16 50
-20 8 -29 8 -37 -1z"/>
<path d="M3040 5485 c0 -8 -7 -15 -15 -15 -12 0 -15 -17 -15 -95 0 -78 3 -95
15 -95 8 0 15 -7 15 -15 0 -12 14 -15 65 -15 51 0 65 3 65 15 0 8 7 15 15 15
12 0 15 17 15 95 0 78 -3 95 -15 95 -8 0 -15 7 -15 15 0 12 -14 15 -65 15 -51
0 -65 -3 -65 -15z m95 -110 l0 -60 -30 0 c-30 0 -30 0 -33 63 l-3 63 33 -3 33
-3 0 -60z"/>
<path d="M3230 5375 l0 -125 35 0 35 0 0 65 c0 40 4 65 11 65 6 0 13 -9 16
-20 3 -11 12 -20 19 -20 10 0 14 -13 14 -45 0 -43 1 -45 30 -45 l30 0 0 125 0
125 -30 0 c-29 0 -30 -2 -30 -45 0 -33 -4 -45 -15 -45 -8 0 -15 7 -15 15 0 8
-7 15 -15 15 -10 0 -15 10 -15 30 0 28 -3 30 -35 30 l-35 0 0 -125z"/>
<path d="M2590 5285 c0 -29 -4 -35 -21 -35 -24 0 -21 -23 4 -28 10 -2 17 3 17
12 0 9 7 16 15 16 10 0 15 10 15 29 0 16 -6 31 -15 35 -12 4 -15 -3 -15 -29z"/>
<path d="M2210 5265 c0 -33 4 -45 15 -45 8 0 15 -9 15 -20 0 -15 7 -20 29 -20
16 0 31 -6 35 -15 4 -12 25 -15 96 -15 71 0 92 3 96 15 4 9 19 15 35 15 22 0
29 5 29 20 0 16 -7 20 -35 20 -24 0 -35 -5 -35 -15 0 -12 -15 -15 -75 -15 -60
0 -75 3 -75 15 0 10 -11 15 -32 16 -18 0 -27 3 -20 6 17 7 15 23 -3 23 -8 0
-15 7 -15 15 0 8 9 15 20 15 11 0 20 7 20 15 0 11 -12 15 -50 15 l-50 0 0 -45z"/>
<path d="M2430 4895 c0 -19 -3 -34 -7 -34 -5 1 -34 1 -65 0 -57 -1 -58 -1 -58
-31 0 -27 -3 -30 -30 -30 l-30 0 0 -65 0 -65 -30 0 c-27 0 -30 -3 -30 -30 0
-28 -3 -30 -35 -30 l-35 0 0 -65 0 -65 -30 0 -30 0 0 -65 0 -65 -35 0 -35 0 0
-95 0 -95 100 0 100 0 0 30 c0 30 0 30 59 30 l60 0 3 33 c3 28 6 32 33 32 30
0 30 0 33 -62 l3 -62 -33 -3 -33 -3 -3 -157 -3 -158 -59 0 c-60 0 -60 0 -60
-29 0 -26 -4 -30 -32 -33 -29 -3 -33 -7 -36 -35 -3 -29 -7 -33 -33 -33 l-29 0
0 -160 0 -160 30 0 c27 0 30 -3 30 -29 0 -26 4 -30 33 -33 28 -3 32 -7 32 -33
1 -26 4 -30 33 -33 28 -3 32 -7 32 -33 l0 -29 95 0 95 0 0 -30 c0 -27 -3 -30
-30 -30 -28 0 -30 -3 -30 -35 0 -32 2 -35 30 -35 27 0 30 -3 30 -30 l0 -30 94
0 95 0 3 -32 c3 -29 7 -33 36 -36 28 -3 32 -7 32 -33 l0 -29 -65 0 -65 0 0
-30 c0 -27 -3 -30 -29 -30 -26 0 -30 -4 -33 -32 -3 -29 -7 -33 -35 -36 -29 -3
-33 -7 -33 -33 0 -25 -4 -29 -29 -29 -26 0 -30 -4 -33 -32 -3 -29 -7 -33 -36
-36 l-33 -3 2 -92 2 -92 -32 -3 -31 -3 0 -65 0 -64 -30 0 c-30 0 -30 0 -30
-59 l0 -60 -32 -3 c-29 -3 -33 -7 -36 -35 -3 -29 -7 -33 -33 -33 l-29 0 0 95
0 95 30 0 30 0 0 65 0 65 35 0 35 0 0 65 0 65 30 0 30 0 0 160 0 160 -30 0
-30 0 0 65 0 65 -35 0 c-32 0 -35 2 -35 30 0 29 -1 29 -62 32 l-63 3 -3 33 -3
33 -157 -3 -157 -3 -3 -32 -3 -33 -65 0 -64 0 0 -30 c0 -27 -3 -30 -30 -30
-27 0 -30 -3 -30 -30 0 -26 -5 -31 -30 -36 l-30 -6 0 -94 0 -94 30 0 c27 0 30
-3 30 -30 l0 -30 95 0 95 0 0 30 c0 28 3 30 35 30 33 0 35 2 35 35 l0 35 95 0
95 0 0 -35 c0 -32 2 -35 30 -35 l30 0 0 -65 0 -65 -30 0 -30 0 0 -60 0 -60
-30 0 -30 0 0 -65 0 -65 -35 0 -35 0 0 -160 0 -160 29 0 c34 0 41 -14 41 -81
0 -48 1 -49 30 -49 27 0 30 -3 30 -30 0 -27 3 -30 29 -30 26 0 30 -4 33 -32 3
-33 3 -33 65 -36 l62 -3 3 -62 c3 -62 3 -62 36 -65 28 -3 32 -7 32 -33 0 -26
3 -29 30 -29 27 0 30 -3 30 -30 l0 -30 130 0 130 0 0 30 c0 27 3 30 30 30 l30
0 0 -64 0 -65 -32 -3 c-31 -3 -31 -3 -32 -63 l-1 -60 -32 -3 -33 -3 0 -95 0
-94 225 0 225 0 0 35 c0 32 2 35 30 35 l30 0 0 125 0 125 35 0 c33 0 35 2 35
35 0 32 2 35 30 35 27 0 30 3 30 30 0 28 3 30 35 30 32 0 35 2 35 30 l0 30 60
0 60 0 0 -190 0 -190 35 0 c30 0 35 3 35 24 0 20 6 25 33 29 l32 4 -35 2 -35
2 25 15 c22 13 23 14 3 9 -17 -5 -22 -2 -20 14 1 15 10 20 39 23 28 3 37 0 34
-9 -3 -7 0 -13 7 -13 7 0 19 -9 27 -20 9 -13 26 -20 47 -20 30 0 33 -3 33 -29
l0 -30 -92 2 -93 2 -3 -33 -3 -32 289 0 289 0 0 83 c0 101 -2 107 -38 107 -26
0 -29 4 -29 30 l0 30 -65 0 -65 0 0 65 0 65 65 0 65 0 0 160 0 160 -30 0 -30
0 0 94 0 95 -32 3 c-33 3 -33 3 -36 65 l-3 63 36 0 c32 0 35 -2 35 -29 0 -25
4 -30 28 -33 22 -2 28 -8 30 -35 l3 -33 94 0 94 0 3 33 c3 32 3 32 66 35 61 3
62 3 62 32 l0 30 65 0 65 0 0 30 c0 29 1 29 63 32 62 3 62 3 65 36 3 28 7 32
33 32 26 0 29 3 29 30 0 27 3 30 29 30 26 0 30 4 33 33 3 28 7 32 36 35 28 3
32 7 32 33 0 26 3 29 30 29 27 0 30 3 30 29 0 26 4 30 33 33 l32 3 3 98 3 97
-36 0 c-32 0 -35 2 -35 30 0 28 3 30 35 30 l35 0 0 130 0 130 -35 0 -35 0 0
59 c0 58 -1 60 -27 63 -23 2 -29 8 -31 36 -3 28 -7 32 -33 32 -31 0 -30 -2
-33 80 l-1 45 -95 0 -95 0 -3 -62 -3 -62 33 -3 33 -3 3 -92 3 -93 -36 0 -35 0
0 -95 0 -94 -62 -3 c-63 -3 -63 -3 -66 -35 -3 -29 -7 -33 -33 -33 l-29 0 0
-65 0 -65 -65 0 -65 0 0 -30 c0 -27 -3 -30 -30 -30 l-30 0 0 -65 0 -65 -30 0
c-29 0 -29 1 -32 63 -3 62 -3 62 -35 65 -29 3 -33 7 -33 33 0 25 -4 29 -29 29
-26 0 -30 4 -33 33 -3 28 -7 32 -35 35 -29 3 -33 7 -33 33 0 27 3 29 35 29 32
0 35 2 35 30 0 29 1 29 63 32 46 2 61 7 59 17 -6 30 9 51 39 51 26 0 29 3 29
30 0 27 3 30 30 30 l30 0 0 160 0 160 35 0 c33 0 35 2 35 35 0 32 2 35 30 35
l31 0 -3 158 -3 157 -27 3 c-24 3 -28 8 -28 33 0 26 -3 29 -34 29 -32 0 -35 3
-38 33 -3 28 -6 32 -30 29 -26 -3 -28 -1 -28 32 l0 36 65 0 66 0 -3 63 c-3 62
-3 62 -35 65 -29 3 -33 7 -33 33 0 26 -3 29 -30 29 l-30 0 0 65 0 65 30 0 30
0 0 65 0 65 -125 0 -125 0 0 95 0 95 -35 0 c-34 0 -35 -1 -35 -36 l0 -37 -41
6 c-22 3 -65 3 -95 0 -51 -6 -54 -7 -54 -34 0 -25 -4 -29 -29 -29 -26 0 -30 4
-33 32 -3 31 -3 31 -63 32 l-60 1 -3 33 -3 32 -65 0 -64 0 0 30 c0 27 -3 30
-29 30 -26 0 -30 4 -33 33 -3 32 -3 32 -65 35 -62 3 -63 3 -63 32 l0 30 -65 0
-65 0 0 30 c0 29 -1 29 -62 32 -63 3 -63 3 -66 36 l-3 32 -160 0 -159 0 0 -35z
m178 -42 c-21 -2 -55 -2 -75 0 -21 2 -4 4 37 4 41 0 58 -2 38 -4z m71 -25 c0
-18 -3 -27 -6 -20 -2 6 -12 12 -21 12 -15 1 -14 2 2 11 15 9 16 13 5 20 -11 7
-10 9 4 9 13 0 17 -8 16 -32z m-254 -49 c-4 -6 -13 -8 -21 -5 -8 3 -13 0 -11
-6 1 -6 -4 -13 -10 -15 -8 -3 -13 4 -13 16 0 17 6 21 31 21 19 0 28 -4 24 -11z
m2 -53 c1 -26 -4 -35 -18 -39 -10 -3 -22 -1 -25 4 -3 5 0 9 5 9 6 0 11 5 11
11 0 6 -9 8 -21 4 -15 -5 -19 -4 -15 4 4 6 16 11 27 11 10 0 19 7 19 15 0 31
16 13 17 -19z m40 28 c-3 -3 -12 -4 -19 -1 -8 3 -5 6 6 6 11 1 17 -2 13 -5z
m348 -24 c3 -5 1 -10 -4 -10 -6 0 -11 5 -11 10 0 6 2 10 4 10 3 0 8 -4 11 -10z
m86 -16 c-36 -15 -67 -12 -56 6 3 5 25 10 48 10 l42 -1 -34 -15z m-382 -11 c1
-58 5 -79 15 -85 7 -5 5 -8 -5 -8 -9 0 -19 10 -23 23 -9 34 -7 87 3 87 6 0 10
-8 10 -17z m-202 -15 c-3 -8 -6 -5 -6 6 -1 11 2 17 5 13 3 -3 4 -12 1 -19z
m743 -33 c0 -8 -4 -15 -10 -15 -5 0 -7 7 -4 15 4 8 8 15 10 15 2 0 4 -7 4 -15z
m-155 -5 c3 -5 1 -10 -4 -10 -6 0 -11 5 -11 10 0 6 2 10 4 10 3 0 8 -4 11 -10z
m103 -7 c-10 -2 -26 -2 -35 0 -10 3 -2 5 17 5 19 0 27 -2 18 -5z m-738 -43 c0
-5 -4 -10 -10 -10 -5 0 -10 5 -10 10 0 6 5 10 10 10 6 0 10 -4 10 -10z m823
-7 c28 -9 19 -23 -13 -21 -16 1 -27 4 -25 7 3 2 -1 11 -8 19 -10 13 -9 15 8 8
11 -5 28 -11 38 -13z m-780 -27 c8 5 8 2 0 -7 -7 -7 -13 -24 -14 -38 0 -25 -1
-25 -9 -5 -7 18 -7 41 0 64 1 3 4 -1 7 -8 2 -6 10 -9 16 -6z m810 -13 c-7 -2
-21 -2 -30 0 -10 3 -4 5 12 5 17 0 24 -2 18 -5z m-53 -45 c0 -16 -3 -19 -11
-11 -6 6 -8 16 -5 22 11 17 16 13 16 -11z m-250 -79 c10 -6 3 -7 -20 -4 -19 2
-39 4 -43 4 -5 1 -5 6 -2 11 7 11 36 6 65 -11z m47 -5 c-3 -3 -12 -4 -19 -1
-8 3 -5 6 6 6 11 1 17 -2 13 -5z m396 -1 c-13 -2 -33 -2 -45 0 -13 2 -3 4 22
4 25 0 35 -2 23 -4z m-516 -45 c-3 -8 -6 -5 -6 6 -1 11 2 17 5 13 3 -3 4 -12
1 -19z m168 -11 c11 -11 10 -16 -6 -25 -17 -11 -19 -9 -19 13 0 28 6 31 25 12z
m-35 -31 c0 -9 -8 -12 -25 -8 -37 7 -41 22 -6 22 20 0 31 -5 31 -14z m60 -6
c0 -5 -4 -10 -10 -10 -5 0 -10 5 -10 10 0 6 5 10 10 10 6 0 10 -4 10 -10z m0
-28 c0 -5 -16 -8 -35 -8 -46 1 -46 16 0 16 19 0 35 -4 35 -8z m-205 -65 c27
-4 27 -4 -7 -6 -30 -1 -38 3 -38 17 0 11 3 13 8 5 4 -6 21 -13 37 -16z m62 -3
c-3 -3 -12 -4 -19 -1 -8 3 -5 6 6 6 11 1 17 -2 13 -5z m-153 -29 c-4 -8 -8
-15 -10 -15 -2 0 -4 7 -4 15 0 8 4 15 10 15 5 0 7 -7 4 -15z m36 5 c0 -5 -5
-10 -11 -10 -5 0 -7 5 -4 10 3 6 8 10 11 10 2 0 4 -4 4 -10z m520 -85 c0 -32
2 -35 30 -35 25 0 30 -4 30 -25 0 -16 -6 -25 -16 -25 -8 0 -12 5 -9 10 3 6 4
14 0 20 -8 12 -35 1 -35 -15 0 -13 -45 -27 -55 -17 -3 3 -5 32 -5 64 0 58 0
58 30 58 28 0 30 -3 30 -35z m188 -62 c-2 -22 -8 -28 -28 -28 -20 0 -26 6 -28
28 -3 24 0 27 28 27 28 0 31 -3 28 -27z m-87 -68 c13 4 19 2 19 -9 0 -10 -9
-16 -25 -16 -22 0 -25 4 -24 33 1 24 3 26 6 9 3 -17 9 -21 24 -17z m19 25 c0
-5 -7 -10 -15 -10 -8 0 -15 5 -15 10 0 6 7 10 15 10 8 0 15 -4 15 -10z m130
-20 c0 -25 -4 -30 -24 -30 -17 0 -25 7 -28 25 -6 30 -2 35 29 35 19 0 23 -5
23 -30z m185 0 c1 -25 -3 -30 -20 -28 -13 2 -21 12 -23 31 -3 23 0 27 20 27
19 0 23 -5 23 -30z m-57 -66 c3 -29 1 -31 -22 -27 -44 9 -47 67 -3 61 16 -2
23 -11 25 -34z m-654 -117 c-3 -7 1 -4 9 6 14 17 30 18 171 16 155 -3 156 -3
156 -26 0 -13 -6 -23 -12 -23 -7 0 -5 -5 4 -11 10 -5 24 -9 30 -8 38 5 48 -2
48 -31 0 -27 3 -30 30 -30 27 0 30 -3 30 -30 0 -28 3 -30 35 -30 32 0 35 2 35
30 0 27 3 30 30 30 28 0 30 3 30 35 0 27 4 35 18 35 40 -1 46 -15 45 -109 l-1
-91 34 0 c31 0 34 -3 34 -30 0 -28 -3 -30 -35 -30 l-35 0 0 -63 c0 -35 2 -66
4 -68 2 -2 32 -2 65 -1 l60 4 3 126 3 127 30 0 c25 0 30 -4 31 -25 4 -99 6
-123 11 -112 2 6 10 12 16 12 7 0 13 11 13 25 1 14 -2 23 -6 20 -5 -3 -11 -1
-15 5 -3 6 4 10 17 10 22 0 23 -3 25 -95 l2 -95 -38 0 -39 0 9 -41 c6 -23 8
-51 7 -63 -2 -17 3 -22 30 -24 l32 -3 0 -95 0 -94 -35 0 c-32 0 -35 -2 -35
-30 0 -27 -3 -30 -30 -30 -26 0 -30 -3 -30 -29 0 -32 15 -28 -162 -43 -23 -2
-28 -7 -28 -30 l0 -28 -218 0 c-120 0 -221 3 -224 6 -3 3 -4 14 -1 24 5 19 31
17 45 -4 4 -6 8 -1 8 12 0 18 -6 22 -32 24 -18 1 -42 3 -53 4 -11 1 -37 2 -57
3 -35 1 -38 3 -38 31 0 28 -3 30 -35 30 -32 0 -35 2 -35 30 0 27 -3 30 -30 30
l-30 0 0 65 0 65 30 0 30 0 0 65 0 65 -30 0 c-27 0 -30 3 -30 29 0 26 -4 30
-32 33 l-33 3 -3 95 c-2 52 0 123 3 158 6 54 9 62 27 62 16 0 19 -5 16 -25 -3
-14 -2 -28 3 -30 4 -3 10 23 14 58 7 63 7 64 38 63 29 -1 32 2 29 26 -2 19 2
27 15 30 24 6 35 -1 27 -15z m726 -7 c0 -26 -3 -30 -29 -30 -28 0 -41 14 -41
46 0 9 11 14 35 14 32 0 35 -2 35 -30z m380 -5 c0 -31 -3 -35 -25 -35 -31 0
-33 -23 -2 -38 22 -10 22 -11 -5 -11 -28 -1 -28 0 -28 59 l0 60 30 0 c28 0 30
-3 30 -35z m-1600 -65 c0 -27 3 -30 33 -30 32 0 33 -2 29 -30 -4 -29 -3 -30
32 -30 l36 0 0 -160 0 -160 -30 0 c-27 0 -30 3 -30 29 0 26 -4 30 -32 33 -29
3 -33 6 -33 33 0 27 3 30 30 30 l30 0 0 65 0 64 -30 1 c-26 0 -30 4 -33 33 -3
28 -7 32 -33 32 -26 0 -29 3 -29 30 l0 30 -65 0 -65 0 0 -30 c0 -27 -3 -30
-30 -30 l-31 0 3 -67 c3 -61 5 -68 23 -67 87 4 83 2 77 32 -4 21 -2 25 8 15 7
-7 15 -45 18 -86 4 -72 5 -74 36 -83 22 -6 31 -15 32 -32 2 -33 9 -35 22 -6 7
14 8 23 2 19 -5 -3 -10 -1 -10 4 0 6 9 11 19 11 15 0 21 -8 23 -32 2 -28 8
-34 31 -36 21 -3 27 -9 27 -28 l0 -24 -122 1 c-68 1 -111 4 -95 6 20 3 27 10
27 27 0 17 -6 23 -22 23 -97 1 -97 1 -100 36 -2 26 -8 33 -29 35 -23 3 -27 9
-33 49 -3 25 -6 95 -6 154 l0 109 35 0 c32 0 35 2 35 30 l0 30 125 0 125 0 0
-30z m1410 -30 l0 -60 -30 0 c-26 0 -30 3 -30 29 0 26 -3 29 -47 35 -27 4 -56
7 -65 7 -12 0 -18 8 -18 25 0 24 1 24 95 24 l95 0 0 -60z m250 -95 l0 -155
-30 0 c-27 0 -30 -3 -30 -30 0 -27 -3 -30 -30 -30 l-30 0 0 120 0 120 30 0 30
0 0 65 0 65 30 0 30 0 0 -155z m-1818 -20 c-2 -25 -8 -45 -13 -45 -5 0 -9 20
-9 45 0 29 4 45 13 45 8 0 11 -14 9 -45z m88 35 c0 -5 -5 -10 -11 -10 -5 0 -7
5 -4 10 3 6 8 10 11 10 2 0 4 -4 4 -10z m65 -66 c1 -5 0 -6 -2 -1 -3 4 -9 7
-14 7 -6 0 -8 -4 -5 -9 4 -5 -4 -7 -16 -3 -21 5 -21 6 -2 13 22 9 37 6 39 -7z
m-96 -26 c12 -15 11 -18 -3 -18 -10 0 -16 8 -16 22 0 12 1 19 3 17 1 -2 9 -12
16 -21z m31 -99 c0 -31 -6 -35 -30 -19 -11 7 -11 10 -2 10 7 0 11 4 8 9 -8 13
4 42 15 35 5 -3 9 -18 9 -35z m318 -148 c3 -16 -2 -21 -20 -21 -19 0 -24 6
-26 30 -2 27 0 29 20 21 13 -4 24 -18 26 -30z m1861 6 c-1 -16 -3 -17 -6 -5
-2 9 -10 15 -18 12 -7 -3 -15 -2 -18 3 -3 5 5 10 19 11 19 1 24 -3 23 -21z m9
-64 c3 -29 7 -33 33 -33 28 0 30 -2 27 -32 -3 -31 -1 -33 30 -36 l32 -3 0 -95
0 -94 -30 0 -30 0 0 -60 0 -60 -35 0 c-32 0 -35 -2 -35 -30 0 -32 3 -31 -85
-34 -38 -1 -40 -3 -43 -33 -3 -29 -7 -33 -33 -33 -26 0 -29 -3 -29 -30 0 -27
-3 -30 -29 -30 -26 0 -30 -4 -33 -32 l-3 -33 -90 0 -90 0 -5 30 c-4 26 -9 30
-35 30 -25 0 -30 4 -33 28 -2 15 1 28 7 28 6 1 20 3 31 4 11 1 36 3 55 4 32 1
35 4 35 31 l0 30 65 0 65 0 0 30 c0 27 3 30 30 30 l30 0 0 65 0 65 35 0 35 0
0 95 0 95 30 0 30 0 0 63 c0 72 4 79 40 75 20 -2 26 -9 28 -35z m-968 -323 c0
-15 -7 -20 -25 -20 -16 0 -25 6 -25 15 0 8 5 15 11 15 5 0 7 -6 3 -12 -4 -7 2
-5 12 5 23 21 24 21 24 -3z m1087 -12 c-3 -8 -6 -5 -6 6 -1 11 2 17 5 13 3 -3
4 -12 1 -19z m-382 -48 c0 -20 -6 -26 -27 -28 -25 -3 -28 0 -28 28 0 28 3 31
28 28 21 -2 27 -8 27 -28z m385 -130 l0 -90 -30 0 -30 0 0 90 0 90 30 0 30 0
0 -90z m-127 -81 c4 -28 4 -71 0 -95 -5 -40 -8 -44 -34 -44 -26 0 -29 -4 -29
-31 l0 -30 -90 2 c-49 1 -90 6 -90 10 0 5 12 9 28 9 21 0 24 2 12 10 -20 13
-100 13 -100 0 0 -5 5 -10 10 -10 6 0 10 -4 10 -10 0 -5 -7 -10 -16 -10 -10 0
-14 7 -12 23 3 20 9 22 67 25 l63 3 -7 65 -7 64 31 0 c27 0 32 -4 37 -29 5
-25 12 -30 38 -33 25 -2 31 -7 30 -25 -1 -18 4 -23 22 -23 19 0 24 5 24 25 0
20 -5 25 -25 25 -24 0 -25 3 -25 55 0 45 -3 55 -17 56 -10 1 -4 5 12 9 59 15
62 14 68 -41z m-103 31 c0 -5 -2 -10 -4 -10 -3 0 -8 5 -11 10 -3 6 -1 10 4 10
6 0 11 -4 11 -10z m20 -36 c0 -2 -9 -4 -20 -4 -11 0 -20 4 -20 9 0 5 9 7 20 4
11 -3 20 -7 20 -9z m-1143 0 c-3 -3 -12 -4 -19 -1 -8 3 -5 6 6 6 11 1 17 -2
13 -5z m-927 -18 c0 -3 -4 -8 -10 -11 -5 -3 -10 -1 -10 4 0 6 5 11 10 11 6 0
10 -2 10 -4z m2210 -21 c0 -14 -5 -25 -11 -25 -6 0 -9 7 -5 15 3 8 -2 19 -12
24 -15 9 -14 10 6 11 17 0 22 -6 22 -25z m-1133 -77 c-3 -7 -5 -2 -5 12 0 14
2 19 5 13 2 -7 2 -19 0 -25z m1053 12 c0 -5 -5 -10 -11 -10 -5 0 -7 5 -4 10 3
6 8 10 11 10 2 0 4 -4 4 -10z m-1580 -325 c0 -21 -5 -25 -29 -25 -17 0 -32 4
-35 9 -4 5 7 7 25 4 28 -4 30 -2 24 16 -4 12 -2 21 4 21 6 0 11 -11 11 -25z
m57 -107 c-2 -13 -4 -5 -4 17 -1 22 1 32 4 23 2 -10 2 -28 0 -40z m-40 0 c-3
-7 -5 -2 -5 12 0 14 2 19 5 13 2 -7 2 -19 0 -25z m-207 -18 c0 -27 -3 -30 -30
-30 -27 0 -30 3 -30 30 0 27 3 30 30 30 27 0 30 -3 30 -30z m-320 -129 c0 -26
4 -30 33 -33 28 -3 32 -7 32 -33 1 -26 4 -29 30 -30 30 0 30 -1 33 -62 l3 -63
-31 0 c-27 0 -30 3 -30 30 0 28 -3 30 -35 30 l-35 0 0 -65 0 -65 30 0 c27 0
30 -3 30 -30 l0 -30 -60 0 -60 0 0 65 0 65 -35 0 -35 0 0 -59 c0 -54 -2 -59
-24 -63 -24 -5 -25 -2 -32 59 -6 61 -7 63 -35 63 l-29 0 0 98 c0 84 2 94 13
72 18 -35 47 -39 47 -6 0 22 4 26 30 26 27 0 30 -3 30 -30 0 -28 3 -30 35 -30
32 0 35 2 35 30 0 25 4 30 25 30 16 0 25 6 25 16 0 11 -6 15 -20 11 -11 -3
-20 -4 -20 -2 0 2 -3 10 -6 19 -5 13 1 16 25 16 28 0 31 -3 31 -29z m1020
-256 c0 -14 -4 -25 -9 -25 -4 0 -6 11 -3 25 2 14 6 25 8 25 2 0 4 -11 4 -25z
m130 -195 l0 -30 65 0 65 0 0 -35 c0 -32 -2 -35 -30 -35 -25 0 -30 -4 -30 -25
0 -21 5 -25 30 -25 28 0 30 -3 30 -35 l0 -36 -62 3 c-63 3 -63 3 -63 33 0 26
-4 30 -28 31 -36 1 -38 3 -39 58 0 25 -5 49 -10 52 -5 4 -23 -7 -40 -22 -21
-20 -29 -23 -25 -11 4 11 1 17 -8 17 -8 0 -15 -5 -15 -12 0 -17 -13 0 -17 21
-2 13 4 18 20 18 12 1 48 1 81 2 l58 1 -4 30 c-3 20 0 30 9 30 8 0 13 -12 13
-30z m-900 -60 c0 -28 2 -30 38 -30 35 0 38 2 38 28 -1 22 4 28 25 30 26 3 27
1 34 -57 7 -59 8 -61 36 -61 l29 0 0 -65 0 -65 -65 0 -65 0 -1 33 c-1 17 -1
44 0 60 1 24 -3 27 -29 27 l-30 0 0 -60 0 -60 -36 0 c-33 0 -35 2 -34 28 1 15
2 42 1 60 -1 29 -4 32 -31 32 -28 0 -30 3 -30 35 0 35 0 35 45 35 36 0 45 4
46 18 0 15 2 14 10 -3 8 -19 9 -19 6 -1 -3 25 -27 33 -28 9 0 -11 -3 -13 -6
-5 -8 21 5 42 27 42 16 0 20 -7 20 -30z m1160 -96 l0 -64 -29 0 c-26 0 -30 4
-33 33 -2 20 -9 32 -18 33 -46 3 -50 5 -50 27 0 33 5 36 71 35 l59 -1 0 -63z
m-1280 -19 c0 -9 7 -18 16 -22 15 -5 15 -7 0 -15 -9 -5 -16 -22 -16 -38 0 -27
-3 -30 -30 -30 l-30 0 0 60 0 60 30 0 c20 0 30 -5 30 -15z"/>
<path d="M3600 4006 c0 -8 5 -18 10 -21 6 -3 10 3 10 14 0 12 -4 21 -10 21 -5
0 -10 -6 -10 -14z"/>
<path d="M2915 3790 c-3 -5 -1 -10 4 -10 6 0 11 5 11 10 0 6 -2 10 -4 10 -3 0
-8 -4 -11 -10z"/>
<path d="M2880 3680 c0 -28 3 -30 35 -30 32 0 35 -2 35 -30 0 -28 3 -30 38
-32 20 0 43 -1 50 -1 17 1 5 -38 -17 -54 -9 -7 -44 -13 -78 -13 l-63 0 0 -30
c0 -21 5 -30 18 -32 9 0 22 -2 27 -3 6 -2 54 -3 108 -4 l97 -1 0 -30 c0 -27 3
-30 34 -30 28 0 35 4 40 25 9 35 1 45 -35 45 -26 0 -29 3 -29 30 l0 30 67 -6
c37 -3 71 -8 75 -10 4 -3 8 0 8 5 0 6 -4 11 -9 11 -6 0 -11 15 -13 33 -3 28
-7 32 -35 35 -29 3 -33 7 -33 33 l0 29 -65 0 -65 0 0 30 0 30 -95 0 -95 0 0
-30z m190 -55 c0 -8 -7 -15 -15 -15 -8 0 -15 4 -15 9 0 5 -9 7 -20 4 -11 -3
-17 -10 -14 -15 4 -6 -5 -2 -20 7 -14 10 -26 19 -26 21 0 2 25 4 55 4 42 0 55
-3 55 -15z m58 -81 c-3 -14 -5 -12 -10 9 -3 19 -2 25 4 19 6 -6 8 -18 6 -28z"/>
<path d="M3443 3573 c15 -2 37 -2 50 0 12 2 0 4 -28 4 -27 0 -38 -2 -22 -4z"/>
<path d="M3015 3560 c3 -5 8 -10 11 -10 2 0 4 5 4 10 0 6 -5 10 -11 10 -5 0
-7 -4 -4 -10z"/>
<path d="M3567 3550 c3 -11 7 -20 9 -20 2 0 4 9 4 20 0 11 -4 20 -9 20 -5 0
-7 -9 -4 -20z"/>
<path d="M2880 3360 l0 -30 60 1 c59 1 60 1 60 30 0 29 0 29 -60 29 -60 0 -60
0 -60 -30z"/>
<path d="M3720 3356 c0 -19 5 -24 20 -23 14 1 20 8 20 24 0 16 -6 23 -20 23
-15 0 -20 -7 -20 -24z"/>
<path d="M3590 3355 c0 -8 4 -15 10 -15 5 0 7 7 4 15 -4 8 -8 15 -10 15 -2 0
-4 -7 -4 -15z"/>
<path d="M3240 3339 c0 -5 5 -7 10 -4 6 3 10 8 10 11 0 2 -4 4 -10 4 -5 0 -10
-5 -10 -11z"/>
<path d="M3388 3300 c-6 -37 -3 -40 39 -40 l33 0 0 -60 0 -60 31 0 c24 0 30 3
25 16 -3 9 -6 24 -6 35 0 10 -7 19 -15 19 -8 0 -12 6 -9 14 3 8 12 12 20 9 8
-3 14 1 14 10 0 10 11 17 32 19 29 3 33 7 35 36 3 30 1 32 -32 32 -33 0 -35
-2 -35 -35 0 -32 -2 -35 -30 -35 -28 0 -30 3 -30 35 0 33 -2 35 -34 35 -30 0
-34 -3 -38 -30z"/>
<path d="M3336 3305 c4 -8 10 -12 15 -9 14 8 10 24 -6 24 -9 0 -12 -6 -9 -15z"/>
<path d="M3070 3235 c0 -32 -2 -35 -30 -35 l-30 0 0 -65 0 -65 30 0 c27 0 30
-3 30 -30 0 -28 3 -30 35 -30 32 0 35 2 35 30 0 28 -3 30 -35 30 l-35 0 0 65
0 65 35 0 c32 0 35 -2 35 -30 0 -27 3 -30 30 -30 27 0 30 3 30 30 0 27 -3 30
-30 30 -28 0 -30 3 -30 35 0 33 -2 35 -35 35 -33 0 -35 -2 -35 -35z"/>
<path d="M3650 3170 c0 -26 -3 -30 -29 -30 -31 0 -43 -16 -34 -49 4 -15 13
-21 34 -21 26 0 29 4 29 30 0 29 7 34 43 31 13 -2 17 5 17 33 0 33 -2 36 -30
36 -27 0 -30 -3 -30 -30z"/>
<path d="M3520 3040 c0 -28 3 -30 35 -30 32 0 35 2 35 30 0 28 -3 30 -35 30
-32 0 -35 -2 -35 -30z"/>
<path d="M3144 3001 c-2 -2 -4 -15 -4 -28 l0 -23 190 0 190 0 0 25 0 24 -186
3 c-102 2 -188 1 -190 -1z"/>
<path d="M2130 3428 c1 -21 1 -22 11 -4 9 15 13 16 21 5 8 -11 9 -11 5 1 -2 8
-11 16 -20 18 -12 3 -17 -3 -17 -20z"/>
<path d="M3670 3751 c0 -11 26 -22 34 -14 12 12 5 23 -14 23 -11 0 -20 -4 -20
-9z"/>
<path d="M4048 3633 c6 -2 18 -2 25 0 6 3 1 5 -13 5 -14 0 -19 -2 -12 -5z"/>
<path d="M4060 3610 c0 -5 5 -10 10 -10 6 0 10 5 10 10 0 6 -4 10 -10 10 -5 0
-10 -4 -10 -10z"/>
<path d="M4402 2540 c0 -14 2 -19 5 -12 2 6 2 18 0 25 -3 6 -5 1 -5 -13z"/>
<path d="M2260 1639 c0 -18 2 -19 15 -9 8 7 15 16 15 21 0 5 -7 9 -15 9 -9 0
-15 -9 -15 -21z"/>
<path d="M3432 1333 c4 -3 4 -11 1 -19 -3 -8 0 -14 7 -14 14 0 9 33 -5 35 -5
1 -7 0 -3 -2z"/>
<path d="M3360 1309 c0 -5 5 -7 10 -4 6 3 10 8 10 11 0 2 -4 4 -10 4 -5 0 -10
-5 -10 -11z"/>
</g>
</svg>
