<?xml version="1.0" standalone="no"?>
<!DOCTYPE svg PUBLIC "-//W3C//DTD SVG 20010904//EN"
 "http://www.w3.org/TR/2001/REC-SVG-20010904/DTD/svg10.dtd">
<svg version="1.0" xmlns="http://www.w3.org/2000/svg"
 width="640.000000pt" height="640.000000pt" viewBox="0 0 640.000000 640.000000"
 preserveAspectRatio="xMidYMid meet">
<metadata>
Created by potrace 1.16, written by Peter Selinger 2001-2019
</metadata>
<g transform="translate(0.000000,640.000000) scale(0.100000,-0.100000)"
fill="#000000" stroke="none">
<path d="M2818 5668 c-3 -33 -3 -33 -65 -36 -62 -3 -63 -3 -63 -32 0 -28 -3
-30 -35 -30 -33 0 -35 -2 -35 -35 0 -32 -2 -35 -30 -35 -27 0 -30 -3 -30 -30
0 -27 -3 -30 -30 -30 -29 0 -29 -1 -32 -62 -3 -63 -3 -63 -35 -66 l-33 -3 0
-95 0 -94 -30 0 -30 0 0 -95 0 -95 -35 0 c-33 0 -35 -2 -35 -35 0 -32 -2 -35
-30 -35 -27 0 -30 -3 -30 -30 0 -27 -3 -30 -30 -30 -29 0 -37 -14 -31 -52 0
-5 -15 -8 -34 -8 -33 0 -35 -2 -35 -35 0 -32 -2 -35 -30 -35 -27 0 -30 -3 -30
-30 l0 -30 -65 0 -65 0 0 -30 c0 -34 -19 -42 -85 -38 -38 3 -40 2 -43 -29 l-3
-33 -95 0 -94 0 0 -30 c0 -27 -3 -30 -30 -30 -23 0 -30 -5 -31 -20 -1 -11 -2
-26 -3 -32 0 -7 -16 -14 -33 -16 l-33 -3 0 -94 0 -94 33 -3 c26 -2 33 -8 35
-30 3 -21 9 -27 30 -30 22 -2 28 -9 30 -35 l3 -33 65 0 64 0 0 -30 0 -30 160
0 160 0 0 -130 0 -130 30 0 c29 0 29 -1 32 -62 3 -60 4 -63 31 -66 15 -2 28
-10 28 -18 1 -8 2 -20 3 -26 0 -7 16 -14 34 -16 28 -3 32 -7 32 -33 0 -26 3
-29 30 -29 28 0 30 -3 30 -35 0 -33 2 -35 35 -35 32 0 35 -2 35 -30 0 -29 1
-29 63 -32 62 -3 62 -3 62 -33 0 -27 -4 -30 -32 -33 l-33 -3 0 -60 c0 -59 0
-59 -29 -59 -26 0 -30 -4 -33 -32 -3 -29 -7 -33 -35 -36 l-33 -3 0 -65 0 -64
-30 0 -30 0 0 -60 c0 -60 0 -60 -29 -60 -26 0 -30 -4 -33 -32 -3 -29 -7 -33
-35 -36 -29 -3 -33 -7 -33 -33 0 -26 -3 -29 -30 -29 -27 0 -30 3 -30 29 0 26
-4 30 -32 33 -35 3 -34 1 -37 88 -1 38 -3 40 -31 40 l-30 0 0 65 0 65 35 0 36
0 -3 63 c-3 62 -3 62 -35 65 l-33 3 0 60 c0 59 0 59 -30 59 l-30 0 0 65 0 65
-35 0 c-33 0 -35 2 -35 35 l0 35 -124 0 -125 0 -3 -32 c-3 -29 -7 -33 -35 -36
l-33 -3 0 -124 0 -124 33 -3 c28 -3 32 -6 32 -33 0 -30 0 -30 -62 -33 l-63 -3
0 -94 0 -95 30 0 c27 0 30 -3 30 -30 l0 -30 95 0 95 0 0 -35 c0 -33 2 -35 35
-35 l35 0 0 -65 0 -65 30 0 30 0 0 -95 0 -95 -30 0 -30 0 0 -125 0 -125 30 0
c28 0 30 -3 30 -35 0 -33 2 -35 35 -35 32 0 35 -2 35 -30 0 -30 0 -30 59 -30
l60 0 3 -32 c3 -29 7 -33 36 -36 28 -3 32 -7 32 -33 0 -26 3 -29 30 -29 l30 0
0 -65 0 -65 35 0 c32 0 35 -2 35 -30 0 -27 3 -30 30 -30 l30 0 0 -95 0 -95 29
0 c26 0 30 -4 33 -32 3 -29 7 -33 36 -36 28 -3 32 -7 32 -33 0 -26 3 -29 30
-29 28 0 30 -3 30 -35 0 -33 2 -35 35 -35 33 0 36 -2 33 -27 -3 -25 1 -28 30
-31 l33 -3 -3 -127 -3 -127 -31 -3 -31 -3 4 -59 5 -59 -34 -3 -33 -3 -3 -127
-3 -128 226 0 225 0 0 29 c0 26 4 30 31 33 l32 3 -2 92 c-2 88 -1 93 18 94 12
1 27 2 34 3 8 1 13 23 15 64 3 61 3 62 32 62 l30 0 0 64 0 65 33 3 32 3 3 93
3 92 94 0 95 0 0 -30 c0 -27 3 -30 30 -30 27 0 30 -3 30 -29 0 -26 4 -30 33
-33 28 -3 32 -7 35 -36 3 -28 7 -32 33 -32 l29 0 0 -125 0 -125 -30 0 -30 0 0
-130 0 -130 220 0 220 0 0 29 c0 26 4 30 33 33 l32 3 5 95 c5 94 5 95 30 95
l25 0 3 127 3 127 32 3 32 3 3 127 3 128 94 0 95 0 0 30 c0 27 3 30 29 30 26
0 30 4 33 33 3 28 7 32 36 35 28 3 32 7 32 33 l0 29 95 0 95 0 0 30 c0 29 1
29 63 32 62 3 62 3 65 35 3 29 7 33 33 33 26 0 29 3 29 30 0 27 3 30 30 30 29
0 29 1 32 63 3 62 3 62 36 65 28 3 32 7 32 33 0 26 3 29 30 29 l30 0 0 100 0
100 -30 0 -30 0 0 124 0 125 -32 3 c-29 3 -33 7 -33 33 -1 26 -4 30 -33 33
-28 3 -32 7 -32 33 0 26 -3 29 -30 29 -27 0 -30 -3 -30 -29 0 -26 -4 -30 -32
-33 -29 -3 -33 -7 -36 -35 -3 -29 -7 -33 -33 -33 -26 0 -29 -3 -29 -30 l0 -30
-65 0 -65 0 0 30 c0 27 -3 30 -30 30 l-30 0 0 94 0 95 -32 3 c-33 3 -33 3 -36
66 -3 61 -3 62 -32 62 l-30 0 0 65 0 65 -35 0 -35 0 0 65 0 65 -30 0 -30 0 0
65 0 65 -30 0 c-27 0 -30 3 -30 30 0 28 -3 30 -35 30 l-35 0 0 65 0 65 -30 0
c-27 0 -30 3 -30 29 0 26 -4 30 -32 33 -29 3 -33 7 -33 33 -1 26 -4 30 -33 33
l-32 3 0 59 0 59 33 3 c20 2 32 9 33 18 3 48 4 50 34 50 l30 0 0 65 0 65 30 0
c30 0 30 0 30 59 l0 60 33 3 c28 3 32 7 35 36 l3 32 59 0 59 0 3 -32 3 -33
193 -3 192 -2 0 35 0 35 65 0 65 0 0 30 c0 27 3 30 30 30 28 0 30 3 30 35 0
33 2 35 35 35 32 0 35 2 35 30 0 27 3 30 30 30 l30 0 0 95 0 95 -29 0 c-26 0
-30 4 -33 33 -3 32 -3 32 -65 35 -62 3 -63 3 -63 32 l0 30 -64 0 -65 0 -3 33
-3 32 -90 0 -90 0 -5 30 c-5 29 -7 30 -67 33 -62 3 -63 3 -63 32 l0 30 -65 0
-65 0 0 35 c0 32 -2 35 -30 35 -30 0 -30 0 -30 59 l0 60 -32 3 -33 3 0 95 0
95 33 3 32 3 0 60 c0 59 0 59 30 59 28 0 30 3 30 35 0 32 2 35 30 35 27 0 30
3 30 30 0 28 3 30 35 30 33 0 35 2 35 35 0 32 2 35 30 35 l30 0 0 95 0 95
-189 0 -190 0 -3 -32 c-3 -33 -3 -33 -65 -36 -62 -3 -63 -3 -63 -32 l0 -30
-65 0 -65 0 0 -30 c0 -27 -3 -30 -30 -30 -28 0 -30 -3 -30 -35 0 -33 -2 -35
-35 -35 -32 0 -35 -2 -35 -30 l0 -30 -60 0 c-60 0 -60 0 -60 30 l0 30 -257 2
-258 3 -2 93 -1 92 34 0 34 0 0 100 0 100 -94 0 -95 0 -3 -32z m62 -132 c0
-21 -6 -25 -32 -28 -29 -3 -33 -7 -36 -35 -3 -29 -7 -33 -33 -33 -25 0 -29 -4
-29 -29 0 -29 -1 -29 -60 -33 l-60 -3 0 33 c0 29 3 32 30 32 27 0 30 3 30 30
0 28 3 30 35 30 32 0 35 2 35 30 l0 30 60 0 c57 0 60 -1 60 -24z m1210 -131
c0 -19 -6 -24 -32 -27 -29 -3 -33 -6 -30 -30 2 -18 -1 -28 -10 -29 -7 -1 -22
-2 -33 -3 -15 -1 -21 -9 -23 -33 -3 -27 -8 -33 -27 -33 -19 0 -24 6 -27 33 -2
26 -8 33 -29 35 -19 2 -28 10 -32 28 -4 23 -3 24 59 24 l64 0 0 33 0 32 60 -3
c55 -4 60 -6 60 -27z m-1405 -112 c-2 -10 -4 -24 -4 -30 -1 -9 -20 -13 -61
-13 l-60 0 0 30 0 30 64 0 c56 0 64 -2 61 -17z m1155 -18 c0 -32 2 -35 30 -35
25 0 30 -4 30 -25 0 -21 -5 -25 -30 -25 -28 0 -30 -3 -30 -35 0 -33 -2 -35
-35 -35 -32 0 -35 -2 -35 -31 0 -27 -3 -30 -27 -27 -24 3 -28 7 -25 31 3 25 1
27 -32 27 -34 0 -36 -2 -36 -35 0 -32 2 -35 30 -35 30 0 30 0 30 -59 l0 -60
-32 -3 c-29 -3 -33 -6 -30 -30 2 -25 0 -28 -28 -28 -27 0 -30 3 -30 30 0 28
-3 30 -36 30 -34 0 -35 -1 -32 -32 3 -29 7 -32 33 -33 26 0 30 -4 33 -32 l3
-33 125 0 124 0 0 30 c0 28 3 30 35 30 32 0 35 -2 35 -30 0 -27 3 -30 31 -30
28 0 30 -2 27 -32 -3 -29 -7 -33 -35 -36 -28 -3 -31 -6 -29 -30 3 -27 4 -27
92 -30 91 -4 105 -10 97 -43 -5 -16 0 -19 31 -19 34 0 36 -1 36 -35 l0 -35 65
0 65 0 0 -30 c0 -30 0 -30 59 -30 l60 0 3 -32 c3 -28 7 -32 33 -33 96 -3 95
-3 95 -35 l0 -30 99 0 100 0 -4 -30 c-4 -28 -2 -30 30 -30 l35 0 0 -66 0 -65
-32 3 c-28 2 -34 8 -36 31 -3 23 -8 27 -33 27 -26 0 -29 -3 -29 -30 0 -27 3
-30 30 -30 27 0 30 -3 30 -30 0 -30 0 -30 -59 -30 l-60 0 -3 -32 -3 -33 -125
-3 c-69 -2 -153 0 -187 3 -61 6 -63 7 -63 36 0 27 -3 29 -35 29 -32 0 -35 2
-35 30 l0 30 125 0 125 0 0 30 0 30 130 0 130 0 0 35 0 35 -285 0 -285 0 0 30
0 30 -64 0 -65 0 -3 33 c-3 28 -6 32 -33 32 -27 0 -30 4 -33 33 -3 28 -7 32
-33 32 l-29 0 0 -125 0 -125 30 0 c28 0 30 -3 30 -34 0 -32 3 -35 33 -38 l32
-3 3 -122 3 -122 -33 -3 -33 -3 -3 -62 c-3 -62 -3 -63 -32 -63 -26 0 -29 -4
-32 -37 -3 -35 -5 -38 -30 -35 -33 4 -38 -15 -6 -20 14 -2 24 -11 25 -23 l3
-20 -9 20 c-8 17 -10 18 -10 3 -1 -10 -6 -18 -12 -18 -5 0 -7 6 -3 13 5 8 2 8
-9 -2 -9 -7 -18 -25 -18 -40 -2 -24 -2 -24 -6 -3 -3 17 -10 22 -26 20 -28 -4
-29 -31 -2 -40 12 -3 -1 -6 -32 -7 -51 -1 -52 -2 -55 -33 l-3 -33 -64 -3 -63
-3 4 -30 5 -29 -69 0 -68 0 0 -35 0 -35 -125 0 -125 0 0 -29 c0 -28 -2 -29
-65 -36 l-65 -7 0 -44 c0 -35 4 -44 17 -44 16 0 16 -1 0 -12 -12 -9 -17 -32
-19 -78 l-3 -65 -62 3 -63 4 0 -36 c0 -32 -3 -35 -32 -38 -28 -2 -34 -8 -36
-30 -3 -24 -8 -28 -33 -28 l-29 0 0 95 0 95 -30 0 -30 0 0 95 0 95 -65 0 -65
0 0 30 c0 27 -3 30 -29 30 -26 0 -30 4 -33 33 -3 32 -3 32 -65 35 -62 3 -63 3
-63 32 0 26 -4 30 -29 30 -26 0 -30 4 -33 33 -3 28 -7 32 -35 35 l-33 3 0 60
c0 59 0 59 -30 59 l-30 0 0 160 0 160 30 0 30 0 0 65 c0 65 0 65 29 65 26 0
29 3 35 46 3 26 6 69 6 95 0 48 1 49 30 49 27 0 30 3 30 30 0 27 3 30 30 30
l30 0 0 -154 0 -154 30 -4 c17 -3 32 -2 35 0 3 3 5 61 5 129 l0 123 30 0 c28
0 30 3 30 35 0 32 -2 35 -30 35 -27 0 -30 3 -30 30 l0 30 -65 0 -65 0 0 -31
c0 -28 -2 -30 -32 -27 l-33 3 -2 85 c-1 47 -2 90 -3 96 0 6 -13 9 -30 6 -30
-4 -30 -5 -30 -68 l0 -64 -30 0 c-27 0 -30 -3 -30 -30 l0 -30 -65 0 -65 0 0
-35 0 -35 -160 0 -160 0 0 -30 0 -30 95 0 95 0 0 -29 c0 -35 16 -41 118 -41
l72 0 0 -30 c0 -27 -3 -30 -30 -30 -27 0 -30 -3 -30 -30 l0 -30 -160 0 -160 0
0 29 c0 26 -4 30 -32 33 -27 2 -33 7 -33 28 0 21 6 26 33 28 31 3 33 6 30 35
-3 28 -7 32 -33 32 -28 0 -30 -2 -27 -32 2 -31 0 -33 -33 -33 l-35 0 0 65 0
65 65 0 65 0 0 30 0 30 95 0 95 0 0 35 0 35 65 0 65 0 0 30 c0 27 3 30 29 30
26 0 30 4 33 33 3 28 7 32 36 35 28 3 32 7 32 33 0 26 3 29 30 29 27 0 30 3
30 30 0 27 3 30 30 30 27 0 30 -3 30 -30 0 -28 3 -30 35 -30 l35 0 0 65 0 65
30 0 c29 0 29 1 32 63 3 62 3 62 36 65 28 3 32 7 32 33 0 26 3 29 30 29 27 0
30 3 30 29 0 26 4 30 33 33 28 3 32 7 35 36 l3 32 95 0 94 0 0 30 0 30 285 0
285 0 0 -29 c0 -26 4 -30 33 -33 35 -3 33 5 35 -120 l2 -68 30 0 29 0 3 93 3
92 63 3 62 3 0 59 0 59 33 3 c28 3 32 7 35 36 l3 32 60 0 59 0 0 -35z m-397
-2002 c-7 -2 -19 -2 -25 0 -7 3 -2 5 12 5 14 0 19 -2 13 -5z m-236 -19 c-3 -3
-12 -4 -19 -1 -8 3 -5 6 6 6 11 1 17 -2 13 -5z m46 -1 c-7 -2 -19 -2 -25 0 -7
3 -2 5 12 5 14 0 19 -2 13 -5z m324 -435 c-2 -13 -4 -3 -4 22 0 25 2 35 4 23
2 -13 2 -33 0 -45z m-1000 -135 c-3 -10 -5 -4 -5 12 0 17 2 24 5 18 2 -7 2
-21 0 -30z m-467 -218 c0 -32 2 -35 30 -35 27 0 30 -3 30 -30 0 -27 -3 -30
-30 -30 -27 0 -30 -3 -30 -30 0 -27 -3 -30 -30 -30 -27 0 -30 3 -30 30 0 26
-3 30 -29 30 -17 0 -31 6 -35 16 -8 21 -8 99 1 107 3 4 33 7 65 7 l58 0 0 -35z
m-190 -65 c0 -27 3 -30 30 -30 l30 0 0 -65 0 -65 35 0 36 0 -3 -62 -3 -63 -62
-3 -63 -3 0 36 c0 32 -2 35 -30 35 -27 0 -30 3 -30 29 0 26 -4 30 -32 33 l-33
3 0 60 0 60 33 3 c28 3 32 7 32 33 0 26 3 29 30 29 27 0 30 -3 30 -30z m2880
-130 l0 -160 30 0 30 0 0 -65 0 -65 -30 0 c-27 0 -30 -3 -30 -30 l0 -30 -65 0
-65 0 0 -29 c0 -26 4 -30 33 -33 28 -3 32 -6 32 -33 0 -30 0 -30 -62 -33 -62
-3 -63 -3 -63 -32 l0 -30 -95 0 -95 0 0 95 0 95 30 0 30 0 0 160 0 160 65 0
65 0 0 30 c0 29 1 29 63 32 l62 3 3 63 c3 61 3 62 32 62 l30 0 0 -160z m-2560
35 l0 -65 -30 0 -30 0 0 65 0 65 30 0 30 0 0 -65z m2112 -97 c2 -28 8 -34 31
-36 l27 -3 0 -85 c0 -46 -1 -87 -2 -91 -2 -4 -14 -7 -28 -7 -21 -1 -26 -7 -28
-33 l-3 -33 -95 0 -94 0 0 66 0 65 -32 -3 c-28 -2 -34 -8 -36 -30 -3 -24 -8
-28 -33 -28 -29 0 -29 0 -29 60 l0 60 35 0 c32 0 35 2 35 29 0 29 1 30 65 36
63 7 65 8 65 36 0 29 1 29 59 29 l60 0 3 -32z m-1892 -278 c0 -5 -4 -10 -10
-10 -5 0 -10 5 -10 10 0 6 5 10 10 10 6 0 10 -4 10 -10z m1572 -110 c-4 -25
-9 -30 -33 -30 -26 0 -29 4 -29 30 0 27 3 30 33 30 32 0 33 -2 29 -30z m-1282
-445 l0 -35 100 0 100 0 0 -30 c0 -27 3 -30 30 -30 l31 0 -3 -62 c-3 -63 -3
-63 -35 -66 l-33 -3 0 -60 c0 -59 0 -59 -30 -59 l-30 0 0 -65 0 -65 -35 0
c-32 0 -35 2 -35 30 l0 30 -95 0 -95 0 0 29 c0 26 4 30 33 33 l32 3 3 128 3
127 -30 0 c-26 0 -30 4 -33 33 -3 28 -7 32 -35 35 -27 3 -33 8 -33 26 0 12 3
26 7 29 3 4 46 7 95 7 l88 0 0 -35z m1160 -64 c0 -25 4 -30 28 -33 24 -3 27
-8 30 -42 5 -65 -4 -86 -38 -86 l-30 0 0 -125 0 -125 -30 0 c-27 0 -30 3 -30
30 l0 30 -95 0 -95 0 0 130 0 130 -65 0 -65 0 0 30 c0 27 -3 30 -30 30 -27 0
-30 3 -30 30 l0 30 225 0 225 0 0 -29z"/>
<path d="M3132 4448 c3 -29 7 -33 36 -36 28 -3 32 -7 32 -33 0 -26 3 -29 30
-29 27 0 30 -3 30 -30 0 -27 -3 -30 -30 -30 l-30 0 0 -95 0 -95 65 0 65 0 0
155 0 155 30 0 c27 0 30 -3 30 -30 0 -27 3 -30 30 -30 26 0 30 -4 30 -28 0
-37 4 -39 40 -34 25 4 30 9 30 33 0 25 -4 29 -29 29 -26 0 -30 4 -33 33 -3 28
-7 32 -35 35 -29 3 -33 7 -33 33 l0 29 -131 0 -130 0 3 -32z"/>
<path d="M2447 3953 c-16 -15 -6 -33 18 -33 28 0 34 24 9 34 -19 7 -19 7 -27
-1z"/>
<path d="M2430 3876 c0 -32 3 -35 33 -38 27 -2 33 -8 35 -30 3 -24 8 -28 33
-28 l29 0 0 -100 0 -100 -30 0 c-28 0 -30 3 -30 35 0 33 -2 35 -35 35 -32 0
-35 2 -35 30 0 27 -3 30 -30 30 -27 0 -30 -3 -30 -30 0 -27 3 -30 30 -30 28 0
30 -3 30 -35 0 -32 2 -35 30 -35 27 0 30 -3 30 -30 0 -28 3 -30 35 -30 32 0
35 2 35 30 l0 30 65 0 65 0 0 -30 0 -30 95 0 95 0 0 29 c0 26 4 30 33 33 28 3
32 7 35 36 3 28 7 32 33 32 26 0 29 3 29 30 0 28 -3 30 -35 30 -32 0 -35 -2
-35 -30 0 -27 -3 -30 -30 -30 -28 0 -30 -3 -30 -35 l0 -35 -95 0 -95 0 0 35
c0 33 -2 35 -35 35 l-36 0 3 63 c3 62 3 62 36 65 28 3 32 7 32 33 0 26 3 29
30 29 28 0 30 3 30 36 0 34 -1 35 -32 32 -29 -3 -33 -7 -36 -35 -3 -29 -7 -33
-32 -33 -24 0 -29 -5 -32 -27 -2 -19 -9 -28 -23 -30 -16 -1 -16 -1 -2 3 10 3
17 15 17 30 0 22 -3 24 -55 24 l-55 0 0 35 c0 33 -2 35 -35 35 -33 0 -35 -2
-35 -34z"/>
<path d="M2908 3123 c7 -3 16 -2 19 1 4 3 -2 6 -13 5 -11 0 -14 -3 -6 -6z"/>
<path d="M4735 2112 c-3 -3 -5 -18 -5 -34 0 -25 3 -28 35 -28 32 0 35 3 35 29
0 24 -5 29 -30 33 -17 3 -32 2 -35 0z"/>
</g>
</svg>
