<?xml version="1.0" standalone="no"?>
<!DOCTYPE svg PUBLIC "-//W3C//DTD SVG 20010904//EN"
 "http://www.w3.org/TR/2001/REC-SVG-20010904/DTD/svg10.dtd">
<svg version="1.0" xmlns="http://www.w3.org/2000/svg"
 width="640.000000pt" height="640.000000pt" viewBox="0 0 640.000000 640.000000"
 preserveAspectRatio="xMidYMid meet">
<metadata>
Created by potrace 1.16, written by Peter Selinger 2001-2019
</metadata>
<g transform="translate(0.000000,640.000000) scale(0.100000,-0.100000)"
fill="#000000" stroke="none">
<path d="M3368 5018 c0 -13 -1 -30 -2 -38 -1 -12 -19 -16 -80 -20 l-80 -5 0
-35 c0 -33 2 -35 37 -38 29 -3 37 -7 37 -23 0 -16 -7 -19 -45 -19 -38 0 -45 3
-43 18 2 13 -4 17 -32 17 -33 0 -35 -2 -38 -37 -2 -29 -7 -38 -22 -38 -15 0
-19 -9 -22 -42 -2 -30 -8 -43 -18 -43 -11 0 -14 -10 -12 -38 4 -37 3 -38 -24
-35 -24 3 -28 7 -28 38 -1 26 4 35 19 40 16 4 20 13 20 45 0 34 3 40 23 43 18
3 22 10 22 38 0 28 4 34 21 34 17 0 20 5 17 37 -3 35 -5 37 -38 38 -34 0 -35
-1 -32 -37 3 -37 3 -37 -39 -40 l-43 -3 -2 -117 c-2 -113 -1 -117 20 -120 18
-3 21 -9 18 -40 l-4 -38 141 0 141 0 0 41 c0 36 -3 40 -22 39 -63 -5 -68 -2
-68 40 l0 40 51 0 51 0 -4 -37 -3 -38 75 1 75 0 3 31 c3 31 2 32 -40 35 -42 3
-43 4 -48 43 -5 38 -7 40 -37 39 -28 0 -33 3 -33 23 0 20 5 23 40 23 29 0 40
-4 40 -15 0 -16 0 -16 45 -19 24 -1 31 4 33 21 2 15 8 20 18 16 10 -4 17 2 21
16 7 27 43 29 43 2 0 -11 -9 -21 -21 -24 -15 -4 -20 -11 -16 -21 4 -11 1 -16
-12 -16 -21 0 -31 -19 -31 -56 0 -21 5 -24 34 -24 34 0 35 1 38 42 l3 43 75 2
c41 1 78 2 83 2 4 1 7 16 7 35 0 33 2 35 37 38 35 3 37 5 37 38 l0 35 -75 0
-74 0 -3 -37 c-3 -37 -4 -38 -41 -38 -37 0 -39 2 -46 36 -3 20 -4 38 -2 41 3
2 22 5 44 7 36 2 38 3 41 40 l3 37 -38 -3 c-30 -2 -37 -7 -35 -20 2 -15 -5
-18 -46 -18 -41 0 -50 3 -48 18 1 12 -8 18 -31 20 -28 3 -33 0 -35 -20z"/>
<path d="M2889 4635 c0 0 -1 -33 -2 -74 l-1 -75 34 0 35 0 3 71 3 71 -36 4
c-19 2 -35 4 -36 3z"/>
<path d="M3444 4631 c-2 -2 -4 -20 -4 -38 0 -33 1 -34 37 -31 35 3 37 5 37 37
0 32 -3 34 -33 35 -18 1 -35 -1 -37 -3z"/>
<path d="M2964 4465 c-3 -7 -4 -24 -2 -36 4 -29 42 -33 206 -23 l112 6 0 29
c0 33 18 30 -188 35 -96 2 -124 -1 -128 -11z"/>
<path d="M3286 4390 c-2 -3 -2 -18 -2 -34 1 -26 5 -29 34 -30 30 -1 32 1 32
34 0 32 -2 35 -31 35 -17 1 -32 -2 -33 -5z"/>
<path d="M2640 4280 l0 -40 -40 0 -40 0 0 -40 0 -40 -40 0 -40 0 0 -160 0
-160 40 0 40 0 0 -40 0 -40 40 0 40 0 0 -40 0 -40 40 0 40 0 0 -40 0 -40 40 0
40 0 0 -80 0 -80 40 0 40 0 0 -80 0 -80 -40 0 -40 0 0 -40 0 -40 -40 0 -40 0
0 -40 0 -40 -40 0 -40 0 0 -80 0 -80 -40 0 -40 0 0 -80 0 -80 -40 0 -40 0 0
-80 0 -80 -40 0 -40 0 0 -80 0 -80 -40 0 -40 0 0 160 0 160 40 0 40 0 0 200 0
200 -40 0 -40 0 0 40 0 40 -40 0 -40 0 0 40 0 40 -120 0 -120 0 0 -40 0 -40
-40 0 -40 0 0 -40 0 -40 40 0 40 0 0 -40 0 -40 80 0 80 0 0 -160 0 -160 -40 0
-40 0 0 -200 0 -200 40 0 40 0 0 -40 0 -40 40 0 40 0 0 -40 0 -40 80 0 80 0 0
-40 0 -40 40 0 40 0 0 -40 0 -40 80 0 80 0 0 80 0 80 120 0 120 0 0 -40 0 -40
-40 0 -40 0 0 -160 0 -160 200 0 200 0 0 80 0 80 -40 0 -40 0 0 80 0 80 40 0
40 0 0 40 0 40 80 0 80 0 0 -120 0 -120 40 0 40 0 0 -80 0 -80 200 0 200 0 0
80 0 80 -40 0 -40 0 0 40 0 40 -80 0 -80 0 0 40 0 40 40 0 40 0 0 40 0 40 80
0 80 0 0 160 0 160 40 0 40 0 0 80 0 80 -40 0 -40 0 0 120 0 120 -40 0 -40 0
0 80 0 80 80 0 80 0 0 40 0 40 40 0 40 0 0 40 0 40 40 0 40 0 0 40 0 40 40 0
40 0 0 80 0 80 -40 0 -40 0 0 40 0 40 -40 0 -40 0 0 40 0 40 -40 0 -40 0 0 40
0 40 -40 0 -40 0 0 40 0 40 -40 0 -40 0 0 200 0 200 -40 0 -40 0 0 40 0 40
-80 0 -80 0 0 -40 0 -40 -40 0 -40 0 0 -40 0 -40 -40 0 -40 0 0 -40 0 -40
-160 0 -160 0 0 40 0 40 -40 0 -40 0 0 40 0 40 -40 0 -40 0 0 40 0 40 -120 0
-120 0 0 -40z m160 -80 l0 -40 40 0 40 0 0 -40 0 -40 40 0 40 0 0 -40 c0 -39
1 -40 35 -40 27 0 35 -4 35 -19 0 -10 3 -46 6 -80 l7 -61 -42 0 -41 0 0 80 0
80 -40 0 -40 0 0 40 0 40 -40 0 -40 0 0 -120 0 -120 40 0 40 0 0 -80 0 -80
-80 0 -80 0 0 40 0 40 -40 0 -40 0 0 40 0 40 -41 0 -40 0 2 153 c1 83 3 155 5
158 1 3 19 3 38 1 33 -4 36 -7 36 -38 l0 -34 80 0 80 0 0 40 0 40 -79 0 -79 0
3 38 c2 20 4 38 4 40 1 1 35 2 76 2 l75 0 0 -40z m718 -242 l3 -37 77 -3 c60
-2 77 -6 78 -18 1 -8 2 -25 3 -37 1 -18 8 -22 39 -25 l37 -3 3 -77 3 -78 52
-2 c29 -1 63 -2 76 -2 22 -1 25 -6 25 -41 1 -40 1 -40 39 -38 37 1 37 1 37
-38 l0 -39 45 0 46 0 -3 -75 -3 -75 -37 0 c-37 0 -38 1 -38 35 0 34 -1 35 -40
35 l-40 0 0 40 0 40 -80 0 -80 0 0 40 0 40 -80 0 -80 0 0 40 0 40 -40 0 -40 0
0 40 0 40 -40 0 -40 0 0 -40 0 -40 -40 0 -40 0 0 40 0 40 40 0 40 0 0 40 0 40
-80 0 -80 0 0 80 0 80 118 -3 117 -2 3 -37z m-238 -478 l0 -40 -80 0 -80 0 0
40 0 40 80 0 80 0 0 -40z m-1040 -240 l0 -40 40 0 40 0 -2 -197 -3 -198 -37
-3 -38 -3 0 -160 0 -159 40 0 40 0 0 -40 0 -40 -40 0 -40 0 0 40 0 40 -40 0
-40 0 0 160 0 160 40 0 40 0 0 200 0 200 -80 0 -80 0 0 40 0 40 80 0 80 0 0
-40z m720 -280 l0 -80 -40 0 -40 0 0 -40 0 -40 -81 0 -80 0 3 38 c3 36 4 37
41 36 l37 0 0 43 0 43 40 0 40 0 0 40 0 40 40 0 40 0 0 -80z m398 38 c3 -37 4
-38 43 -38 39 0 39 0 39 -40 l0 -40 -40 0 -40 0 0 -40 0 -40 79 0 80 0 3 38
c3 35 5 37 38 37 l35 0 3 -117 3 -118 -41 0 -40 0 0 -40 0 -40 -45 0 -45 0 0
41 c0 24 -4 38 -10 34 -6 -3 -8 -19 -5 -36 5 -26 2 -29 -20 -29 -20 0 -25 5
-25 26 0 19 4 25 15 20 9 -3 15 0 15 8 0 8 -6 14 -12 13 -7 0 -34 1 -60 1
l-48 2 0 40 0 40 -80 0 -80 0 0 80 0 80 39 0 c39 0 40 1 43 38 3 35 5 37 38
37 33 0 35 -2 38 -37 3 -37 4 -38 43 -38 39 0 39 0 39 39 0 39 -1 40 -37 43
-36 3 -38 5 -41 41 l-3 38 38 -3 c36 -3 38 -5 41 -40z m242 1 l0 -40 -37 3
c-35 3 -38 6 -39 33 -1 41 2 45 42 45 33 0 34 -1 34 -41z m-720 -319 l0 -40
-40 0 -40 0 0 -40 0 -40 -40 0 -40 0 0 80 0 80 80 0 80 0 0 -40z m960 0 l0
-40 -40 0 -40 0 0 40 0 40 40 0 40 0 0 -40z m-800 -80 l0 -40 -40 0 -40 0 0
40 0 40 40 0 40 0 0 -40z m74 -80 c0 -33 -2 -35 -34 -35 -31 0 -34 2 -33 33 1
17 2 35 2 38 1 3 15 4 33 2 29 -3 32 -6 32 -38z m566 -40 l0 -80 40 0 40 0 0
-40 0 -40 -80 0 -80 0 0 40 0 40 -40 0 -40 0 0 -40 0 -40 -160 0 -160 0 0 80
0 80 40 0 40 0 0 -40 0 -40 40 0 40 0 0 40 0 40 120 0 120 0 0 40 0 40 40 0
40 0 0 -80z m-640 -440 l0 -40 40 0 40 0 0 -40 0 -40 -40 0 -40 0 0 40 0 40
-40 0 -40 0 0 -41 0 -40 -37 3 c-36 3 -38 5 -41 41 l-3 37 40 0 41 0 0 40 0
40 40 0 40 0 0 -40z m560 0 l0 -40 -40 0 -40 0 0 40 0 40 40 0 40 0 0 -40z
m160 -80 l0 -40 -40 0 -40 0 0 40 0 40 40 0 40 0 0 -40z"/>
<path d="M3440 2680 l0 -40 40 0 40 0 0 40 0 40 -40 0 -40 0 0 -40z"/>
<path d="M3385 2590 c3 -5 8 -10 11 -10 2 0 4 5 4 10 0 6 -5 10 -11 10 -5 0
-7 -4 -4 -10z"/>
</g>
</svg>
